<svg width="44" height="30" viewBox="0 0 44 30" fill="none" xmlns="http://www.w3.org/2000/svg">
<path d="M24.8328 0.00927734H2.58826C1.17141 0.00927734 0.019043 1.17997 0.019043 2.61934V16.5525H27.4115V2.61934C27.402 1.17037 26.2591 0.00927734 24.8328 0.00927734Z" fill="#102A42"/>
<path d="M0.0188914 19.3167C0.0188914 20.756 1.17126 21.9267 2.58811 21.9267H11.552V27.9433H9.03005C8.66167 27.9433 8.36885 28.2408 8.36885 28.615C8.36885 28.9892 8.66167 29.2867 9.03005 29.2867H18.3813C18.7496 29.2867 19.0424 28.9892 19.0424 28.615C19.0424 28.2408 18.7496 27.9433 18.3813 27.9433H15.7648V21.9267H24.8232C26.24 21.9267 27.3924 20.756 27.3924 19.3167V17.8965H0V19.3167H0.0188914Z" fill="#102A42"/>
<path d="M41.9294 0H32.342C31.6714 0 31.1235 0.556557 31.1235 1.23786V27.5016C31.1235 28.1829 31.6714 28.7395 32.342 28.7395H41.9388C42.6095 28.7395 43.1573 28.1829 43.1573 27.5016V1.23786C43.1479 0.556557 42.6 0 41.9294 0ZM33.6266 5.20093H40.6448V9.13521H33.6266V5.20093ZM37.131 23.7976C36.0164 23.7976 35.1096 22.8764 35.1096 21.7441C35.1096 20.6118 36.0164 19.6906 37.131 19.6906C38.2456 19.6906 39.1523 20.6118 39.1523 21.7441C39.1523 22.8764 38.255 23.7976 37.131 23.7976ZM40.6448 12.0715H33.6266C33.2583 12.0715 32.9654 11.7741 32.9654 11.3998C32.9654 11.0256 33.2583 10.7281 33.6266 10.7281H40.6448C41.0131 10.7281 41.306 11.0256 41.306 11.3998C41.306 11.7741 41.0131 12.0715 40.6448 12.0715Z" fill="#102A42"/>
</svg>
