<svg width="75" height="55" viewBox="0 0 75 55" fill="none" xmlns="http://www.w3.org/2000/svg">
<path d="M64.4701 0H10.3936C4.65369 0 0 4.65369 0 10.3936V44.6064C0 50.3463 4.65369 55 10.3936 55H64.4701C70.2099 55 74.8637 50.3463 74.8637 44.6064V10.3936C74.8637 4.65369 70.2099 0 64.4701 0ZM26.0511 37.1095L11.4966 49.5263C10.47 50.4025 8.92662 50.2807 8.05063 49.253C7.17449 48.2264 7.29629 46.6831 8.32406 45.8071L22.8786 33.3903C23.9051 32.5141 25.4483 32.6359 26.3244 33.6637C27.2005 34.6901 27.0787 36.2335 26.0511 37.1095ZM37.4319 32.389C35.4851 32.3841 33.598 31.7373 32.1227 30.4614L32.1239 30.4625L32.1192 30.459C32.1203 30.4602 32.1217 30.4602 32.1227 30.4614L9.79107 11.0788C8.77046 10.193 8.66182 8.64983 9.5463 7.63055C10.4319 6.60994 11.9753 6.5013 12.9944 7.38578L35.3323 26.7731C35.8097 27.1981 36.5964 27.5048 37.4319 27.5C38.2662 27.5025 39.0395 27.2041 39.5433 26.7648L39.5541 26.7553L61.8692 7.38592C62.8885 6.50145 64.4318 6.61009 65.3175 7.63069C66.2018 8.64983 66.0933 10.1932 65.0727 11.079L42.7349 30.4674C41.2644 31.7299 39.3798 32.3865 37.4319 32.389ZM66.8141 49.253C65.938 50.2807 64.3947 50.4025 63.3684 49.5263L48.8138 37.1095C47.7862 36.2333 47.6644 34.6901 48.5405 33.6637C49.4165 32.6359 50.9598 32.5143 51.9863 33.3903L66.5409 45.8071C67.5685 46.6831 67.6903 48.2264 66.8141 49.253Z" fill="#102A42"/>
</svg>
