<svg width="32" height="32" viewBox="0 0 32 32" fill="none" xmlns="http://www.w3.org/2000/svg">
<path d="M11.2257 29.4804C11.4794 29.7538 11.4645 30.1866 11.1918 30.4409L9.71835 31.8187C9.44565 32.0731 9.01489 32.0582 8.76118 31.7841L0.180554 22.5367C-0.0731539 22.2633 -0.0575515 21.8312 0.215151 21.5761L1.69059 20.2004C1.96329 19.9453 2.39406 19.9609 2.64776 20.235L11.2257 29.4804ZM22.1745 12.0804C22.4282 12.3538 22.4126 12.7865 22.1399 13.0409L12.8666 21.7036C12.5939 21.958 12.1632 21.9431 11.9095 21.669L9.69596 19.2805C9.44226 19.0071 9.45786 18.5743 9.73056 18.32L19.0018 9.65726C19.2738 9.40287 19.7045 9.4178 19.9583 9.69185L22.1745 12.0804ZM14.3807 26.5315C14.6345 26.8049 14.6189 27.237 14.3461 27.4921L12.8707 28.8692C12.598 29.1242 12.1672 29.1086 11.9135 28.8346L3.33766 19.5871C3.08395 19.3138 3.09888 18.881 3.37158 18.6266L4.84431 17.2502C5.11701 16.9958 5.54777 17.0107 5.80148 17.2848L14.3807 26.5315ZM28.6691 12.4121C28.9228 12.6855 28.9072 13.1183 28.6339 13.3727L27.1591 14.7497C26.8864 15.0041 26.4556 14.9892 26.2012 14.7158L17.624 5.4704C17.3696 5.19702 17.3852 4.7649 17.6579 4.50984L19.1368 3.12937C19.4088 2.87498 19.8395 2.88991 20.0932 3.16397L28.6691 12.4121ZM31.8194 9.46799C32.0732 9.74137 32.0576 10.1742 31.7849 10.4292L30.3128 11.8056C30.0408 12.0607 29.61 12.0451 29.3563 11.7717L20.7804 2.52224C20.5267 2.24886 20.5416 1.81606 20.8143 1.561L22.2878 0.181885C22.5598 -0.0731798 22.9899 -0.0582559 23.2436 0.215803L31.8194 9.46799Z" fill="#102A42"/>
</svg>
