<svg width="17" height="23" viewBox="0 0 17 23" fill="none" xmlns="http://www.w3.org/2000/svg">
<path d="M15.6084 11.8795L14.2103 10.4765C13.878 10.189 13.6832 9.7635 13.6717 9.292C13.6488 8.7745 13.8551 8.257 14.2332 7.8775L15.6084 6.4975C16.8003 5.3015 17.2472 4.1515 16.869 3.243C16.5023 2.346 15.3678 1.8515 13.6946 1.8515H1.71899V0.8625C1.71899 0.391 1.32935 0 0.859494 0C0.389637 0 0 0.391 0 0.8625V22.1375C0 22.609 0.389637 23 0.859494 23C1.32935 23 1.71899 22.609 1.71899 22.1375V16.5255H13.6946C15.3449 16.5255 16.4565 16.0195 16.8346 15.111C17.2128 14.2025 16.7773 13.064 15.6084 11.8795Z" fill="#102A42"/>
</svg>
