<svg width="37" height="36" viewBox="0 0 37 36" fill="none" xmlns="http://www.w3.org/2000/svg">
<path fill-rule="evenodd" clip-rule="evenodd" d="M18.5 0C8.27875 0 0 8.25874 0 18.4553C0 26.6218 5.29562 33.5194 12.6494 35.9647C13.5744 36.1262 13.9212 35.5726 13.9212 35.0881C13.9212 34.6498 13.8981 33.1965 13.8981 31.6508C9.25 32.5044 8.0475 30.5204 7.6775 29.4823C7.46938 28.9517 6.5675 27.3138 5.78125 26.8755C5.13375 26.5295 4.20875 25.6759 5.75812 25.6529C7.215 25.6298 8.25563 26.9909 8.6025 27.5445C10.2675 30.3359 12.9269 29.5515 13.9906 29.0671C14.1525 27.8675 14.6381 27.0601 15.17 26.5987C11.0537 26.1373 6.7525 24.5455 6.7525 17.4864C6.7525 15.4794 7.46938 13.8184 8.64875 12.5265C8.46375 12.0651 7.81625 10.1735 8.83375 7.63588C8.83375 7.63588 10.3831 7.15143 13.9212 9.52754C15.4012 9.1123 16.9737 8.90468 18.5462 8.90468C20.1187 8.90468 21.6912 9.1123 23.1712 9.52754C26.7094 7.12836 28.2587 7.63588 28.2587 7.63588C29.2762 10.1735 28.6287 12.0651 28.4437 12.5265C29.6231 13.8184 30.34 15.4563 30.34 17.4864C30.34 24.5686 26.0156 26.1373 21.8994 26.5987C22.57 27.1754 23.1481 28.2827 23.1481 30.0129C23.1481 32.4813 23.125 34.4653 23.125 35.0881C23.125 35.5726 23.4719 36.1493 24.3969 35.9647C28.0694 34.7278 31.2607 32.3732 33.5215 29.2322C35.7823 26.0912 36.9989 22.3221 37 18.4553C37 8.25874 28.7212 0 18.5 0Z" fill="#102A42"/>
</svg>
