<svg width="32" height="36" viewBox="0 0 32 36" fill="none" xmlns="http://www.w3.org/2000/svg">
<path d="M31.673 13.2481V12.251H3.7471V13.2481C3.7471 13.7341 3.77202 14.2147 3.81939 14.6886H0.987094C-0.329031 14.6886 -0.329031 16.7615 0.987094 16.7615H4.19827C5.19933 20.7291 7.84171 24.029 11.3543 25.8622L8.78335 33.7813C8.6137 34.3045 8.8933 34.868 9.40827 35.0407C9.51028 35.0744 9.61366 35.0907 9.71567 35.0907C10.1278 35.0907 10.5122 34.8251 10.6484 34.4057L11.753 31.0033H20.7197C20.6341 31.3285 20.5842 31.6681 20.5842 32.02C20.5842 34.1987 22.3294 35.9716 24.474 35.9716C26.6187 35.9716 28.3631 34.1987 28.3631 32.02C28.3631 29.9218 26.7438 28.206 24.7091 28.0813L23.9997 25.8935C28.5441 23.5512 31.673 18.7692 31.673 13.2481ZM21.5702 24.777C20.3567 25.1976 19.0614 25.4378 17.7098 25.4378C16.333 25.4378 15.015 25.1891 13.7829 24.7536C13.1559 24.5321 12.553 24.2621 11.9779 23.9428C8.52168 22.023 6.08537 18.4349 5.74949 14.2446H29.6694C29.332 18.4602 26.8698 22.0684 23.3788 23.9789C22.8035 24.2946 22.1978 24.5594 21.5702 24.777ZM26.4015 32.02C26.4015 32.2965 26.344 32.5589 26.2417 32.7972C25.9547 33.4665 25.3099 33.9371 24.5547 33.969C24.5278 33.9709 24.5022 33.9774 24.4755 33.9774C23.4134 33.9774 22.5494 33.0991 22.5494 32.0201C22.5494 31.6468 22.6581 31.3008 22.8376 31.0034C22.9814 30.7652 23.1693 30.5568 23.3968 30.401C23.7048 30.188 24.0754 30.0634 24.4755 30.0634C24.5752 30.0634 24.6717 30.079 24.7681 30.0939C25.0123 30.1315 25.2392 30.2167 25.4443 30.338C26.0142 30.6786 26.4015 31.3013 26.4015 32.02ZM22.7704 28.4741C22.479 28.6188 22.2075 28.798 21.9627 29.0091H12.4008L13.1677 26.6466C14.5938 27.1473 16.1177 27.4321 17.7094 27.4321C19.2755 27.4321 20.778 27.1576 22.1852 26.6713L22.7704 28.4741Z" fill="#102A42"/>
<path d="M25.5018 16.238C24.5631 17.9976 23.3392 19.4987 21.6727 20.588C21.1257 20.9456 21.1026 21.5682 21.3531 22.0156C21.6081 22.4695 22.1442 22.7432 22.7027 22.3778C22.741 22.353 22.7755 22.3252 22.8133 22.2998C24.7132 21.0286 26.1804 19.3141 27.263 17.2844C27.8906 16.1092 26.128 15.0627 25.5018 16.238Z" fill="#102A42"/>
<path d="M12.7407 9.43545C13.1216 8.1763 13.0129 6.99449 12.6295 5.75064C12.1588 4.22428 11.3843 2.98572 12.411 1.50512C13.1708 0.409689 11.4008 -0.624673 10.6488 0.458931C9.84898 1.61167 9.68029 2.78374 9.94839 4.15125C10.2736 5.80698 11.3019 7.13332 10.7724 8.88364C10.3856 10.1655 12.3561 10.7091 12.7407 9.43545Z" fill="#102A42"/>
<path d="M18.1835 9.43545C18.5643 8.1763 18.4557 6.99449 18.0723 5.75064C17.602 4.22428 16.8274 2.98572 17.8538 1.50512C18.6136 0.409689 16.8434 -0.624673 16.0915 0.458931C15.2918 1.61167 15.1231 2.78374 15.3914 4.15125C15.7164 5.80698 16.7443 7.13332 16.2152 8.88364C15.828 10.1655 17.7982 10.7091 18.1835 9.43545Z" fill="#102A42"/>
<path d="M20.8534 0.459158C20.0539 1.61189 19.8847 2.78397 20.153 4.15148C20.4789 5.80721 21.5066 7.13354 20.9775 8.88386C20.5903 10.1657 22.5598 10.7087 22.9451 9.43498C23.3259 8.17583 23.2172 6.99402 22.8332 5.75017C22.3629 4.22395 21.5884 2.98525 22.6147 1.50465C23.375 0.409776 21.6049 -0.62375 20.8534 0.459158Z" fill="#102A42"/>
</svg>
