<svg width="30" height="34" viewBox="0 0 30 34" fill="none" xmlns="http://www.w3.org/2000/svg">
<path d="M1.53022 8.25684L1.38135 9.67453L4.95327 13.9859L5.57335 9.33572C5.60229 9.11868 5.66279 8.91529 5.72034 8.71081L1.53022 8.25684Z" fill="#102A42"/>
<path d="M4.56892 16.8697L4.75603 15.4666L1.2214 11.1997L0.698725 16.1785C0.568974 17.4129 1.44895 18.5199 2.66417 18.6519L4.77635 18.8807C4.56578 18.252 4.47527 17.5727 4.56892 16.8697Z" fill="#102A42"/>
<path d="M17.2935 26.561L16.6215 21.8514C16.5438 21.3076 16.2426 20.8233 15.793 20.5179L13.0684 18.6698L12.1113 18.0206C12.1154 17.9923 12.1206 17.9564 12.1271 17.9104L12.1954 17.3982L11.6354 17.2418C10.782 17.0034 10.0957 16.3586 9.79507 15.5132L9.17232 13.7607L5.82648 15.6857C5.82648 15.6857 5.69318 16.6854 5.6488 17.0185C5.61123 17.2999 5.60381 18.2258 5.72647 18.6255C5.92033 19.2574 6.50244 21.1534 6.50244 21.1534L7.54452 24.5484L6.08718 30.1779C5.81899 31.213 6.4277 32.2725 7.44605 32.5443C7.60889 32.5876 7.7722 32.6086 7.93237 32.6086C8.77779 32.6086 9.55034 32.0329 9.77542 31.1638L11.3721 24.996C11.4631 24.6441 11.4552 24.2733 11.3482 23.9263L10.664 21.6976L12.9689 23.2609L13.5189 27.1164C13.6568 28.0813 14.4718 28.7763 15.404 28.7758C15.495 28.7758 15.5871 28.7693 15.6796 28.7558C16.7221 28.6025 17.4446 27.6199 17.2935 26.561Z" fill="#102A42"/>
<path d="M29.538 14.4396C29.0571 14.0715 28.3733 14.1699 28.0121 14.658L23.9221 20.1789C23.8412 20.2886 23.7806 20.4118 23.7439 20.5437L22.0599 26.5937L19.4758 26.9689C19.3417 26.9884 19.2124 27.0326 19.0943 27.1007L11.6135 31.3919C11.0894 31.6924 10.9048 32.3676 11.2006 32.9C11.4007 33.2605 11.7699 33.4627 12.1503 33.4627C12.3318 33.4627 12.5159 33.4167 12.685 33.3195L19.987 29.131L23.0697 28.6835C23.496 28.6219 23.8466 28.3105 23.9642 27.8889L25.7859 21.3454L29.753 15.9899C30.1154 15.5012 30.0185 14.8072 29.538 14.4396Z" fill="#102A42"/>
<path d="M11.9118 8.43002C11.6058 7.5679 10.6689 7.11928 9.81973 7.43221C8.97057 7.74358 8.53051 8.69486 8.83754 9.55752L10.8206 15.1373C11.0004 15.6448 11.4122 16.0319 11.9246 16.1745L17.0648 17.6102C17.2095 17.6507 17.3553 17.6702 17.499 17.6702C18.2162 17.6702 18.8743 17.1864 19.0739 16.4492C19.3133 15.5649 18.8015 14.6514 17.931 14.4082L13.6074 13.2007L11.9118 8.43002Z" fill="#102A42"/>
<path d="M1.97815 7.67515L5.94287 8.10502L6.44529 8.15948C6.69202 8.18624 6.93689 8.16152 7.17413 8.10603C6.91095 8.51023 6.72197 8.97195 6.65392 9.48434L6.01078 14.3074L8.79752 12.704L7.81272 9.93295C7.54901 9.19076 7.62187 8.4117 7.94381 7.75752C7.98512 7.72818 8.03031 7.70598 8.06975 7.67358C8.34569 7.4471 8.55205 7.15468 8.69323 6.83123C8.78555 6.61969 8.85541 6.39728 8.88001 6.16279C8.89892 5.98296 8.89064 5.80755 8.86878 5.63567C8.74056 4.62816 7.9527 3.8021 6.91463 3.68944L2.44581 3.2051C1.86264 3.14181 1.27899 3.31641 0.82249 3.69039C0.366524 4.06505 0.0748693 4.60765 0.0127012 5.20173C-0.117116 6.43633 0.762929 7.54333 1.97815 7.67515Z" fill="#102A42"/>
<path d="M11.9462 6.45145C13.6999 6.45145 15.1215 5.00725 15.1215 3.22573C15.1215 1.44421 13.6999 0 11.9462 0C10.1926 0 8.771 1.44421 8.771 3.22573C8.771 5.00725 10.1926 6.45145 11.9462 6.45145Z" fill="#102A42"/>
</svg>
