<svg width="55" height="55" viewBox="0 0 55 55" fill="none" xmlns="http://www.w3.org/2000/svg">
<path d="M50.875 0H4.125C1.84683 0 0 1.84683 0 4.125V50.875C0 53.1532 1.84683 55 4.125 55H50.875C53.1532 55 55 53.1532 55 50.875V4.125C55 1.84683 53.1532 0 50.875 0ZM16.5 46.75H8.25V22H16.5V46.75ZM12.375 17.1875C9.73635 17.1121 7.65094 14.9252 7.70086 12.2859C7.75079 9.64669 9.91741 7.54025 12.557 7.56467C15.1966 7.5891 17.3239 9.73527 17.325 12.375C17.2798 15.0677 15.0679 17.2181 12.375 17.1875ZM46.75 46.75H38.5V33.715C38.5 29.81 36.85 28.4075 34.705 28.4075C33.4348 28.4921 32.2507 29.0793 31.4146 30.0392C30.5785 30.9992 30.1594 32.2527 30.25 33.5225C30.2364 33.6505 30.2364 33.7795 30.25 33.9075V46.75H22V22H29.975V25.575C31.6109 23.0865 34.4235 21.6281 37.4 21.725C41.6625 21.725 46.64 24.09 46.64 31.79L46.75 46.75Z" fill="#102A42"/>
</svg>
