<svg width="34" height="34" viewBox="0 0 34 34" fill="none" xmlns="http://www.w3.org/2000/svg">
<path d="M33.8845 25.4359C33.8842 25.4366 33.8832 25.4364 33.8831 25.4357C33.7572 24.6568 33.4978 23.9585 33.129 23.3327L33.144 23.3604C33.0125 23.1458 32.7967 22.9947 32.5429 22.9531L32.5383 22.952L22.191 21.3093C22.1506 21.3023 22.1033 21.2989 22.056 21.2989C21.8172 21.2989 21.6003 21.3946 21.4434 21.5504C20.6647 22.3348 20.0659 23.2992 19.7175 24.3767V24.3767C19.7101 24.4037 19.6807 24.4181 19.6549 24.4074C15.0463 22.5102 11.4611 18.9147 9.6182 14.4211V14.4211C9.59424 14.3549 9.63003 14.2822 9.69666 14.2594C10.7715 13.8929 11.6956 13.3107 12.4505 12.5592C12.6074 12.4023 12.7043 12.1855 12.7043 11.9467C12.7043 11.8994 12.7008 11.8532 12.6927 11.8071L12.6939 11.8117L11.0522 1.46392C11.0095 1.20436 10.8572 0.98748 10.645 0.859431L10.6415 0.857123C10.0589 0.511044 9.37939 0.257253 8.65373 0.134971L8.61912 0.130357C8.29263 0.0472976 7.91768 0 7.5312 0C7.45852 0 7.38584 0.00115368 7.31316 0.00461447H7.32354C3.28798 0.0334544 0.0253809 3.29814 0 7.33112V7.33342C0.0173051 22.0545 11.9463 33.9838 26.6672 34C30.7051 33.9758 33.9735 30.7099 33.9988 26.6758V26.6735C33.9988 26.6447 34 26.6112 34 26.5766C34 26.1728 33.9573 25.7795 33.8777 25.3988L33.8846 25.4354C33.8846 25.4356 33.8846 25.4358 33.8845 25.4359V25.4359ZM26.6684 32.2719C12.9016 32.2558 1.74667 21.1005 1.73051 7.33688C1.75243 4.25216 4.24784 1.75693 7.33161 1.73617H7.33392C7.35007 1.73617 7.36853 1.73617 7.38699 1.73617C7.70425 1.73617 8.01459 1.77077 8.31224 1.83537L8.2834 1.82961C8.7068 1.89882 9.0852 2.01649 9.43938 2.17684V2.17684C9.42667 2.17175 9.41326 2.18246 9.41541 2.19598L10.547 9.32865C10.7732 10.7544 10.2607 12.3134 8.87242 12.709C8.68794 12.7616 8.49947 12.8049 8.30762 12.8384L8.27417 12.843C7.86461 12.9168 7.55889 13.2698 7.55889 13.6955C7.55889 13.797 7.57619 13.8939 7.6085 13.9839L7.60619 13.9781C9.65166 19.8292 14.1775 24.3536 19.8882 26.3563L20.0278 26.3989C20.112 26.4289 20.209 26.4462 20.3093 26.4462C20.4708 26.4462 20.6231 26.4024 20.7523 26.3251L20.7489 26.3274C20.9635 26.1994 21.1157 25.9871 21.1607 25.7379L21.1619 25.7322C21.3384 24.7135 21.7687 23.8172 22.3859 23.0835V23.0835C22.3829 23.087 22.3849 23.0925 22.3895 23.0932L30.6475 24.4052C31.3918 24.5235 32.0611 25.0057 32.183 25.7495V25.7495L32.1864 25.7772C32.2383 26.0217 32.2683 26.302 32.2683 26.5893C32.2683 26.617 32.2683 26.6458 32.2672 26.6735V26.6689C32.2487 29.7548 29.7533 32.2511 26.6695 32.2719H26.6684Z" fill="#102A42"/>
</svg>
