<svg width="34" height="23" viewBox="0 0 34 23" fill="none" xmlns="http://www.w3.org/2000/svg">
<path d="M6.90576 21.25C10.1332 21.25 12.7495 18.6337 12.7495 15.4062C12.7495 12.1788 10.1332 9.5625 6.90576 9.5625C3.67835 9.5625 1.06201 12.1788 1.06201 15.4062C1.06201 18.6337 3.67835 21.25 6.90576 21.25Z" fill="#D9D9D9"/>
<path d="M6.90625 22.3125C3.09825 22.3125 0 19.2142 0 15.4062C0 11.5982 3.09825 8.5 6.90625 8.5C10.7142 8.5 13.8125 11.5982 13.8125 15.4062C13.8125 19.2142 10.7142 22.3125 6.90625 22.3125ZM6.90625 10.625C4.27019 10.625 2.125 12.7702 2.125 15.4062C2.125 18.0423 4.27019 20.1875 6.90625 20.1875C9.54231 20.1875 11.6875 18.0423 11.6875 15.4062C11.6875 12.7702 9.54231 10.625 6.90625 10.625Z" fill="#D9D9D9"/>
<path d="M24.9683 21.25C28.1957 21.25 30.812 18.6337 30.812 15.4062C30.812 12.1788 28.1957 9.5625 24.9683 9.5625C21.7408 9.5625 19.1245 12.1788 19.1245 15.4062C19.1245 18.6337 21.7408 21.25 24.9683 21.25Z" fill="#D9D9D9"/>
<path d="M24.9687 22.3125C21.1607 22.3125 18.0625 19.2142 18.0625 15.4062C18.0625 11.5982 21.1607 8.5 24.9687 8.5C28.7767 8.5 31.875 11.5982 31.875 15.4062C31.875 19.2142 28.7767 22.3125 24.9687 22.3125ZM24.9687 10.625C22.3327 10.625 20.1875 12.7702 20.1875 15.4062C20.1875 18.0423 22.3327 20.1875 24.9687 20.1875C27.6048 20.1875 29.75 18.0423 29.75 15.4062C29.75 12.7702 27.6048 10.625 24.9687 10.625Z" fill="#D9D9D9"/>
<path d="M1.0625 15.9375C0.474937 15.9375 0 15.4626 0 14.875C0 6.6725 6.6725 0 14.875 0C15.4626 0 15.9375 0.474937 15.9375 1.0625C15.9375 1.65006 15.4626 2.125 14.875 2.125C7.84443 2.125 2.125 7.84443 2.125 14.875C2.125 15.4626 1.65006 15.9375 1.0625 15.9375Z" fill="#D9D9D9"/>
<path d="M19.125 15.9375C18.5374 15.9375 18.0625 15.4626 18.0625 14.875C18.0625 6.6725 24.735 0 32.9375 0C33.5251 0 34 0.474937 34 1.0625C34 1.65006 33.5251 2.125 32.9375 2.125C25.9069 2.125 20.1875 7.84443 20.1875 14.875C20.1875 15.4626 19.7126 15.9375 19.125 15.9375Z" fill="#D9D9D9"/>
</svg>
