<svg width="98" height="97" viewBox="0 0 98 97" fill="none" xmlns="http://www.w3.org/2000/svg">
<path d="M95.4216 68.3896L75.5471 48.5L92.3069 31.9131C94.0312 30.215 95.3995 28.1964 96.3331 25.9733C97.2667 23.7503 97.7474 21.3666 97.7474 18.9592C97.7474 16.5517 97.2667 14.168 96.3331 11.945C95.3995 9.72193 94.0312 7.70336 92.3069 6.00522C88.8318 2.57665 84.1249 0.651392 79.2179 0.651392C74.311 0.651392 69.6041 2.57665 66.129 6.00522L59.5288 12.4638L49.0725 22.8123L28.9013 2.62913C27.156 0.943529 24.814 0 22.3754 0C19.9368 0 17.5947 0.943529 15.8494 2.62913L2.72336 15.6198C1.86009 16.472 1.17519 17.4843 0.707867 18.5989C0.240548 19.7135 0 20.9084 0 22.1151C0 23.3218 0.240548 24.5167 0.707867 25.6312C1.17519 26.7458 1.86009 27.7582 2.72336 28.6104L23.117 48.5L21.4855 50.1147L14.8854 56.5733L1.90761 83.4353C1.06769 85.1506 0.788467 87.0822 1.10874 88.9617C1.42901 90.8413 2.33287 92.5755 3.69474 93.9233C5.05661 95.2711 6.80885 96.1656 8.70801 96.4826C10.6072 96.7996 12.5589 96.5232 14.2921 95.692L41.1375 82.8481L44.7713 79.2518L47.6635 76.3895L49.0725 74.7014L68.947 94.3709C70.6923 96.0565 73.0343 97 75.4729 97C77.9116 97 80.2536 96.0565 81.9989 94.3709L95.125 81.3802C96.008 80.5475 96.7162 79.5505 97.2092 78.4464C97.7021 77.3422 97.9701 76.1527 97.9976 74.9459C98.0252 73.739 97.8118 72.5387 97.3698 71.4137C96.9277 70.2886 96.2657 69.261 95.4216 68.3896ZM79.1809 9.67489C81.6455 9.66701 84.015 10.6156 85.781 12.3171C86.6443 13.1693 87.3292 14.1816 87.7965 15.2962C88.2638 16.4108 88.5043 17.6056 88.5043 18.8124C88.5043 20.0191 88.2638 21.214 87.7965 22.3285C87.3292 23.4431 86.6443 24.4555 85.781 25.3077L72.6549 12.684C74.4025 11.0002 76.7419 10.0531 79.1809 10.0419V9.67489ZM9.24932 22.0784L22.3754 9.16114L28.4564 15.1794L22.0046 21.638L28.5306 28.0966L35.0565 21.638L42.4724 28.9774L29.6429 42.2616L9.24932 22.0784ZM10.2134 87.4719L21.8563 63.7658L34.2408 75.9491L10.2134 87.4719ZM41.1375 69.8575L28.0114 56.8669L66.129 19.1426L79.1809 32.0599L41.1375 69.8575ZM75.7696 87.8389L55.8951 68.2428L69.0211 55.2522L75.9179 62.0778L69.3919 68.5364L75.9179 75.0684L82.518 68.5364L88.8956 74.9216L75.7696 87.8389Z" fill="#F3F3F3"/>
</svg>
