<svg width="102" height="103" viewBox="0 0 102 103" fill="none" xmlns="http://www.w3.org/2000/svg">
<mask id="mask0_1640_2862" style="mask-type:luminance" maskUnits="userSpaceOnUse" x="0" y="0" width="102" height="103">
<path d="M102 0H0V103H102V0Z" fill="white"/>
</mask>
<g mask="url(#mask0_1640_2862)">
<path d="M69.4488 53.824L98.8408 24.144C100.907 22.0499 102.067 19.2142 102.067 16.258C102.067 13.3018 100.907 10.4662 98.8408 8.37215L93.6547 3.1352C91.5504 1.10771 88.7538 -0.0234375 85.8453 -0.0234375C82.9369 -0.0234375 80.1401 1.10771 78.0359 3.1352L50.9422 30.4946C51.6523 26.0461 51.1693 21.4868 49.5435 17.2907C47.9176 13.0946 45.2082 9.41484 41.6971 6.63419C38.186 3.85355 34.0013 2.07346 29.5782 1.47906C25.1551 0.884665 20.655 1.49764 16.5459 3.25425C16.0649 3.45953 15.6413 3.78099 15.3122 4.19037C14.9831 4.59974 14.7586 5.0845 14.6585 5.60201C14.5584 6.11952 14.5857 6.654 14.7381 7.15834C14.8904 7.66268 15.1631 8.12148 15.5322 8.49444L25.1458 18.1989L23.0994 23.2975L18.0982 25.3832L8.45284 15.6432C8.0835 15.2705 7.62915 14.9951 7.12971 14.8413C6.63026 14.6874 6.10097 14.6598 5.58849 14.7609C5.076 14.862 4.59595 15.0887 4.19055 15.421C3.78515 15.7534 3.46681 16.1812 3.26352 16.6669C1.41788 21.0629 0.846946 25.8979 1.61705 30.6089C2.38715 35.3199 4.46663 39.7131 7.61346 43.2769C10.7603 46.8408 14.8449 49.4287 19.3918 50.7392C23.9386 52.0497 28.7606 52.0289 33.2962 50.6793C33.0916 51.5223 32.9846 52.3865 32.9775 53.2544C32.9869 54.8942 33.3571 56.5114 34.0612 57.9891L14.321 77.9229L10.4195 80.0988C10.3909 80.0988 10.378 80.1438 10.3525 80.1567C10.1243 80.3157 9.91843 80.5051 9.74056 80.72C9.58403 80.8486 9.43991 80.9919 9.31022 81.148C9.31022 81.1674 9.27842 81.1738 9.26567 81.1931L0.429907 95.2815C0.041929 95.8996 -0.125923 96.6328 -0.0459608 97.3601C0.0340013 98.0874 0.357006 98.7654 0.869784 99.2825L3.62052 102.057C4.13275 102.574 4.80388 102.899 5.52341 102.979C6.24294 103.059 6.96801 102.889 7.57941 102.498L21.5344 93.5756C21.5535 93.5756 21.563 93.5435 21.5789 93.5306C21.9239 93.1971 22.2516 92.8457 22.5607 92.478C22.5766 92.4523 22.6053 92.4394 22.6212 92.4137L24.7728 88.4707L44.5067 68.5435C46.9657 69.7702 49.8038 69.9713 52.4084 69.1035L81.2713 98.2492C82.3217 99.3449 83.5776 100.219 84.9657 100.819C86.3538 101.42 87.8464 101.736 89.3566 101.748C90.8667 101.761 92.3643 101.47 93.7619 100.892C95.1596 100.314 96.4294 99.4613 97.4974 98.383C98.5654 97.3048 99.4102 96.0227 99.9827 94.6114C100.555 93.2002 100.844 91.688 100.832 90.1631C100.82 88.6381 100.507 87.1308 99.9125 85.7289C99.3179 84.3271 98.453 83.0588 97.3681 81.9978L69.4488 53.824ZM13.1288 39.7903C11.1097 37.7618 9.58063 35.2907 8.66023 32.5689C7.73983 29.847 7.45296 26.9476 7.82172 24.0957L15.1083 31.4538C15.5534 31.9041 16.1208 32.2111 16.7386 32.336C17.3564 32.4609 17.997 32.398 18.5795 32.1554L26.781 28.7307C27.1722 28.5674 27.5273 28.327 27.8256 28.0236C28.1239 27.7202 28.3593 27.3599 28.5181 26.9637L31.8586 18.6399C32.0939 18.0535 32.1529 17.4102 32.0282 16.7902C31.9034 16.1702 31.6006 15.6012 31.1574 15.154L23.9153 7.84103C27.1641 7.42129 30.4649 7.87391 33.4851 9.15326C36.5054 10.4326 39.1382 12.4935 41.1181 15.128C43.098 17.7626 44.3551 20.8776 44.7625 24.1592C45.1699 27.4408 44.7134 30.7729 43.4388 33.8195C43.1893 34.411 43.121 35.0643 43.2426 35.6954C43.3642 36.3264 43.6701 36.9063 44.121 37.3602L44.1432 37.3827L37.067 44.5284L37.0478 44.509C36.5983 44.0538 36.0242 43.7448 35.3993 43.622C34.7744 43.4993 34.1274 43.5683 33.5417 43.8202C30.1299 45.2851 26.3618 45.6841 22.7233 44.9658C19.0849 44.2475 15.743 42.4448 13.1288 39.7903ZM22.1973 81.9849L20.763 80.5365L38.0838 63.0458L39.515 64.491L22.1973 81.9849ZM12.5201 88.0522L12.6635 88.1971L14.7545 90.3054L8.66315 94.2033L12.5201 88.0522ZM46.078 61.9514L40.4522 56.2735C39.6985 55.3771 39.3074 54.2266 39.357 53.0518C39.4067 51.8769 39.8933 50.7642 40.7199 49.9358L82.5558 7.693C83.4307 6.81066 84.6168 6.31505 85.8533 6.31505C87.0898 6.31505 88.2758 6.81066 89.1507 7.693L94.3336 12.9266C95.207 13.8117 95.6974 15.0102 95.6974 16.2597C95.6974 17.5091 95.207 18.7076 94.3336 19.5927L52.4945 61.8355C51.6328 62.661 50.4961 63.1307 49.3085 63.1522C48.1209 63.1736 46.9684 62.7453 46.078 61.9514ZM92.8578 93.714C91.9046 94.6342 90.6368 95.1478 89.3181 95.1478C87.9995 95.1478 86.7316 94.6342 85.7784 93.714L57.8591 65.521L64.9385 58.3722L92.861 86.5684C93.3263 87.0372 93.6955 87.5942 93.9474 88.2072C94.1992 88.8203 94.3289 89.4775 94.3289 90.1412C94.3289 90.805 94.1992 91.4622 93.9474 92.0753C93.6955 92.6883 93.3263 93.2452 92.861 93.714H92.8578Z" fill="#F3F3F3"/>
<path d="M86.4065 87.1995C86.0391 87.5704 85.7887 88.043 85.6873 88.5576C85.5858 89.0721 85.6378 89.6054 85.8365 90.0901C86.0353 90.5748 86.372 90.9892 86.8039 91.2806C87.2359 91.5721 87.7437 91.7277 88.2632 91.7277C88.7828 91.7277 89.2907 91.5721 89.7226 91.2806C90.1546 90.9892 90.4912 90.5748 90.6899 90.0901C90.8887 89.6054 90.9406 89.0721 90.8392 88.5576C90.7377 88.043 90.4875 87.5704 90.12 87.1995C89.8763 86.953 89.5869 86.7575 89.2683 86.624C88.9497 86.4906 88.6081 86.4219 88.2632 86.4219C87.9183 86.4219 87.5768 86.4906 87.2582 86.624C86.9396 86.7575 86.6502 86.953 86.4065 87.1995Z" fill="#F3F3F3"/>
<path d="M87.0185 15.0898C86.8473 14.9168 86.6442 14.7795 86.4205 14.6859C86.1968 14.5922 85.957 14.5439 85.7148 14.5439C85.4726 14.5439 85.2329 14.5922 85.0092 14.6859C84.7855 14.7795 84.5822 14.9168 84.4111 15.0898L48.0386 51.8222C47.6929 52.1727 47.4991 52.6475 47.5 53.1421C47.5009 53.6368 47.6964 54.1108 48.0434 54.46C48.3904 54.8091 48.8606 55.0048 49.3505 55.0039C49.8403 55.0029 50.3097 54.8056 50.6555 54.4551L86.993 17.7421C87.1689 17.5707 87.3093 17.3656 87.406 17.1388C87.5027 16.9121 87.5536 16.6682 87.556 16.4214C87.5584 16.1745 87.5121 15.9297 87.4198 15.7011C87.3275 15.4725 87.1911 15.2646 87.0185 15.0898Z" fill="#F3F3F3"/>
</g>
</svg>
