<svg width="104" height="98" viewBox="0 0 104 98" fill="none" xmlns="http://www.w3.org/2000/svg">
<path fill-rule="evenodd" clip-rule="evenodd" d="M32.5 19.6V14.7C32.5 10.8013 34.0408 7.06232 36.7836 4.30553C39.5263 1.54875 43.2462 0 47.125 0L56.875 0C60.7538 0 64.4737 1.54875 67.2164 4.30553C69.9592 7.06232 71.5 10.8013 71.5 14.7V19.6H76.635C78.584 19.6007 80.5131 19.9929 82.3092 20.7535C84.1052 21.5142 85.7318 22.6281 87.0935 24.0296L99.8335 37.142C102.505 39.886 104 43.5773 104 47.4189V83.3C104 87.1987 102.459 90.9377 99.7164 93.6945C96.9737 96.4513 93.2538 98 89.375 98H14.625C10.7462 98 7.02628 96.4513 4.28356 93.6945C1.54084 90.9377 0 87.1987 0 83.3L0 47.4189C0 43.5773 1.495 39.8925 4.16 37.142L16.9065 24.0296C18.2689 22.6273 19.8966 21.513 21.6938 20.7523C23.491 19.9916 25.4214 19.5998 27.3715 19.6H32.5ZM42.25 14.7C42.25 13.4004 42.7636 12.1541 43.6779 11.2352C44.5921 10.3162 45.8321 9.8 47.125 9.8H56.875C58.1679 9.8 59.4079 10.3162 60.3221 11.2352C61.2364 12.1541 61.75 13.4004 61.75 14.7V19.6H42.25V14.7ZM23.881 30.8765C24.3354 30.4088 24.8783 30.0372 25.4778 29.7837C26.0772 29.5301 26.7211 29.3996 27.3715 29.4H76.6285C77.2789 29.3996 77.9228 29.5301 78.5222 29.7837C79.1217 30.0372 79.6646 30.4088 80.119 30.8765L92.859 43.9955C93.7497 44.9102 94.249 46.139 94.25 47.4189V52.2667H68.25V50.6333C68.25 46.1253 64.61 42.4667 60.125 42.4667H43.875C39.39 42.4667 35.75 46.1253 35.75 50.6333V52.2667H9.75V47.4189C9.74928 46.1399 10.2462 44.9113 11.1345 43.9955L23.881 30.8765ZM35.75 62.0667H9.75V83.3C9.75 86.0048 11.934 88.2 14.625 88.2H89.375C90.6679 88.2 91.9079 87.6837 92.8221 86.7648C93.7364 85.8459 94.25 84.5996 94.25 83.3V62.0667H68.25V63.7C68.25 68.208 64.61 71.8667 60.125 71.8667H43.875C39.39 71.8667 35.75 68.208 35.75 63.7V62.0667ZM45.5 62.0667V52.2667H58.5V62.0667H45.5Z" fill="#F3F3F3"/>
</svg>
