<svg width="37" height="34" viewBox="0 0 37 34" fill="none" xmlns="http://www.w3.org/2000/svg">
<path d="M24.6527 18.9875C24.3868 18.7223 23.9555 18.7223 23.6895 18.9875L18.0554 24.6046C17.7895 24.8698 17.7895 25.2997 18.0554 25.5649L26.0049 33.4906C26.1326 33.6179 26.3059 33.6895 26.4866 33.6895H35.6689C36.0451 33.6895 36.35 33.3854 36.35 33.0104V30.931C36.35 30.7509 36.2783 30.5782 36.1505 30.4508L24.6527 18.9875Z" fill="#102A42"/>
<path d="M0.749564 22.6818C0.347901 22.6262 0 22.9339 0 23.3233V23.8119C0 24.1541 0.271331 24.4381 0.623523 24.4915C5.21944 25.189 8.8591 28.6811 9.58614 33.0908C9.64182 33.4287 9.93784 33.689 10.2945 33.689H10.8037C11.2096 33.689 11.5303 33.3552 11.4723 32.9698C10.6736 27.6592 6.28456 23.448 0.749564 22.6818Z" fill="#102A42"/>
<path d="M1.21601 11.8694C0.767267 11.4266 0 11.7402 0 12.3665V19.1456C0 19.5143 0.289223 19.8186 0.660408 19.861C7.64624 20.6578 13.205 26.1437 14.0125 33.0378C14.0554 33.404 14.3637 33.6895 14.7374 33.6895H21.6067C22.2413 33.6895 22.5591 32.9323 22.1104 32.4895L1.21601 11.8694Z" fill="#102A42"/>
<path d="M27.5975 15.1176C27.3368 14.8286 26.9142 14.8286 26.6536 15.1176L26.3424 15.4627C26.0818 15.7517 26.0818 16.2203 26.3424 16.5093L35.2113 26.3442C35.6317 26.8104 36.3506 26.4802 36.3506 25.8208V25.1308C36.3506 24.9345 36.2803 24.7462 36.1551 24.6074L27.5975 15.1176Z" fill="#102A42"/>
<path d="M0.733063 26.5766C0.347028 26.4913 0 26.804 0 27.2053V33.0212C0 33.39 0.294316 33.689 0.657373 33.689H6.38221C6.77725 33.689 7.0851 33.3365 7.00109 32.9443C6.32133 29.7711 3.85658 27.2672 0.733063 26.5766Z" fill="#102A42"/>
<path d="M21.7797 9.46191C21.6499 9.22349 21.4044 9.07031 21.1351 9.07031H12.615C12.4247 9.07031 12.2421 9.14665 12.1076 9.28264L7.2253 14.2147C6.94508 14.4978 6.94508 14.9568 7.2253 15.2399L15.0169 23.111C15.2972 23.3941 15.7515 23.3941 16.0317 23.111L24.6604 14.3943C24.9443 14.1075 24.9394 13.6421 24.6606 13.3502C23.785 12.4333 22.668 11.0933 21.7797 9.46191Z" fill="#102A42"/>
<path d="M3.23334 9.07031C2.62646 9.07031 2.32253 9.7399 2.75167 10.1315L4.93886 12.1276C5.20488 12.3703 5.63619 12.3703 5.90221 12.1276L8.08942 10.1315C8.51857 9.7399 8.21469 9.07031 7.60774 9.07031H3.23334Z" fill="#102A42"/>
<path d="M32.1118 9.07031C31.8545 9.07031 31.62 9.22736 31.4959 9.47181C30.6972 11.0461 29.7049 12.3555 28.8936 13.2877C28.6326 13.5876 28.6304 14.0598 28.8994 14.3514L35.1802 21.1606C35.612 21.6287 36.3505 21.2972 36.3505 20.635V9.81355C36.3505 9.40306 36.0436 9.07031 35.6649 9.07031H32.1118Z" fill="#102A42"/>
<path d="M26.4655 0C24.1799 0 22.3203 1.8345 22.3203 4.08945C22.3203 5.1671 22.584 6.20146 22.9875 7.1541L23.0891 7.37832C23.8734 9.10917 25.1001 10.5537 25.9966 11.4653C26.254 11.7269 26.6761 11.7271 26.9333 11.4653C27.7756 10.6083 28.9103 9.27999 29.6954 7.68688C29.7067 7.66377 29.7182 7.64079 29.7294 7.61753C29.7434 7.58862 29.7571 7.55984 29.7709 7.53073C29.7874 7.49574 29.8037 7.46069 29.8199 7.4255C30.2925 6.39788 30.6108 5.26836 30.6108 4.08945C30.6107 1.83457 28.7512 0 26.4655 0ZM26.4655 6.11995C25.3307 6.11995 24.4076 5.20914 24.4076 4.08973C24.4076 2.97032 25.3308 2.05951 26.4655 2.05951C27.6002 2.05951 28.5233 2.97032 28.5233 4.08973C28.5233 5.20914 27.6002 6.11995 26.4655 6.11995Z" fill="#102A42"/>
</svg>
