<svg width="33" height="33" viewBox="0 0 33 33" fill="none" xmlns="http://www.w3.org/2000/svg">
<rect x="5.54395" y="5.54395" width="22.176" height="22.176" fill="#D9D9D9"/>
<path d="M24.7152 5.67627H6.9653C6.25633 5.67627 5.67627 6.25633 5.67627 6.9653V24.7152C5.67627 25.4242 6.25633 26.0043 6.9653 26.0043H24.7152C25.4242 26.0043 26.0043 25.4242 26.0043 24.7152V6.9653C26.0043 6.25204 25.4242 5.67627 24.7152 5.67627ZM20.47 12.7445H21.5614V18.1498H20.47V12.7445ZM15.4643 12.7445H17.2174C17.8834 12.7445 18.3131 12.7702 18.515 12.8261C18.8244 12.9077 19.0822 13.0839 19.2927 13.3546C19.5033 13.6253 19.6064 13.9776 19.6064 14.4073C19.6064 14.7381 19.5462 15.0174 19.4259 15.2452C19.3056 15.4729 19.1509 15.6491 18.9662 15.778C18.7814 15.9069 18.5923 15.9928 18.399 16.0358C18.1369 16.0873 17.7631 16.1131 17.2646 16.1131H16.5514V18.1498H15.4643V12.7445ZM11.5671 12.7445H12.723L14.8842 18.1498H13.6983L13.2257 16.9209H11.0644L10.6176 18.1498H9.45742L11.5671 12.7445ZM21.411 24.4875H8.70119C7.86762 24.4875 7.19303 23.8129 7.19303 22.9793V10.3039C7.19303 10.0676 7.38638 9.87421 7.6227 9.87421C7.85903 9.87421 8.05238 10.0676 8.05238 10.3039V22.9793C8.05238 23.336 8.34456 23.6282 8.70119 23.6282H21.411C21.6474 23.6282 21.8407 23.8215 21.8407 24.0578C21.8407 24.2942 21.6516 24.4875 21.411 24.4875Z" fill="white"/>
<path d="M18.8315 14.7207C19.0119 14.6774 19.1497 14.6076 19.2505 14.5144C19.3513 14.4213 19.4043 14.3115 19.4043 14.1884C19.4043 14.0353 19.3354 13.9089 19.1922 13.8124C19.049 13.7126 18.8687 13.6527 18.6512 13.6261C18.4921 13.6062 18.1686 13.5962 17.6807 13.5962H17.0283V14.7839H17.7655C18.2959 14.7872 18.6512 14.7639 18.8315 14.7207Z" fill="white"/>
<path d="M22.2433 24.2105H8.61343C8.23099 24.2105 7.91765 23.9149 7.91765 23.5541V10.7306C7.91765 10.4915 7.7103 10.2959 7.45687 10.2959C7.20344 10.2959 6.99609 10.4915 6.99609 10.7306V23.5541C6.99609 24.3974 7.71952 25.0799 8.61343 25.0799H22.2433C22.4967 25.0799 22.7041 24.8843 22.7041 24.6452C22.7041 24.4061 22.5013 24.2105 22.2433 24.2105Z" fill="#06F3FF"/>
<path d="M32.099 11.4413C32.5945 11.4413 33 11.036 33 10.5407C33 10.0454 32.5945 9.6402 32.099 9.6402H28.9589V7.08269C28.9589 5.34466 27.5443 3.93082 25.8053 3.93082H24.5529V0.900532C24.5529 0.405239 24.1474 0 23.6519 0C23.1563 0 22.7509 0.405239 22.7509 0.900532V3.93082H20.656V0.900532C20.656 0.405239 20.2505 0 19.7549 0C19.2594 0 18.8539 0.405239 18.8539 0.900532V3.93082H16.759V0.900532C16.759 0.405239 16.3536 0 15.858 0C15.3625 0 14.957 0.405239 14.957 0.900532V3.93082H12.8621V0.900532C12.8621 0.405239 12.4567 0 11.9611 0C11.4655 0 11.0601 0.405239 11.0601 0.900532V3.93082H7.19468C5.4557 3.93082 4.04109 5.34466 4.04109 7.08269V9.6402H0.901024C0.405461 9.6402 0 10.0454 0 10.5407C0 11.036 0.405461 11.4413 0.901024 11.4413H4.04109V13.535H0.901024C0.405461 13.535 0 13.9402 0 14.4355C0 14.9308 0.405461 15.3361 0.901024 15.3361H4.04109V17.4298H0.901024C0.405461 17.4298 0 17.835 0 18.3303C0 18.8256 0.405461 19.2309 0.901024 19.2309H4.04109V21.3246H0.901024C0.405461 21.3246 0 21.7298 0 22.2251C0 22.7204 0.405461 23.1257 0.901024 23.1257H4.04109V25.6832C4.04109 27.4212 5.4557 28.835 7.19468 28.835H8.58225V32.0995C8.58225 32.5948 8.98771 33 9.48328 33C9.97884 33 10.3843 32.5948 10.3843 32.0995V28.835H12.4792V32.0995C12.4792 32.5948 12.8846 33 13.3802 33C13.8758 33 14.2812 32.5948 14.2812 32.0995V28.835H16.3761V32.0995C16.3761 32.5948 16.7816 33 17.2771 33C17.7727 33 18.1782 32.5948 18.1782 32.0995V28.835H20.273V32.0995C20.273 32.5948 20.6785 33 21.1741 33C21.6696 33 22.0751 32.5948 22.0751 32.0995V28.835H25.8053C27.5443 28.835 28.9589 27.4212 28.9589 25.6832V23.1257H32.099C32.5945 23.1257 33 22.7204 33 22.2251C33 21.7298 32.5945 21.3246 32.099 21.3246H28.9589V19.2309H32.099C32.5945 19.2309 33 18.8256 33 18.3303C33 17.835 32.5945 17.4298 32.099 17.4298H28.9589V15.3361H32.099C32.5945 15.3361 33 14.9308 33 14.4355C33 13.9402 32.5945 13.535 32.099 13.535H28.9589V11.4413H32.099ZM27.1569 25.6787C27.1569 26.4216 26.5487 27.0295 25.8053 27.0295H7.19468C6.45133 27.0295 5.84314 26.4216 5.84314 25.6787V7.08269C5.84314 6.33975 6.45133 5.73189 7.19468 5.73189H25.8053C26.5487 5.73189 27.1569 6.33975 27.1569 7.08269V25.6787Z" fill="#005BFF"/>
<path d="M11.0278 16.956H13.4319L13.9577 18.2164H15.2768L12.8679 12.6724H11.5822L9.24023 18.2164H10.5307L11.0278 16.956ZM12.2131 13.9636L13.04 16.0217H11.4006L12.2131 13.9636ZM17.1361 16.1274H17.9295C18.4791 16.1274 18.8997 16.101 19.1913 16.0481C19.4063 16.0041 19.6166 15.9159 19.8222 15.7837C20.0277 15.6515 20.1997 15.4708 20.3336 15.2372C20.4674 15.0037 20.5343 14.7172 20.5343 14.3779C20.5343 13.9372 20.4196 13.5758 20.1854 13.2982C19.9512 13.0205 19.6644 12.8398 19.3203 12.7561C19.0957 12.6988 18.6129 12.6724 17.8769 12.6724H15.922V18.2164H17.1361V16.1274ZM17.1361 13.6111H17.7239C18.1637 13.6111 18.4504 13.6243 18.5986 13.6507C18.7946 13.6816 18.9571 13.7653 19.0861 13.8975C19.2152 14.0297 19.2773 14.1972 19.2773 14.3955C19.2773 14.5586 19.2295 14.704 19.1387 14.8274C19.0479 14.9508 18.9188 15.0433 18.7611 15.1006C18.5986 15.1579 18.2784 15.1888 17.8004 15.1888H17.1361V13.6111ZM21.4902 12.6724H22.7042V18.2164H21.4902V12.6724Z" fill="#005BFF"/>
</svg>
