<svg width="27" height="37" viewBox="0 0 27 37" fill="none" xmlns="http://www.w3.org/2000/svg">
<path d="M2.1975 33.3533L0 6.5376L26.2438 6.59149L23.9201 33.3533L13.221 36.4467L2.1975 33.3533Z" fill="#1B73BA"/>
<path d="M13.1948 33.8084V9.03076L24.0442 9.06671L22.1095 31.2354L13.1948 33.8084Z" fill="#1C88C7"/>
<path d="M21.4049 12.2559H4.69092L5.1437 15.484H13.075L5.27051 18.8021L5.72308 21.9228H17.222L16.8053 26.281L12.912 27.0343L9.38107 26.1377L9.10935 23.6625H5.86797L6.30246 28.8101L13.2561 30.7292L19.9201 28.6308L20.7712 18.5689H13.7267L21.4047 15.4123L21.4049 12.2559Z" fill="white"/>
<path d="M10.061 3.44312H10.92C10.8926 3.77072 10.801 4.0628 10.6451 4.31937C10.4894 4.57366 10.2707 4.77411 9.98887 4.92072C9.70708 5.06734 9.36459 5.14064 8.9614 5.14064C8.65214 5.14064 8.3738 5.08566 8.12639 4.9757C7.87898 4.86344 7.66708 4.70538 7.49069 4.5015C7.31429 4.29531 7.17914 4.04676 7.0852 3.75582C6.99357 3.46489 6.94775 3.13959 6.94775 2.77993V2.36414C6.94775 2.00448 6.99471 1.67919 7.08865 1.38825C7.18486 1.09731 7.32231 0.848754 7.501 0.642579C7.67968 0.434114 7.89388 0.2749 8.14358 0.16494C8.39556 0.0549801 8.67848 0 8.99232 0C9.39093 0 9.72775 0.0733067 10.0026 0.21992C10.2776 0.366534 10.4906 0.569272 10.6417 0.828137C10.7952 1.087 10.8891 1.38367 10.9235 1.71813H10.0644C10.0415 1.50278 9.99107 1.31837 9.91322 1.16489C9.83771 1.0114 9.7254 0.894571 9.57644 0.814392C9.42759 0.731922 9.23287 0.690687 8.99232 0.690687C8.79532 0.690687 8.6235 0.727341 8.47689 0.800647C8.33027 0.873954 8.20772 0.981623 8.10921 1.12365C8.0107 1.26569 7.93625 1.44094 7.88586 1.64939C7.83774 1.85558 7.8137 2.09154 7.8137 2.35727V2.77993C7.8137 3.03192 7.83545 3.261 7.87898 3.46718C7.9248 3.67106 7.99352 3.84631 8.08515 3.99292C8.17909 4.13954 8.29821 4.25294 8.44252 4.33311C8.58685 4.41329 8.75981 4.45338 8.9614 4.45338C9.20652 4.45338 9.40467 4.41444 9.55592 4.33656C9.70942 4.25866 9.8251 4.14527 9.90295 3.99637C9.98315 3.84517 10.0358 3.66076 10.061 3.44312ZM14.3357 3.78331C14.3357 3.68023 14.3197 3.58859 14.2876 3.50841C14.2578 3.42824 14.204 3.35493 14.1262 3.28849C14.0482 3.22206 13.9382 3.15791 13.7963 3.09606C13.6564 3.03192 13.4778 2.96663 13.2601 2.9002C13.0219 2.82689 12.8019 2.74556 12.6003 2.65622C12.4011 2.56458 12.2269 2.45921 12.0781 2.34009C11.9292 2.21868 11.8135 2.08009 11.7311 1.92429C11.6485 1.76623 11.6073 1.58411 11.6073 1.37794C11.6073 1.17405 11.6497 0.988496 11.7344 0.821264C11.8215 0.654034 11.9441 0.509711 12.1022 0.388297C12.2625 0.264592 12.4515 0.169522 12.6691 0.103088C12.8867 0.0343618 13.1273 0 13.3907 0C13.7618 0 14.0814 0.0687251 14.3494 0.206175C14.6198 0.343625 14.8271 0.528037 14.9714 0.759412C15.118 0.990786 15.1913 1.24621 15.1913 1.5257H14.3357C14.3357 1.36076 14.3002 1.21529 14.2292 1.08929C14.1605 0.961006 14.055 0.860209 13.913 0.786902C13.7733 0.713596 13.5957 0.676942 13.3805 0.676942C13.1765 0.676942 13.0071 0.707869 12.8719 0.769721C12.7367 0.831573 12.636 0.915189 12.5694 1.02057C12.503 1.12595 12.4699 1.24507 12.4699 1.37794C12.4699 1.47186 12.4916 1.55776 12.5351 1.63566C12.5786 1.71125 12.6451 1.78227 12.7344 1.8487C12.8238 1.91284 12.9359 1.97356 13.0711 2.03082C13.2063 2.08809 13.3655 2.14307 13.5488 2.19576C13.826 2.27823 14.0677 2.36987 14.2738 2.47066C14.4801 2.56917 14.6519 2.68142 14.7893 2.80742C14.9267 2.93342 15.0299 3.07659 15.0985 3.23695C15.1673 3.39502 15.2017 3.57485 15.2017 3.77645C15.2017 3.9872 15.1592 4.17733 15.0745 4.34686C14.9897 4.51409 14.8683 4.65727 14.7103 4.7764C14.5544 4.89322 14.3666 4.98371 14.1467 5.04785C13.9291 5.10971 13.6863 5.14064 13.4182 5.14064C13.1777 5.14064 12.9406 5.10856 12.7069 5.04442C12.4756 4.98028 12.2647 4.88291 12.0746 4.75234C11.8844 4.61948 11.7333 4.45454 11.6211 4.25752C11.5088 4.05821 11.4527 3.8257 11.4527 3.55996H12.3152C12.3152 3.72261 12.3427 3.86121 12.3976 3.97574C12.4549 4.09029 12.5339 4.18421 12.6348 4.25752C12.7355 4.32854 12.8524 4.38123 12.9852 4.41558C13.1204 4.44995 13.2648 4.46713 13.4182 4.46713C13.6198 4.46713 13.7882 4.4385 13.9234 4.38123C14.0608 4.32395 14.1638 4.24378 14.2326 4.14068C14.3014 4.0376 14.3357 3.91847 14.3357 3.78331ZM18.5967 3.78331C18.5967 3.68023 18.5806 3.58859 18.5486 3.50841C18.5187 3.42824 18.4649 3.35493 18.387 3.28849C18.3092 3.22206 18.1992 3.15791 18.0572 3.09606C17.9174 3.03192 17.7387 2.96663 17.5211 2.9002C17.2829 2.82689 17.063 2.74556 16.8614 2.65622C16.662 2.56458 16.488 2.45921 16.339 2.34009C16.1902 2.21868 16.0745 2.08009 15.992 1.92429C15.9096 1.76623 15.8682 1.58411 15.8682 1.37794C15.8682 1.17405 15.9106 0.988496 15.9955 0.821264C16.0824 0.654034 16.205 0.509711 16.363 0.388297C16.5234 0.264592 16.7124 0.169522 16.9301 0.103088C17.1477 0.0343618 17.3883 0 17.6516 0C18.0228 0 18.3423 0.0687251 18.6105 0.206175C18.8807 0.343625 19.088 0.528037 19.2324 0.759412C19.379 0.990786 19.4523 1.24621 19.4523 1.5257H18.5967C18.5967 1.36076 18.5612 1.21529 18.4901 1.08929C18.4213 0.961006 18.3161 0.860209 18.174 0.786902C18.0343 0.713596 17.8567 0.676942 17.6414 0.676942C17.4376 0.676942 17.2679 0.707869 17.1328 0.769721C16.9977 0.831573 16.8969 0.915189 16.8304 1.02057C16.764 1.12595 16.7307 1.24507 16.7307 1.37794C16.7307 1.47186 16.7526 1.55776 16.796 1.63566C16.8395 1.71125 16.9059 1.78227 16.9954 1.8487C17.0847 1.91284 17.197 1.97356 17.3321 2.03082C17.4673 2.08809 17.6266 2.14307 17.8098 2.19576C18.0869 2.27823 18.3287 2.36987 18.5348 2.47066C18.741 2.56917 18.9128 2.68142 19.0503 2.80742C19.1877 2.93342 19.2908 3.07659 19.3595 3.23695C19.4283 3.39502 19.4626 3.57485 19.4626 3.77645C19.4626 3.9872 19.4202 4.17733 19.3355 4.34686C19.2507 4.51409 19.1293 4.65727 18.9711 4.7764C18.8154 4.89322 18.6276 4.98371 18.4077 5.04785C18.19 5.10971 17.9472 5.14064 17.6792 5.14064C17.4386 5.14064 17.2015 5.10856 16.9678 5.04442C16.7365 4.98028 16.5258 4.88291 16.3356 4.75234C16.1455 4.61948 15.9943 4.45454 15.882 4.25752C15.7697 4.05821 15.7137 3.8257 15.7137 3.55996H16.5761C16.5761 3.72261 16.6036 3.86121 16.6586 3.97574C16.7159 4.09029 16.795 4.18421 16.8957 4.25752C16.9966 4.32854 17.1134 4.38123 17.2462 4.41558C17.3814 4.44995 17.5257 4.46713 17.6792 4.46713C17.8808 4.46713 18.0491 4.4385 18.1843 4.38123C18.3218 4.32395 18.4249 4.24378 18.4936 4.14068C18.5622 4.0376 18.5967 3.91847 18.5967 3.78331Z" fill="url(#paint0_linear_1171_27)"/>
<defs>
<linearGradient id="paint0_linear_1171_27" x1="6.59726" y1="3.45916" x2="19.7925" y2="3.45916" gradientUnits="userSpaceOnUse">
<stop stop-color="#1B73BA"/>
<stop offset="1" stop-color="#1C88C7"/>
</linearGradient>
</defs>
</svg>
