<svg width="32" height="43" viewBox="0 0 32 43" fill="none" xmlns="http://www.w3.org/2000/svg">
<path d="M1.03082 36.8268V42.6029H0V36.8268H1.03082ZM3.4703 39.3536V40.1433H0.767983V39.3536H3.4703ZM3.81117 36.8268V37.6201H0.767983V36.8268H3.81117ZM5.59353 38.3104V42.6029H4.59967V38.3104H5.59353ZM4.53396 37.1836C4.53396 37.0384 4.58325 36.9178 4.68183 36.8226C4.78313 36.7247 4.92275 36.676 5.10072 36.676C5.27593 36.676 5.41421 36.7247 5.51551 36.8226C5.61681 36.9178 5.66744 37.0384 5.66744 37.1836C5.66744 37.3266 5.61681 37.4456 5.51551 37.5408C5.41421 37.636 5.27593 37.6835 5.10072 37.6835C4.92275 37.6835 4.78313 37.636 4.68183 37.5408C4.58325 37.4456 4.53396 37.3266 4.53396 37.1836ZM7.67161 39.1277V42.6029H6.68185V38.3104H7.62642L7.67161 39.1277ZM9.03097 38.2828L9.02276 39.1713C8.96254 39.1606 8.8968 39.1528 8.82564 39.1476C8.75718 39.142 8.68871 39.1394 8.62028 39.1394C8.45052 39.1394 8.30131 39.1635 8.17263 39.2109C8.04394 39.2558 7.93581 39.3221 7.8482 39.4092C7.76332 39.494 7.69761 39.597 7.65105 39.7186C7.60452 39.8404 7.57714 39.9766 7.56893 40.1274L7.34305 40.1433C7.34305 39.8736 7.37043 39.6237 7.4252 39.3936C7.47994 39.1635 7.5621 38.961 7.67161 38.7865C7.78384 38.612 7.9235 38.4758 8.0905 38.378C8.26023 38.2798 8.456 38.2311 8.67778 38.2311C8.738 38.2311 8.80236 38.2363 8.87079 38.247C8.94198 38.2574 8.99537 38.2694 9.03097 38.2828ZM11.5279 42.6822C11.1994 42.6822 10.9023 42.6305 10.6368 42.5275C10.3739 42.4219 10.1494 42.275 9.96322 42.0871C9.7798 41.8993 9.63877 41.6786 9.54023 41.4248C9.44165 41.1706 9.39236 40.897 9.39236 40.6035V40.4446C9.39236 40.1089 9.44303 39.8047 9.54433 39.5324C9.64563 39.26 9.78663 39.027 9.96733 38.8339C10.148 38.6383 10.3616 38.4888 10.608 38.3858C10.8544 38.2828 11.1214 38.2311 11.4088 38.2311C11.7264 38.2311 12.0043 38.2828 12.2425 38.3858C12.4807 38.4888 12.6778 38.6344 12.8339 38.8222C12.9927 39.0072 13.1105 39.2282 13.1871 39.4846C13.2665 39.7413 13.3062 40.0241 13.3062 40.3338V40.7423H9.87286V40.0559H12.3288V39.9805C12.3233 39.8086 12.2877 39.6474 12.222 39.4966C12.159 39.3458 12.0618 39.2243 11.9304 39.1316C11.799 39.039 11.6238 38.9929 11.4047 38.9929C11.2405 38.9929 11.094 39.027 10.9653 39.0959C10.8394 39.1619 10.734 39.2584 10.6491 39.3855C10.5642 39.5125 10.4985 39.6659 10.4519 39.8456C10.4081 40.0228 10.3862 40.2226 10.3862 40.4446V40.6035C10.3862 40.7911 10.4122 40.9659 10.4643 41.1271C10.519 41.2857 10.5984 41.4248 10.7025 41.5437C10.8065 41.6627 10.9325 41.7566 11.0803 41.8252C11.2281 41.8915 11.3965 41.9246 11.5854 41.9246C11.8236 41.9246 12.0358 41.8782 12.222 41.7855C12.4082 41.6932 12.5697 41.5623 12.7066 41.3929L13.2282 41.8808C13.1324 42.0156 13.0078 42.1453 12.8544 42.2698C12.7011 42.3913 12.5136 42.4904 12.2918 42.5671C12.0728 42.6438 11.8181 42.6822 11.5279 42.6822ZM14.0824 36.5093H15.0721V41.6864L14.9777 42.6029H14.0824V36.5093ZM17.9716 40.417V40.5002C17.9716 40.8177 17.9346 41.1099 17.8607 41.377C17.7895 41.6416 17.68 41.8717 17.5322 42.0673C17.387 42.2629 17.2063 42.415 16.99 42.5236C16.7765 42.6292 16.5287 42.6822 16.2467 42.6822C15.9702 42.6822 15.7293 42.6321 15.5239 42.5314C15.3186 42.431 15.1461 42.2883 15.0064 42.103C14.8695 41.9178 14.7586 41.6971 14.6738 41.4404C14.5889 41.184 14.5287 40.9009 14.4931 40.5915V40.3257C14.5287 40.0137 14.5889 39.7306 14.6738 39.4768C14.7586 39.22 14.8695 38.9994 15.0064 38.8141C15.1461 38.6263 15.3172 38.4823 15.5198 38.3819C15.7251 38.2811 15.9647 38.2311 16.2385 38.2311C16.5232 38.2311 16.7737 38.2841 16.99 38.3897C17.2091 38.4956 17.3911 38.6464 17.5363 38.8421C17.6814 39.0351 17.7895 39.2652 17.8607 39.5324C17.9346 39.7995 17.9716 40.0943 17.9716 40.417ZM16.9818 40.5002V40.417C16.9818 40.2239 16.9654 40.0426 16.9325 39.8736C16.8997 39.7017 16.8449 39.5509 16.7683 39.4212C16.6943 39.2915 16.593 39.1898 16.4644 39.1157C16.3384 39.039 16.181 39.0007 15.9921 39.0007C15.8169 39.0007 15.6663 39.0299 15.5403 39.0881C15.4144 39.1463 15.309 39.2256 15.2241 39.326C15.1392 39.4264 15.0721 39.5428 15.0229 39.675C14.9763 39.8073 14.9448 39.9503 14.9284 40.1037V40.8216C14.953 41.0198 15.0051 41.2025 15.0845 41.3692C15.1666 41.533 15.2816 41.6653 15.4295 41.7657C15.5773 41.8635 15.7676 41.9126 16.0003 41.9126C16.1837 41.9126 16.3384 41.8769 16.4644 41.8054C16.5903 41.7342 16.6902 41.6347 16.7642 41.508C16.8408 41.3783 16.8956 41.2275 16.9284 41.0556C16.964 40.8837 16.9818 40.6988 16.9818 40.5002ZM21.3146 41.742V39.6949C21.3146 39.5415 21.2858 39.4092 21.2283 39.2984C21.1708 39.1872 21.0832 39.1011 20.9655 39.0403C20.8505 38.9795 20.7054 38.949 20.5302 38.949C20.3686 38.949 20.229 38.9756 20.1113 39.0283C19.9935 39.0813 19.9018 39.1528 19.8361 39.2428C19.7704 39.3325 19.7375 39.4345 19.7375 39.5483H18.7519C18.7519 39.379 18.7943 39.2148 18.8792 39.0562C18.9641 38.8976 19.0873 38.7559 19.2488 38.6318C19.4103 38.5073 19.6034 38.4095 19.8279 38.338C20.0524 38.2668 20.3043 38.2311 20.5835 38.2311C20.9176 38.2311 21.2133 38.2854 21.4706 38.3936C21.7307 38.5021 21.9347 38.6663 22.0825 38.8856C22.2331 39.1024 22.3084 39.3751 22.3084 39.703V41.611C22.3084 41.8067 22.3221 41.9828 22.3495 42.1388C22.3796 42.2922 22.4221 42.4258 22.4768 42.5395V42.6029H21.4624C21.4159 42.4999 21.3789 42.3689 21.3515 42.2103C21.3269 42.0488 21.3146 41.8928 21.3146 41.742ZM21.4583 39.9925L21.4665 40.5837H20.756C20.5726 40.5837 20.4111 40.6009 20.2714 40.6351C20.1318 40.6669 20.0154 40.7144 19.9223 40.7781C19.8293 40.8414 19.7594 40.9181 19.7129 41.0081C19.6663 41.0978 19.6431 41.1999 19.6431 41.3136C19.6431 41.4274 19.6705 41.5317 19.7252 41.6269C19.78 41.7196 19.8594 41.7924 19.9634 41.845C20.0702 41.898 20.1989 41.9246 20.3495 41.9246C20.5521 41.9246 20.7287 41.885 20.8792 41.8054C21.0326 41.7235 21.153 41.6243 21.2406 41.508C21.3282 41.389 21.3748 41.2766 21.3803 41.1706L21.7006 41.5951C21.6677 41.7036 21.6116 41.82 21.5322 41.9444C21.4528 42.0686 21.3488 42.1875 21.2201 42.3013C21.0942 42.4124 20.9422 42.5038 20.7642 42.5753C20.589 42.6464 20.3864 42.6822 20.1564 42.6822C19.8662 42.6822 19.6075 42.6266 19.3802 42.5155C19.153 42.402 18.975 42.2499 18.8463 42.0595C18.7177 41.8665 18.6533 41.6481 18.6533 41.4046C18.6533 41.1775 18.6971 40.9763 18.7847 40.8018C18.8751 40.6247 19.0065 40.4765 19.179 40.3575C19.3542 40.2386 19.5678 40.1485 19.8197 40.0878C20.0716 40.0241 20.359 39.9925 20.6821 39.9925H21.4583ZM25.8362 41.4404C25.8362 41.3452 25.8116 41.2594 25.7623 41.1827C25.713 41.1034 25.6185 41.0319 25.4789 40.9685C25.342 40.9048 25.1394 40.8466 24.8711 40.794C24.6357 40.7436 24.4193 40.6841 24.2222 40.6152C24.0278 40.5441 23.8608 40.4579 23.7212 40.3575C23.5815 40.2571 23.4734 40.1378 23.3967 40.0003C23.3201 39.8629 23.2817 39.7043 23.2817 39.5242C23.2817 39.3497 23.3214 39.1846 23.4008 39.0283C23.4802 38.8723 23.5939 38.7348 23.7417 38.6159C23.8895 38.4969 24.0689 38.403 24.2797 38.3341C24.4933 38.2655 24.7315 38.2311 24.9943 38.2311C25.3667 38.2311 25.6856 38.2919 25.9512 38.4134C26.2195 38.5327 26.4248 38.6952 26.5672 38.9015C26.7096 39.105 26.7808 39.3351 26.7808 39.5918H25.791C25.791 39.4781 25.7609 39.3721 25.7007 39.2743C25.6432 39.1739 25.5556 39.0933 25.4378 39.0325C25.3201 38.9688 25.1723 38.9373 24.9943 38.9373C24.8246 38.9373 24.6836 38.9636 24.5713 39.0166C24.4618 39.0666 24.3796 39.1329 24.3249 39.2148C24.2729 39.2967 24.2469 39.3868 24.2469 39.4846C24.2469 39.5561 24.2605 39.6208 24.2879 39.6789C24.318 39.7345 24.3673 39.7862 24.4358 39.8336C24.5042 39.8788 24.5973 39.921 24.7151 39.9607C24.8355 40.0003 24.9861 40.0387 25.1668 40.0757C25.5063 40.1446 25.7979 40.233 26.0415 40.3416C26.2879 40.4475 26.4769 40.585 26.6083 40.7543C26.7397 40.9207 26.8054 41.1323 26.8054 41.389C26.8054 41.5795 26.763 41.754 26.6781 41.9126C26.596 42.0686 26.4755 42.2048 26.3167 42.3211C26.1579 42.4349 25.9676 42.5236 25.7458 42.587C25.5268 42.6503 25.2804 42.6822 25.0066 42.6822C24.6042 42.6822 24.2633 42.6136 23.984 42.4758C23.7047 42.3357 23.4926 42.1573 23.3474 41.9402C23.2051 41.7209 23.1339 41.4934 23.1339 41.2581H24.0908C24.1017 41.4352 24.1524 41.5766 24.2427 41.6825C24.3358 41.7855 24.4508 41.8609 24.5877 41.9087C24.7274 41.9535 24.8711 41.976 25.019 41.976C25.1969 41.976 25.3461 41.9535 25.4666 41.9087C25.5871 41.8609 25.6788 41.7976 25.7417 41.7183C25.8047 41.6364 25.8362 41.5437 25.8362 41.4404ZM29.6309 42.6822C29.3024 42.6822 29.0053 42.6305 28.7397 42.5275C28.4769 42.4219 28.2524 42.275 28.0662 42.0871C27.8828 41.8993 27.7418 41.6786 27.6432 41.4248C27.5447 41.1706 27.4954 40.897 27.4954 40.6035V40.4446C27.4954 40.1089 27.546 39.8047 27.6473 39.5324C27.7486 39.26 27.8896 39.027 28.0703 38.8339C28.251 38.6383 28.4646 38.4888 28.711 38.3858C28.9574 38.2828 29.2244 38.2311 29.5119 38.2311C29.8294 38.2311 30.1073 38.2828 30.3455 38.3858C30.5837 38.4888 30.7808 38.6344 30.9369 38.8222C31.0957 39.0072 31.2134 39.2282 31.2901 39.4846C31.3695 39.7413 31.4092 40.0241 31.4092 40.3338V40.7423H27.9759V40.0559H30.4318V39.9805C30.4263 39.8086 30.3907 39.6474 30.325 39.4966C30.262 39.3458 30.1648 39.2243 30.0334 39.1316C29.902 39.039 29.7268 38.9929 29.5077 38.9929C29.3435 38.9929 29.197 39.027 29.0683 39.0959C28.9424 39.1619 28.8369 39.2584 28.7521 39.3855C28.6672 39.5125 28.6015 39.6659 28.5549 39.8456C28.5111 40.0228 28.4892 40.2226 28.4892 40.4446V40.6035C28.4892 40.7911 28.5152 40.9659 28.5673 41.1271C28.622 41.2857 28.7014 41.4248 28.8055 41.5437C28.9095 41.6627 29.0355 41.7566 29.1833 41.8252C29.3312 41.8915 29.4995 41.9246 29.6884 41.9246C29.9266 41.9246 30.1388 41.8782 30.325 41.7855C30.5112 41.6932 30.6727 41.5623 30.8096 41.3929L31.3312 41.8808C31.2354 42.0156 31.1108 42.1453 30.9574 42.2698C30.8041 42.3913 30.6166 42.4904 30.3948 42.5671C30.1758 42.6438 29.9212 42.6822 29.6309 42.6822Z" fill="url(#paint0_linear_1250_9675)"/>
<path d="M2.36084 28.2195L2.45971 28.1219L2.81797 27.9805L15.9922 15.1895L16.1591 14.7465L12.8732 8.64258L2.36084 28.2195Z" fill="#F6820C"/>
<path d="M2.36084 28.219L2.57896 27.9231L12.8693 8.92598L12.8911 8.72495L8.3554 0.433849C8.27237 0.282233 8.14243 0.159865 7.98402 0.084055C7.82557 0.00824564 7.64666 -0.0171663 7.4726 0.0114143C7.29851 0.0399947 7.13807 0.121121 7.01396 0.243315C6.88987 0.365509 6.80839 0.522586 6.78107 0.692322L2.36084 28.219Z" fill="#FFC24A"/>
<path d="M2.5415 28.0435L2.70575 27.7312L12.8902 8.91958L8.36577 0.590805C8.29115 0.445962 8.17036 0.328556 8.02146 0.25618C7.87257 0.183803 7.70361 0.160352 7.53987 0.189339C7.37613 0.218326 7.22646 0.298191 7.11324 0.416968C7.00005 0.535748 6.92941 0.687044 6.91194 0.848191L2.5415 28.0435Z" fill="#FFA712"/>
<path d="M16.2308 14.992L19.6082 11.6321L16.2295 5.38392C16.1552 5.24947 16.0446 5.13706 15.9096 5.05869C15.7746 4.98035 15.6202 4.93896 15.4628 4.93896C15.3055 4.93896 15.1511 4.98035 15.016 5.05869C14.881 5.13706 14.7705 5.24947 14.6961 5.38392L12.8906 8.72144V9.00639L16.2308 14.992Z" fill="#F4BD62"/>
<path d="M16.2303 14.816L19.6082 11.5875L16.2303 5.574C16.175 5.44384 16.0805 5.33139 15.9583 5.2502C15.8361 5.16901 15.6914 5.12253 15.5415 5.11642C15.3917 5.11028 15.2431 5.14477 15.1138 5.21568C14.9844 5.28659 14.8798 5.39093 14.8126 5.51608L12.9461 8.87893L12.8906 9.05023L16.2303 14.816Z" fill="#FFA50E"/>
<path d="M16.7006 34.6197L28.6865 28.1844L25.2615 7.89232C25.237 7.74927 25.172 7.61548 25.0737 7.50568C24.9753 7.39588 24.8475 7.31431 24.7041 7.26988C24.5608 7.22546 24.4075 7.21992 24.2611 7.25388C24.1147 7.28784 23.9809 7.36 23.8743 7.4624L2.36084 28.213L14.2758 34.6184C14.6462 34.8175 15.0633 34.9218 15.4875 34.9218C15.9117 34.9218 16.3288 34.8175 16.6993 34.6184" fill="#FDE068"/>
<path d="M28.6856 28.0566L25.2816 7.89556C25.2756 7.7586 25.2275 7.62642 25.1433 7.51575C25.0592 7.40512 24.9428 7.32094 24.8089 7.27393C24.675 7.22694 24.5296 7.21918 24.3912 7.25167C24.2527 7.28417 24.1274 7.35543 24.031 7.45647L2.5415 28.1001L14.3506 34.444C14.7189 34.6417 15.1336 34.7455 15.5553 34.7455C15.9771 34.7455 16.3918 34.6417 16.7601 34.444L28.6856 28.0566Z" fill="#FCCA3F"/>
<path d="M16.7006 34.4277C16.3301 34.6259 15.913 34.7297 15.4888 34.7297C15.0646 34.7297 14.6475 34.6259 14.277 34.4277L2.45892 28.1481L2.36084 28.2445L14.2758 34.6194C14.6462 34.8176 15.0633 34.9213 15.4875 34.9213C15.9117 34.9213 16.3288 34.8176 16.6993 34.6194L28.6865 28.2161L28.6568 28.043L16.7006 34.4277Z" fill="#EEAB37"/>
<defs>
<linearGradient id="paint0_linear_1250_9675" x1="-0.607814" y1="39.8405" x2="31.6898" y2="39.8405" gradientUnits="userSpaceOnUse">
<stop stop-color="#FFA712"/>
<stop offset="1" stop-color="#FCCA3F"/>
</linearGradient>
</defs>
</svg>
