<svg width="573" height="214" viewBox="0 0 573 214" fill="none" xmlns="http://www.w3.org/2000/svg">
<path opacity="0.962" fill-rule="evenodd" clip-rule="evenodd" d="M64.8162 60.4209C79.1566 60.4209 93.4972 60.4209 107.838 60.4209C107.838 62.7688 107.838 65.1167 107.838 67.4646C93.4818 67.0805 79.1412 66.4936 64.8162 65.7037C64.8162 63.9428 64.8162 62.1818 64.8162 60.4209Z" fill="#0065D2"/>
<path opacity="0.991" fill-rule="evenodd" clip-rule="evenodd" d="M115.499 61.0093C129.83 61.7915 144.171 62.3785 158.52 62.7702C158.52 65.7051 158.52 68.64 158.52 71.5749C144.195 70.7395 129.855 69.9568 115.499 69.227C115.499 66.4877 115.499 63.7485 115.499 61.0093Z" fill="#003C9F"/>
<path opacity="0.99" fill-rule="evenodd" clip-rule="evenodd" d="M64.8162 65.7046C79.1412 66.4944 93.4818 67.0814 107.838 67.4655C107.838 68.6395 107.838 69.8134 107.838 70.9874C93.4985 70.551 79.158 70.1596 64.8162 69.8134C64.8162 68.4438 64.8162 67.0742 64.8162 65.7046Z" fill="#0062CF"/>
<path opacity="0.989" fill-rule="evenodd" clip-rule="evenodd" d="M115.499 69.2266C129.855 69.9564 144.195 70.7391 158.52 71.5745C158.52 71.9658 158.52 72.3571 158.52 72.7484C144.184 72.0766 129.843 71.4896 115.499 70.9875C115.499 70.4005 115.499 69.8135 115.499 69.2266Z" fill="#003EA2"/>
<path opacity="0.97" fill-rule="evenodd" clip-rule="evenodd" d="M64.8162 69.8135C79.158 70.1597 93.4985 70.551 107.838 70.9874C107.838 72.357 107.838 73.7267 107.838 75.0963C98.4083 75.0963 88.9789 75.0963 79.5496 75.0963C79.5496 76.2702 79.5496 77.4442 79.5496 78.6181C74.6216 78.7151 69.7105 78.5194 64.8162 78.0312C64.8162 75.2919 64.8162 72.5527 64.8162 69.8135Z" fill="#0060CC"/>
<path opacity="0.973" fill-rule="evenodd" clip-rule="evenodd" d="M115.499 70.9873C129.843 71.4894 144.184 72.0764 158.52 72.7482C158.52 75.8788 158.52 79.0094 158.52 82.1399C153.608 81.9742 148.697 81.7785 143.787 81.5529C143.787 79.4006 143.787 77.2484 143.787 75.0961C139.269 75.0961 134.751 75.0961 130.232 75.0961C130.232 77.0527 130.232 79.0094 130.232 80.9659C125.328 80.6403 120.416 80.4446 115.499 80.3789C115.499 77.2484 115.499 74.1178 115.499 70.9873Z" fill="#0041A5"/>
<path opacity="0.965" fill-rule="evenodd" clip-rule="evenodd" d="M64.8162 78.0308C69.7105 78.519 74.6216 78.7147 79.5496 78.6177C79.5496 79.5961 79.5496 80.5743 79.5496 81.5526C74.6627 81.0202 69.7516 80.8245 64.8162 80.9656C64.8162 79.9873 64.8162 79.0091 64.8162 78.0308Z" fill="#005CC8"/>
<path opacity="0.917" fill-rule="evenodd" clip-rule="evenodd" d="M471.458 79.2043C478.814 78.7099 480.974 81.7426 477.94 88.3025C471.124 90.8938 468.079 88.6436 468.806 81.5522C469.629 80.6305 470.513 79.8479 471.458 79.2043Z" fill="#061240"/>
<path opacity="0.975" fill-rule="evenodd" clip-rule="evenodd" d="M115.499 80.3784C120.416 80.4441 125.328 80.6397 130.232 80.9654C130.232 81.3567 130.232 81.748 130.232 82.1394C125.304 82.2363 120.393 82.0406 115.499 81.5524C115.499 81.161 115.499 80.7698 115.499 80.3784Z" fill="#0043A9"/>
<path opacity="0.971" fill-rule="evenodd" clip-rule="evenodd" d="M64.8162 80.9657C69.7516 80.8246 74.6627 81.0203 79.5496 81.5527C79.5496 84.6832 79.5496 87.8138 79.5496 90.9444C74.6216 91.0413 69.7105 90.8456 64.8162 90.3574C64.8162 87.2268 64.8162 84.0963 64.8162 80.9657Z" fill="#0059C4"/>
<path opacity="0.969" fill-rule="evenodd" clip-rule="evenodd" d="M115.499 81.5542C120.393 82.0424 125.304 82.2381 130.232 82.1412C130.232 85.0761 130.232 88.011 130.232 90.9458C125.303 90.5721 120.392 90.1807 115.499 89.7719C115.499 87.0326 115.499 84.2934 115.499 81.5542Z" fill="#0046AB"/>
<path opacity="0.972" fill-rule="evenodd" clip-rule="evenodd" d="M143.787 81.5542C148.697 81.7798 153.608 81.9755 158.52 82.1412C158.52 82.7282 158.52 83.3151 158.52 83.9021C153.609 83.5108 148.698 83.1195 143.787 82.7282C143.787 82.3368 143.787 81.9455 143.787 81.5542Z" fill="#0043A9"/>
<path opacity="0.938" fill-rule="evenodd" clip-rule="evenodd" d="M222.758 82.1401C230.371 81.1454 236.853 83.2977 242.206 88.5968C240.854 90.8239 239.184 92.7805 237.197 94.4666C229.599 88.5707 222.527 89.1577 215.981 96.2275C212.341 103.101 211.949 110.145 214.802 117.359C219.52 125.299 226.003 127.256 234.25 123.229C234.544 119.908 234.643 116.582 234.545 113.25C231.402 113.25 228.259 113.25 225.116 113.25C225.116 110.706 225.116 108.163 225.116 105.619C231.009 105.619 236.902 105.619 242.796 105.619C242.894 113.057 242.796 120.492 242.501 127.924C237.976 131.841 232.671 133.798 226.589 133.794C211.361 132.023 203.601 123.414 203.31 107.967C203.265 94.3209 209.747 85.7118 222.758 82.1401Z" fill="#061240"/>
<path opacity="0.971" fill-rule="evenodd" clip-rule="evenodd" d="M143.787 82.7266C148.698 83.1179 153.609 83.5092 158.52 83.9005C158.52 86.6398 158.52 89.379 158.52 92.1182C153.623 91.6556 148.713 91.46 143.787 91.5312C143.787 88.5963 143.787 85.6615 143.787 82.7266Z" fill="#0046AB"/>
<path opacity="0.972" fill-rule="evenodd" clip-rule="evenodd" d="M115.499 89.7705C120.392 90.1793 125.303 90.5707 130.232 90.9445C130.232 92.1184 130.232 93.2924 130.232 94.4663C125.304 94.5633 120.393 94.3676 115.499 93.8794C115.499 92.5098 115.499 91.1401 115.499 89.7705Z" fill="#0049AF"/>
<path opacity="0.969" fill-rule="evenodd" clip-rule="evenodd" d="M64.8162 90.3584C69.7105 90.8466 74.6216 91.0423 79.5496 90.9454C79.5496 94.2716 79.5496 97.5978 79.5496 100.924C74.6426 100.645 69.7314 100.449 64.8162 100.337C64.8162 99.9457 64.8162 99.5544 64.8162 99.1631C64.8162 96.2282 64.8162 93.2933 64.8162 90.3584Z" fill="#0055BE"/>
<path opacity="0.97" fill-rule="evenodd" clip-rule="evenodd" d="M143.787 91.5314C148.713 91.4601 153.623 91.6557 158.52 92.1183C158.52 93.4879 158.52 94.8576 158.52 96.2272C153.628 95.8183 148.717 95.427 143.787 95.0532C143.787 93.8793 143.787 92.7053 143.787 91.5314Z" fill="#0049AF"/>
<path opacity="0.867" fill-rule="evenodd" clip-rule="evenodd" d="M115.499 93.8794C120.393 94.3676 125.304 94.5633 130.232 94.4664C130.232 95.6403 130.232 96.8143 130.232 97.9882C125.321 97.9882 120.41 97.9882 115.499 97.9882C115.499 96.6186 115.499 95.249 115.499 93.8794Z" fill="#004BB1"/>
<path opacity="0.928" fill-rule="evenodd" clip-rule="evenodd" d="M263.422 94.4667C273.795 93.0217 280.179 97.3262 282.576 107.38C282.87 110.505 282.968 113.635 282.87 116.772C275.013 116.772 267.154 116.772 259.297 116.772C260.141 122.873 263.677 126.003 269.905 126.164C272.747 126.035 275.399 125.253 277.861 123.816C278.316 123.901 278.709 124.096 279.04 124.403C279.774 126.063 280.658 127.628 281.692 129.098C273.654 134.898 265.404 135.192 256.939 129.979C250.657 123.857 248.594 116.519 250.751 107.967C252.471 101.071 256.695 96.571 263.422 94.4667ZM266.369 101.51C271.955 101.791 274.705 104.726 274.62 110.315C269.512 110.315 264.405 110.315 259.297 110.315C259.844 105.88 262.202 102.946 266.369 101.51Z" fill="#061240"/>
<path opacity="0.931" fill-rule="evenodd" clip-rule="evenodd" d="M307.622 94.4663C316.702 93.2392 321.711 97.1524 322.65 106.206C322.945 115.008 323.043 123.813 322.945 132.62C319.802 132.62 316.659 132.62 313.516 132.62C313.614 124.009 313.516 115.4 313.221 106.793C312.769 103.97 311.1 102.405 308.212 102.097C304.972 102.683 302.32 104.248 300.256 106.793C299.961 115.4 299.862 124.009 299.961 132.62C296.818 132.62 293.674 132.62 290.531 132.62C290.531 120.098 290.531 107.575 290.531 95.0533C293.115 94.8621 295.669 95.0578 298.193 95.6402C298.613 96.9761 298.908 98.3458 299.077 99.7491C301.656 97.4434 304.505 95.6824 307.622 94.4663Z" fill="#061240"/>
<path opacity="0.932" fill-rule="evenodd" clip-rule="evenodd" d="M344.162 94.4663C354.207 92.9554 360.395 97.0642 362.726 106.793C363.02 110.113 363.118 113.44 363.02 116.771C355.153 116.576 347.295 116.772 339.447 117.358C340.868 122.887 344.404 125.821 350.055 126.163C353.129 125.756 356.076 125.071 358.895 124.109C360.1 125.627 361.082 127.29 361.842 129.098C354.63 134.27 346.969 134.955 338.858 131.152C334.826 128.313 332.174 124.498 330.901 119.706C328.872 110.656 331.328 103.123 338.268 97.1077C340.222 96.0336 342.187 95.1532 344.162 94.4663ZM346.519 101.51C352.101 101.395 355.048 104.134 355.359 109.728C350.07 110.314 344.766 110.509 339.447 110.315C340.086 105.965 342.443 103.03 346.519 101.51Z" fill="#061240"/>
<path opacity="0.919" fill-rule="evenodd" clip-rule="evenodd" d="M386.593 94.4659C388.763 94.3689 390.924 94.4667 393.076 94.7594C393.623 94.9871 394.016 95.3784 394.255 95.9334C393.688 98.1654 393.198 100.416 392.781 102.684C386.806 101.652 382.68 104 380.405 109.727C380.111 117.356 380.012 124.986 380.111 132.619C376.968 132.619 373.824 132.619 370.681 132.619C370.681 120.097 370.681 107.575 370.681 95.0529C373.432 95.0529 376.182 95.0529 378.932 95.0529C378.835 97.0192 378.933 98.9758 379.227 100.923C381.07 98.0113 383.525 95.859 386.593 94.4659Z" fill="#061240"/>
<path opacity="0.928" fill-rule="evenodd" clip-rule="evenodd" d="M407.22 94.4663C410.997 94.2801 414.73 94.5736 418.417 95.3468C422.725 97.6871 425.18 101.307 425.784 106.206C426.079 115.008 426.177 123.813 426.079 132.62C423.525 132.62 420.971 132.62 418.417 132.62C418.307 131.408 418.012 130.234 417.533 129.098C412.981 133.057 407.775 134.329 401.916 132.913C395.351 129.205 393.485 123.825 396.317 116.771C399.261 113.101 403.092 110.851 407.809 110.021C410.741 109.404 413.687 108.915 416.649 108.554C416.027 102.855 412.884 100.801 407.22 102.391C404.633 102.994 402.276 104.07 400.148 105.619C398.412 103.726 397.331 101.574 396.906 99.1622C400.108 96.9635 403.545 95.3982 407.22 94.4663ZM416.06 114.424C418.735 121.169 416.475 125.083 409.282 126.163C404.989 125.995 403.418 123.842 404.568 119.706C407.892 116.749 411.722 114.988 416.06 114.424Z" fill="#061240"/>
<path opacity="0.929" fill-rule="evenodd" clip-rule="evenodd" d="M499.157 94.4663C502.934 94.2801 506.667 94.5736 510.354 95.3468C514.926 97.7593 517.382 101.575 517.721 106.793C518.016 115.4 518.114 124.009 518.016 132.62C515.432 132.811 512.878 132.615 510.354 132.033C509.969 131.085 509.674 130.106 509.47 129.098C504.005 133.789 498.014 134.669 491.496 131.739C485.77 126.249 485.378 120.38 490.317 114.13C495.934 110.798 502.024 108.939 508.586 108.554C507.964 102.855 504.821 100.801 499.157 102.391C496.57 102.994 494.213 104.07 492.085 105.619C490.359 103.746 489.278 101.594 488.844 99.1622C492.045 96.9635 495.482 95.3982 499.157 94.4663ZM507.997 114.424C508.673 117.054 508.772 119.793 508.292 122.641C504.845 126.309 501.014 126.896 496.8 124.402C495.918 122.236 496.114 120.182 497.389 118.239C500.72 116.241 504.256 114.969 507.997 114.424Z" fill="#061240"/>
<path opacity="0.985" fill-rule="evenodd" clip-rule="evenodd" d="M143.787 95.0532C148.717 95.427 153.628 95.8183 158.52 96.2272C158.52 97.2055 158.52 98.1838 158.52 99.1621C158.52 99.9447 158.52 100.727 158.52 101.51C159.14 101.422 159.73 101.52 160.288 101.803C162.422 103.838 164.779 105.501 167.36 106.793C167.36 107.771 167.36 108.749 167.36 109.728C164.343 107.802 161.396 105.748 158.52 103.564C153.589 103.412 148.678 103.119 143.787 102.684C143.787 100.14 143.787 97.5968 143.787 95.0532Z" fill="#004CB2"/>
<path opacity="0.921" fill-rule="evenodd" clip-rule="evenodd" d="M434.919 95.0527C443.955 95.0527 452.992 95.0527 462.028 95.0527C462.126 97.0191 462.027 98.9756 461.734 100.923C456.135 108.847 450.536 116.771 444.938 124.695C450.828 124.989 456.721 125.086 462.618 124.989C462.618 127.532 462.618 130.076 462.618 132.619C452.795 132.619 442.973 132.619 433.151 132.619C433.054 130.653 433.152 128.697 433.446 126.75C438.963 119.004 444.365 111.177 449.652 103.27C444.757 102.685 439.846 102.489 434.919 102.683C434.919 100.14 434.919 97.5963 434.919 95.0527Z" fill="#061240"/>
<path opacity="0.923" fill-rule="evenodd" clip-rule="evenodd" d="M469.1 95.0527C472.243 95.0527 475.387 95.0527 478.53 95.0527C478.53 107.575 478.53 120.097 478.53 132.619C475.387 132.619 472.243 132.619 469.1 132.619C469.1 120.097 469.1 107.575 469.1 95.0527Z" fill="#061240"/>
<path opacity="0.992" fill-rule="evenodd" clip-rule="evenodd" d="M55.387 99.1626C55.9763 99.1626 56.5656 99.1626 57.155 99.1626C59.5433 101.148 62.0971 102.909 64.8163 104.445C64.9107 105.443 64.8125 106.421 64.5217 107.38C61.5123 104.956 58.4674 102.608 55.387 100.337C55.387 99.9452 55.387 99.5539 55.387 99.1626Z" fill="#0055BE"/>
<path fill-rule="evenodd" clip-rule="evenodd" d="M57.1552 99.1626C58.3338 99.1626 59.5125 99.1626 60.6912 99.1626C61.8991 100.364 63.2742 101.343 64.8165 102.097C64.8165 102.293 64.8165 102.489 64.8165 102.684C64.8165 103.271 64.8165 103.858 64.8165 104.445C62.0973 102.909 59.5435 101.148 57.1552 99.1626Z" fill="#0059C4"/>
<path fill-rule="evenodd" clip-rule="evenodd" d="M60.6909 99.1626C62.066 99.1626 63.4412 99.1626 64.8163 99.1626C64.8163 99.5539 64.8163 99.9452 64.8163 100.337C64.8163 100.924 64.8163 101.511 64.8163 102.097C63.274 101.343 61.8988 100.364 60.6909 99.1626Z" fill="#005ECA"/>
<path opacity="0.99" fill-rule="evenodd" clip-rule="evenodd" d="M158.521 99.1626C158.914 99.1626 159.306 99.1626 159.699 99.1626C162.124 101.255 164.678 103.211 167.361 105.032C167.361 105.619 167.361 106.206 167.361 106.793C164.779 105.502 162.422 103.839 160.289 101.804C159.73 101.521 159.14 101.423 158.521 101.511C158.521 100.728 158.521 99.9452 158.521 99.1626Z" fill="#0046AC"/>
<path opacity="0.969" fill-rule="evenodd" clip-rule="evenodd" d="M159.699 99.1626C160.878 99.1626 162.057 99.1626 163.235 99.1626C164.432 100.35 165.808 101.328 167.361 102.097C167.361 103.076 167.361 104.054 167.361 105.032C164.678 103.211 162.124 101.255 159.699 99.1626Z" fill="#0042A6"/>
<path opacity="0.923" fill-rule="evenodd" clip-rule="evenodd" d="M163.235 99.1626C164.61 99.1626 165.986 99.1626 167.361 99.1626C167.361 100.141 167.361 101.119 167.361 102.097C165.808 101.328 164.432 100.35 163.235 99.1626Z" fill="#003D9F"/>
<path opacity="0.972" fill-rule="evenodd" clip-rule="evenodd" d="M64.8162 100.336C69.7314 100.449 74.6426 100.644 79.5496 100.923C79.5496 101.706 79.5496 102.489 79.5496 103.271C74.624 103.343 69.7128 103.147 64.8162 102.684C64.8162 102.489 64.8162 102.293 64.8162 102.097C64.8162 101.51 64.8162 100.923 64.8162 100.336Z" fill="#0052BA"/>
<path opacity="0.972" fill-rule="evenodd" clip-rule="evenodd" d="M55.387 100.336C58.4674 102.608 61.5123 104.956 64.5217 107.38C64.8125 106.421 64.9107 105.443 64.8163 104.445C64.8163 103.858 64.8163 103.271 64.8163 102.684C69.713 103.147 74.6242 103.343 79.5497 103.271C79.5497 105.619 79.5497 107.967 79.5497 110.315C74.6308 110.187 69.7196 109.893 64.8163 109.435C61.5519 107.323 58.4088 105.073 55.387 102.684C55.387 101.902 55.387 101.119 55.387 100.336Z" fill="#004FB7"/>
<path opacity="0.971" fill-rule="evenodd" clip-rule="evenodd" d="M55.387 102.684C58.4088 105.072 61.5519 107.323 64.8163 109.434C69.7196 109.893 74.6308 110.186 79.5497 110.315C79.5497 112.858 79.5497 115.402 79.5497 117.945C74.6427 117.666 69.7316 117.471 64.8163 117.359C64.8163 116.185 64.8163 115.011 64.8163 113.837C64.9454 113.147 64.749 112.56 64.227 112.076C61.3676 109.775 58.4209 107.622 55.387 105.619C55.387 104.641 55.387 103.662 55.387 102.684Z" fill="#004CB2"/>
<path opacity="0.991" fill-rule="evenodd" clip-rule="evenodd" d="M143.787 102.684C148.678 103.119 153.589 103.413 158.52 103.565C161.396 105.748 164.343 107.802 167.36 109.728C167.36 110.51 167.36 111.293 167.36 112.076C164.457 110.362 161.706 108.405 159.11 106.206C158.125 107.386 157.732 108.755 157.931 110.315C153.208 110.275 148.493 110.079 143.787 109.728C143.787 107.38 143.787 105.032 143.787 102.684Z" fill="#004FB7"/>
<path opacity="0.955" fill-rule="evenodd" clip-rule="evenodd" d="M55.387 105.619C58.4209 107.622 61.3676 109.774 64.227 112.075C64.749 112.56 64.9454 113.147 64.8163 113.836C64.4234 113.836 64.0306 113.836 63.6377 113.836C61.0653 111.671 58.3151 109.714 55.387 107.967C55.387 107.184 55.387 106.401 55.387 105.619Z" fill="#0046AB"/>
<path opacity="0.873" fill-rule="evenodd" clip-rule="evenodd" d="M55.387 107.967C58.3151 109.715 61.0653 111.672 63.6377 113.837C62.2626 113.837 60.8874 113.837 59.5123 113.837C58.2707 112.53 56.8956 111.356 55.387 110.315C55.387 109.533 55.387 108.75 55.387 107.967Z" fill="#0042A6"/>
<path opacity="0.99" fill-rule="evenodd" clip-rule="evenodd" d="M143.787 109.728C148.493 110.079 153.208 110.275 157.931 110.315C157.931 111.097 157.931 111.88 157.931 112.662C153.184 112.821 148.469 112.625 143.787 112.075C143.787 111.293 143.787 110.51 143.787 109.728Z" fill="#0052BA"/>
<path opacity="0.736" fill-rule="evenodd" clip-rule="evenodd" d="M55.387 110.315C56.8956 111.356 58.2707 112.53 59.5123 113.837C58.1372 113.837 56.7621 113.837 55.387 113.837C55.387 112.663 55.387 111.489 55.387 110.315Z" fill="#003C9F"/>
<path opacity="0.974" fill-rule="evenodd" clip-rule="evenodd" d="M167.36 112.076C167.36 112.663 167.36 113.25 167.36 113.837C166.771 113.837 166.182 113.837 165.592 113.837C163.534 111.875 161.275 110.114 158.815 108.554C158.526 109.313 158.428 110.096 158.52 110.902C158.52 111.88 158.52 112.858 158.52 113.837C158.52 116.772 158.52 119.707 158.52 122.641C153.6 122.616 148.69 122.421 143.787 122.054C143.787 118.728 143.787 115.402 143.787 112.076C148.469 112.626 153.184 112.821 157.931 112.663C157.931 111.88 157.931 111.098 157.931 110.315C157.732 108.755 158.125 107.386 159.11 106.206C161.706 108.405 164.457 110.362 167.36 112.076Z" fill="#0055BE"/>
<path opacity="0.792" fill-rule="evenodd" clip-rule="evenodd" d="M158.521 110.902C160.073 111.672 161.449 112.65 162.646 113.837C161.271 113.837 159.895 113.837 158.521 113.837C158.521 112.859 158.521 111.881 158.521 110.902Z" fill="#005ECA"/>
<path opacity="0.969" fill-rule="evenodd" clip-rule="evenodd" d="M165.593 113.837C164.61 113.837 163.628 113.837 162.646 113.837C161.449 112.649 160.074 111.671 158.521 110.902C158.428 110.095 158.527 109.313 158.815 108.554C161.276 110.114 163.535 111.875 165.593 113.837Z" fill="#0059C4"/>
<path opacity="0.868" fill-rule="evenodd" clip-rule="evenodd" d="M107.838 119.12C102.937 118.718 98.0258 118.522 93.1042 118.533C93.1042 117.164 93.1042 115.794 93.1042 114.424C98.0154 114.424 102.927 114.424 107.838 114.424C107.838 115.99 107.838 117.555 107.838 119.12Z" fill="#004BB2"/>
<path opacity="0.969" fill-rule="evenodd" clip-rule="evenodd" d="M64.8162 117.358C69.7314 117.471 74.6426 117.666 79.5496 117.945C79.5496 119.315 79.5496 120.685 79.5496 122.054C74.6529 121.592 69.7417 121.396 64.8162 121.467C64.8162 120.098 64.8162 118.728 64.8162 117.358Z" fill="#0049AF"/>
<path opacity="0.969" fill-rule="evenodd" clip-rule="evenodd" d="M93.1042 118.533C98.0258 118.522 102.937 118.717 107.838 119.12C107.838 120.489 107.838 121.859 107.838 123.228C102.959 122.677 98.0475 122.481 93.1042 122.641C93.1042 121.272 93.1042 119.902 93.1042 118.533Z" fill="#0049AF"/>
<path opacity="0.97" fill-rule="evenodd" clip-rule="evenodd" d="M64.8162 121.467C69.7417 121.396 74.6529 121.592 79.5496 122.054C79.5496 124.794 79.5496 127.533 79.5496 130.272C74.6426 129.993 69.7314 129.797 64.8162 129.685C64.8162 126.946 64.8162 124.207 64.8162 121.467Z" fill="#0046AB"/>
<path opacity="0.969" fill-rule="evenodd" clip-rule="evenodd" d="M143.787 122.054C148.69 122.42 153.6 122.616 158.52 122.641C158.52 125.968 158.52 129.293 158.52 132.62C153.619 132.218 148.708 132.022 143.787 132.033C143.787 128.706 143.787 125.381 143.787 122.054Z" fill="#0059C4"/>
<path opacity="0.97" fill-rule="evenodd" clip-rule="evenodd" d="M93.1042 122.641C98.0475 122.481 102.959 122.676 107.838 123.228C107.838 125.967 107.838 128.706 107.838 131.446C102.939 131.011 98.0277 130.816 93.1042 130.859C93.1042 128.119 93.1042 125.38 93.1042 122.641Z" fill="#0046AB"/>
<path opacity="0.976" fill-rule="evenodd" clip-rule="evenodd" d="M64.8162 129.685C69.7314 129.797 74.6426 129.992 79.5496 130.272C79.5496 130.663 79.5496 131.054 79.5496 131.446C74.6063 131.606 69.6952 131.41 64.8162 130.859C64.8162 130.467 64.8162 130.076 64.8162 129.685Z" fill="#0043A9"/>
<path opacity="0.967" fill-rule="evenodd" clip-rule="evenodd" d="M64.8162 130.859C69.6952 131.411 74.6063 131.607 79.5496 131.446C79.5496 133.403 79.5496 135.36 79.5496 137.316C84.0678 137.316 88.586 137.316 93.1043 137.316C93.1043 135.555 93.1043 133.794 93.1043 132.033C98.001 132.496 102.912 132.691 107.838 132.62C107.838 135.751 107.838 138.882 107.838 142.012C93.4503 141.709 79.1098 141.122 64.8162 140.251C64.8162 137.121 64.8162 133.99 64.8162 130.859Z" fill="#0041A5"/>
<path opacity="0.976" fill-rule="evenodd" clip-rule="evenodd" d="M93.1042 130.858C98.0277 130.815 102.939 131.011 107.838 131.445C107.838 131.837 107.838 132.228 107.838 132.619C102.912 132.69 98.0009 132.495 93.1042 132.032C93.1042 131.641 93.1042 131.25 93.1042 130.858Z" fill="#0043A9"/>
<path opacity="0.972" fill-rule="evenodd" clip-rule="evenodd" d="M143.787 132.033C148.708 132.022 153.619 132.218 158.52 132.62C158.52 133.402 158.52 134.185 158.52 134.968C153.603 134.902 148.691 134.706 143.787 134.381C143.787 133.598 143.787 132.815 143.787 132.033Z" fill="#005CC8"/>
<path opacity="0.955" fill-rule="evenodd" clip-rule="evenodd" d="M143.787 134.381C148.692 134.707 153.603 134.903 158.521 134.968C158.572 137.925 158.376 140.86 157.931 143.773C143.598 143.033 129.258 142.446 114.91 142.012C114.91 140.447 114.91 138.882 114.91 137.316C124.536 137.316 134.162 137.316 143.787 137.316C143.787 136.338 143.787 135.36 143.787 134.381Z" fill="#0060CC"/>
<path opacity="0.987" fill-rule="evenodd" clip-rule="evenodd" d="M64.8162 140.251C79.1098 141.123 93.4503 141.71 107.838 142.012C107.838 142.599 107.838 143.186 107.838 143.773C93.5051 143.051 79.1646 142.464 64.8162 142.012C64.8162 141.425 64.8162 140.838 64.8162 140.251Z" fill="#003EA2"/>
<path opacity="0.736" fill-rule="evenodd" clip-rule="evenodd" d="M390.719 141.424C392.65 141.258 394.516 141.453 396.317 142.011C396.759 142.677 396.661 143.264 396.023 143.772C393.978 142.045 392.21 142.241 390.719 144.359C392.013 145.544 393.585 146.229 395.433 146.414C397.497 147.879 397.693 149.542 396.023 151.403C393.861 152.185 391.701 152.185 389.54 151.403C389.018 150.919 388.821 150.332 388.951 149.642C390.322 149.739 391.598 150.13 392.781 150.816C393.729 150.436 394.613 149.947 395.433 149.348C393.684 147.929 391.72 146.853 389.54 146.12C388.645 144.206 389.038 142.641 390.719 141.424Z" fill="black"/>
<path opacity="0.739" fill-rule="evenodd" clip-rule="evenodd" d="M401.327 141.424C407.717 140.838 410.173 143.577 408.693 149.642C405.354 152.772 402.014 152.772 398.675 149.642C397.264 146.13 398.148 143.391 401.327 141.424ZM403.095 142.598C406.888 143.306 408.067 145.458 406.631 149.055C404.666 151.403 402.702 151.403 400.737 149.055C399.489 146.09 400.275 143.937 403.095 142.598Z" fill="black"/>
<path opacity="0.809" fill-rule="evenodd" clip-rule="evenodd" d="M411.345 141.424C411.935 141.424 412.524 141.424 413.113 141.424C413.113 144.359 413.113 147.294 413.113 150.229C415.078 150.229 417.043 150.229 419.007 150.229C419.007 150.816 419.007 151.403 419.007 151.99C416.453 151.99 413.899 151.99 411.345 151.99C411.345 148.468 411.345 144.946 411.345 141.424Z" fill="black"/>
<path opacity="0.707" fill-rule="evenodd" clip-rule="evenodd" d="M419.596 141.424C420.185 141.424 420.775 141.424 421.364 141.424C421.182 144.222 421.477 146.962 422.248 149.642C423.543 150.952 424.918 150.952 426.374 149.642C426.668 146.91 426.766 144.171 426.668 141.424C427.454 141.424 428.24 141.424 429.026 141.424C429.123 143.975 429.025 146.519 428.731 149.055C426.801 152.13 424.149 152.814 420.775 151.109C420.406 150.669 420.111 150.18 419.891 149.642C419.597 146.91 419.498 144.171 419.596 141.424Z" fill="black"/>
<path opacity="0.725" fill-rule="evenodd" clip-rule="evenodd" d="M429.615 141.425C432.782 141.232 435.925 141.428 439.044 142.012C437.927 142.579 436.748 142.774 435.508 142.599C435.508 145.729 435.508 148.86 435.508 151.99C434.723 151.99 433.936 151.99 433.151 151.99C433.151 148.86 433.151 145.729 433.151 142.599C431.629 142.877 430.45 142.486 429.615 141.425Z" fill="black"/>
<path opacity="0.633" fill-rule="evenodd" clip-rule="evenodd" d="M439.634 141.424C440.419 141.424 441.206 141.424 441.991 141.424C441.991 144.946 441.991 148.468 441.991 151.99C441.206 151.99 440.419 151.99 439.634 151.99C439.634 148.468 439.634 144.946 439.634 141.424Z" fill="black"/>
<path opacity="0.739" fill-rule="evenodd" clip-rule="evenodd" d="M446.706 141.424C453.097 140.838 455.552 143.577 454.073 149.642C450.733 152.772 447.394 152.772 444.054 149.642C442.643 146.13 443.527 143.391 446.706 141.424ZM448.474 142.598C452.267 143.306 453.446 145.458 452.01 149.055C450.046 151.403 448.081 151.403 446.117 149.055C444.868 146.09 445.654 143.937 448.474 142.598Z" fill="black"/>
<path opacity="0.737" fill-rule="evenodd" clip-rule="evenodd" d="M456.725 141.424C457.345 141.337 457.934 141.434 458.493 141.718C460.162 143.772 461.832 145.826 463.502 147.881C463.796 145.737 463.894 143.585 463.797 141.424C464.582 141.424 465.368 141.424 466.154 141.424C466.154 144.946 466.154 148.468 466.154 151.99C465.345 152.082 464.559 151.984 463.797 151.696C462.127 149.642 460.457 147.587 458.787 145.533C458.493 147.677 458.395 149.828 458.493 151.99C457.903 151.99 457.314 151.99 456.725 151.99C456.725 148.468 456.725 144.946 456.725 141.424Z" fill="black"/>
<path opacity="0.713" fill-rule="evenodd" clip-rule="evenodd" d="M470.869 142.01C471.581 141.258 472.367 141.258 473.226 142.01C474.145 144.428 475.226 146.776 476.467 149.054C477.491 146.682 478.571 144.334 479.709 142.01C480.429 141.356 481.215 141.258 482.066 141.717C480.517 144.901 479.043 148.13 477.646 151.402C476.847 151.919 475.963 152.115 474.994 151.989C473.954 148.483 472.579 145.157 470.869 142.01Z" fill="black"/>
<path opacity="0.72" fill-rule="evenodd" clip-rule="evenodd" d="M485.013 141.424C491.293 140.343 493.945 142.886 492.969 149.055C491.908 151.247 490.14 152.226 487.665 151.99C482.867 151.647 481.099 149.103 482.361 144.359C482.965 143.075 483.849 142.097 485.013 141.424ZM487.37 142.598C490.975 143.518 492.056 145.67 490.611 149.055C487.405 151.414 485.146 150.631 483.834 146.707C484.213 144.574 485.392 143.204 487.37 142.598Z" fill="black"/>
<path opacity="0.633" fill-rule="evenodd" clip-rule="evenodd" d="M495.031 141.424C495.817 141.424 496.603 141.424 497.388 141.424C497.388 144.946 497.388 148.468 497.388 151.99C496.603 151.99 495.817 151.99 495.031 151.99C495.031 148.468 495.031 144.946 495.031 141.424Z" fill="black"/>
<path opacity="0.721" fill-rule="evenodd" clip-rule="evenodd" d="M502.103 141.425C504.486 141.106 506.647 141.595 508.586 142.892C507.372 144.519 506.094 144.421 504.755 142.599C500.852 143.809 499.968 146.157 502.103 149.642C504.075 151.15 505.941 150.954 507.702 149.055C508.655 149.663 508.753 150.348 507.996 151.11C502.28 153.309 499.235 151.45 498.862 145.533C499.414 143.715 500.495 142.346 502.103 141.425Z" fill="black"/>
<path opacity="0.82" fill-rule="evenodd" clip-rule="evenodd" d="M510.354 141.425C512.937 141.234 515.491 141.43 518.015 142.012C516.29 142.589 514.522 142.785 512.711 142.599C512.711 143.773 512.711 144.947 512.711 146.121C518.998 146.512 518.998 146.903 512.711 147.295C512.711 148.469 512.711 149.643 512.711 150.817C514.714 150.629 516.679 150.824 518.604 151.404C515.882 151.986 513.132 152.182 510.354 151.991C510.354 148.469 510.354 144.947 510.354 141.425Z" fill="black"/>
<path opacity="0.987" fill-rule="evenodd" clip-rule="evenodd" d="M64.8162 142.012C79.1646 142.464 93.5051 143.051 107.838 143.773C107.838 146.513 107.838 149.251 107.838 151.991C105.48 151.991 103.123 151.991 100.766 151.991C88.8816 151.241 76.8984 150.654 64.8162 150.23C64.8162 147.49 64.8162 144.752 64.8162 142.012Z" fill="#003C9F"/>
<path opacity="0.99" fill-rule="evenodd" clip-rule="evenodd" d="M114.91 142.012C129.258 142.447 143.598 143.034 157.931 143.773C157.931 144.947 157.931 146.121 157.931 147.295C143.592 146.691 129.251 146.104 114.91 145.534C114.91 144.36 114.91 143.186 114.91 142.012Z" fill="#0062CF"/>
<path opacity="0.972" fill-rule="evenodd" clip-rule="evenodd" d="M114.91 145.534C129.251 146.104 143.592 146.691 157.931 147.295C157.931 148.861 157.931 150.425 157.931 151.991C143.591 151.991 129.25 151.991 114.91 151.991C114.91 149.838 114.91 147.687 114.91 145.534Z" fill="#0064D2"/>
<rect width="573" height="213.49" fill="white"/>
<path opacity="0.962" fill-rule="evenodd" clip-rule="evenodd" d="M64.8162 61.4287C79.1566 61.4287 93.4972 61.4287 107.838 61.4287C107.838 63.7766 107.838 66.1245 107.838 68.4724C93.4818 68.0883 79.1412 67.5014 64.8162 66.7115C64.8162 64.9506 64.8162 63.1896 64.8162 61.4287Z" fill="#0065D2"/>
<path opacity="0.991" fill-rule="evenodd" clip-rule="evenodd" d="M115.499 62.0166C129.83 62.7988 144.171 63.3858 158.52 63.7775C158.52 66.7124 158.52 69.6473 158.52 72.5822C144.195 71.7468 129.855 70.9641 115.499 70.2343C115.499 67.4951 115.499 64.7558 115.499 62.0166Z" fill="#003C9F"/>
<path opacity="0.99" fill-rule="evenodd" clip-rule="evenodd" d="M64.8162 66.7109C79.1412 67.5008 93.4818 68.0878 107.838 68.4719C107.838 69.6458 107.838 70.8198 107.838 71.9937C93.4985 71.5573 79.158 71.166 64.8162 70.8198C64.8162 69.4502 64.8162 68.0805 64.8162 66.7109Z" fill="#0062CF"/>
<path opacity="0.989" fill-rule="evenodd" clip-rule="evenodd" d="M115.499 70.2334C129.855 70.9632 144.195 71.7459 158.52 72.5813C158.52 72.9726 158.52 73.3639 158.52 73.7553C144.184 73.0834 129.843 72.4964 115.499 71.9943C115.499 71.4074 115.499 70.8204 115.499 70.2334Z" fill="#003EA2"/>
<path opacity="0.97" fill-rule="evenodd" clip-rule="evenodd" d="M64.8162 70.8208C79.158 71.167 93.4985 71.5583 107.838 71.9948C107.838 73.3644 107.838 74.734 107.838 76.1036C98.4083 76.1036 88.9789 76.1036 79.5496 76.1036C79.5496 77.2776 79.5496 78.4515 79.5496 79.6255C74.6216 79.7224 69.7105 79.5267 64.8162 79.0385C64.8162 76.2992 64.8162 73.56 64.8162 70.8208Z" fill="#0060CC"/>
<path opacity="0.973" fill-rule="evenodd" clip-rule="evenodd" d="M115.499 71.9937C129.843 72.4958 144.184 73.0827 158.52 73.7546C158.52 76.8851 158.52 80.0157 158.52 83.1462C153.608 82.9805 148.697 82.7849 143.787 82.5592C143.787 80.407 143.787 78.2548 143.787 76.1025C139.269 76.1025 134.751 76.1025 130.232 76.1025C130.232 78.0591 130.232 80.0157 130.232 81.9723C125.328 81.6466 120.416 81.451 115.499 81.3853C115.499 78.2548 115.499 75.1242 115.499 71.9937Z" fill="#0041A5"/>
<path opacity="0.965" fill-rule="evenodd" clip-rule="evenodd" d="M64.8162 79.0386C69.7105 79.5268 74.6216 79.7225 79.5496 79.6256C79.5496 80.6039 79.5496 81.5821 79.5496 82.5604C74.6627 82.028 69.7516 81.8324 64.8162 81.9735C64.8162 80.9951 64.8162 80.0169 64.8162 79.0386Z" fill="#005CC8"/>
<path opacity="0.917" fill-rule="evenodd" clip-rule="evenodd" d="M471.458 80.2121C478.814 79.7177 480.974 82.7504 477.94 89.3103C471.124 91.9016 468.079 89.6514 468.806 82.5601C469.629 81.6383 470.513 80.8557 471.458 80.2121Z" fill="#061240"/>
<path opacity="0.975" fill-rule="evenodd" clip-rule="evenodd" d="M115.499 81.3857C120.416 81.4514 125.328 81.6471 130.232 81.9727C130.232 82.3641 130.232 82.7553 130.232 83.1467C125.304 83.2436 120.393 83.0479 115.499 82.5597C115.499 82.1684 115.499 81.7771 115.499 81.3857Z" fill="#0043A9"/>
<path opacity="0.971" fill-rule="evenodd" clip-rule="evenodd" d="M64.8162 81.9731C69.7516 81.8319 74.6627 82.0276 79.5496 82.56C79.5496 85.6906 79.5496 88.8211 79.5496 91.9517C74.6216 92.0486 69.7105 91.8529 64.8162 91.3647C64.8162 88.2342 64.8162 85.1036 64.8162 81.9731Z" fill="#0059C4"/>
<path opacity="0.969" fill-rule="evenodd" clip-rule="evenodd" d="M115.499 82.5601C120.393 83.0483 125.304 83.244 130.232 83.147C130.232 86.0819 130.232 89.0168 130.232 91.9517C125.303 91.5779 120.392 91.1866 115.499 90.7777C115.499 88.0385 115.499 85.2993 115.499 82.5601Z" fill="#0046AB"/>
<path opacity="0.972" fill-rule="evenodd" clip-rule="evenodd" d="M143.787 82.5601C148.697 82.7857 153.608 82.9813 158.52 83.147C158.52 83.734 158.52 84.321 158.52 84.908C153.609 84.5166 148.698 84.1254 143.787 83.734C143.787 83.3427 143.787 82.9514 143.787 82.5601Z" fill="#0043A9"/>
<path opacity="0.938" fill-rule="evenodd" clip-rule="evenodd" d="M222.758 83.1469C230.371 82.1523 236.853 84.3045 242.206 89.6037C240.854 91.8308 239.184 93.7873 237.197 95.4734C229.599 89.5775 222.527 90.1645 215.981 97.2344C212.341 104.108 211.949 111.152 214.802 118.366C219.52 126.306 226.003 128.263 234.25 124.235C234.544 120.915 234.643 117.589 234.545 114.257C231.402 114.257 228.259 114.257 225.116 114.257C225.116 111.713 225.116 109.17 225.116 106.626C231.009 106.626 236.902 106.626 242.796 106.626C242.894 114.064 242.796 121.499 242.501 128.931C237.976 132.848 232.671 134.805 226.589 134.801C211.361 133.03 203.601 124.421 203.31 108.974C203.265 95.3277 209.747 86.7187 222.758 83.1469Z" fill="#061240"/>
<path opacity="0.971" fill-rule="evenodd" clip-rule="evenodd" d="M143.787 83.7339C148.698 84.1252 153.609 84.5165 158.52 84.9078C158.52 87.6471 158.52 90.3863 158.52 93.1255C153.623 92.6629 148.713 92.4673 143.787 92.5386C143.787 89.6037 143.787 86.6688 143.787 83.7339Z" fill="#0046AB"/>
<path opacity="0.972" fill-rule="evenodd" clip-rule="evenodd" d="M115.499 90.7778C120.392 91.1867 125.303 91.578 130.232 91.9518C130.232 93.1257 130.232 94.2997 130.232 95.4737C125.304 95.5706 120.393 95.3749 115.499 94.8867C115.499 93.5171 115.499 92.1474 115.499 90.7778Z" fill="#0049AF"/>
<path opacity="0.969" fill-rule="evenodd" clip-rule="evenodd" d="M64.8162 91.3647C69.7105 91.853 74.6216 92.0487 79.5496 91.9517C79.5496 95.2779 79.5496 98.6041 79.5496 101.93C74.6426 101.651 69.7314 101.455 64.8162 101.343C64.8162 100.952 64.8162 100.561 64.8162 100.169C64.8162 97.2345 64.8162 94.2996 64.8162 91.3647Z" fill="#0055BE"/>
<path opacity="0.97" fill-rule="evenodd" clip-rule="evenodd" d="M143.787 92.5387C148.713 92.4674 153.623 92.6631 158.52 93.1257C158.52 94.4953 158.52 95.8649 158.52 97.2345C153.628 96.8257 148.717 96.4343 143.787 96.0605C143.787 94.8866 143.787 93.7126 143.787 92.5387Z" fill="#0049AF"/>
<path opacity="0.867" fill-rule="evenodd" clip-rule="evenodd" d="M115.499 94.8867C120.393 95.375 125.304 95.5707 130.232 95.4737C130.232 96.6477 130.232 97.8216 130.232 98.9956C125.321 98.9956 120.41 98.9956 115.499 98.9956C115.499 97.626 115.499 96.2563 115.499 94.8867Z" fill="#004BB1"/>
<path opacity="0.928" fill-rule="evenodd" clip-rule="evenodd" d="M263.422 95.474C273.795 94.029 280.179 98.3335 282.576 108.388C282.87 111.512 282.968 114.643 282.87 117.779C275.013 117.779 267.154 117.779 259.297 117.779C260.141 123.88 263.677 127.011 269.905 127.171C272.747 127.042 275.399 126.26 277.861 124.823C278.316 124.908 278.709 125.103 279.04 125.41C279.774 127.07 280.658 128.635 281.692 130.106C273.654 135.906 265.404 136.199 256.939 130.986C250.657 124.864 248.594 117.527 250.751 108.975C252.471 102.079 256.695 97.5784 263.422 95.474ZM266.369 102.518C271.955 102.799 274.705 105.734 274.62 111.322C269.512 111.322 264.405 111.322 259.297 111.322C259.844 106.888 262.202 103.953 266.369 102.518Z" fill="#061240"/>
<path opacity="0.931" fill-rule="evenodd" clip-rule="evenodd" d="M307.622 95.4731C316.702 94.246 321.711 98.1592 322.65 107.213C322.945 116.015 323.043 124.82 322.945 133.627C319.802 133.627 316.659 133.627 313.516 133.627C313.614 125.016 313.516 116.406 313.221 107.8C312.769 104.977 311.1 103.412 308.212 103.104C304.972 103.69 302.32 105.255 300.256 107.8C299.961 116.406 299.862 125.016 299.961 133.627C296.818 133.627 293.674 133.627 290.531 133.627C290.531 121.105 290.531 108.582 290.531 96.0601C293.115 95.869 295.669 96.0647 298.193 96.6471C298.613 97.983 298.908 99.3526 299.077 100.756C301.656 98.4502 304.505 96.6893 307.622 95.4731Z" fill="#061240"/>
<path opacity="0.932" fill-rule="evenodd" clip-rule="evenodd" d="M344.162 95.4726C354.207 93.9617 360.395 98.0706 362.726 107.799C363.02 111.12 363.118 114.446 363.02 117.778C355.153 117.583 347.295 117.778 339.447 118.365C340.868 123.893 344.404 126.828 350.055 127.169C353.129 126.763 356.076 126.078 358.895 125.115C360.1 126.633 361.082 128.296 361.842 130.104C354.63 135.277 346.969 135.962 338.858 132.159C334.826 129.32 332.174 125.504 330.901 120.713C328.872 111.662 331.328 104.13 338.268 98.114C340.222 97.04 342.187 96.1595 344.162 95.4726ZM346.519 102.516C352.101 102.401 355.048 105.14 355.359 110.734C350.07 111.32 344.766 111.516 339.447 111.321C340.086 106.972 342.443 104.037 346.519 102.516Z" fill="#061240"/>
<path opacity="0.919" fill-rule="evenodd" clip-rule="evenodd" d="M386.593 95.4737C388.763 95.3767 390.924 95.4746 393.076 95.7672C393.623 95.9949 394.016 96.3862 394.255 96.9412C393.688 99.1732 393.198 101.423 392.781 103.691C386.806 102.66 382.68 105.008 380.405 110.735C380.111 118.363 380.012 125.994 380.111 133.627C376.968 133.627 373.824 133.627 370.681 133.627C370.681 121.105 370.681 108.583 370.681 96.0607C373.432 96.0607 376.182 96.0607 378.932 96.0607C378.835 98.027 378.933 99.9836 379.227 101.93C381.07 99.0191 383.525 96.8668 386.593 95.4737Z" fill="#061240"/>
<path opacity="0.928" fill-rule="evenodd" clip-rule="evenodd" d="M407.22 95.4732C410.997 95.2869 414.73 95.5804 418.417 96.3536C422.725 98.6939 425.18 102.314 425.784 107.213C426.079 116.015 426.177 124.82 426.079 133.627C423.525 133.627 420.971 133.627 418.417 133.627C418.307 132.415 418.012 131.241 417.533 130.105C412.981 134.063 407.775 135.335 401.916 133.92C395.351 130.212 393.485 124.831 396.317 117.778C399.261 114.108 403.092 111.858 407.809 111.028C410.741 110.411 413.687 109.922 416.649 109.561C416.027 103.862 412.884 101.808 407.22 103.397C404.633 104.001 402.276 105.077 400.148 106.626C398.412 104.733 397.331 102.58 396.906 100.169C400.108 97.9703 403.545 96.405 407.22 95.4732ZM416.06 115.43C418.735 122.176 416.475 126.089 409.282 127.17C404.989 127.002 403.418 124.849 404.568 120.713C407.892 117.756 411.722 115.995 416.06 115.43Z" fill="#061240"/>
<path opacity="0.929" fill-rule="evenodd" clip-rule="evenodd" d="M499.157 95.4732C502.934 95.2869 506.667 95.5804 510.354 96.3536C514.926 98.7662 517.382 102.582 517.721 107.8C518.016 116.406 518.114 125.016 518.016 133.627C515.432 133.818 512.878 133.622 510.354 133.04C509.969 132.092 509.674 131.113 509.47 130.105C504.005 134.795 498.014 135.676 491.496 132.746C485.77 127.256 485.378 121.386 490.317 115.137C495.934 111.805 502.024 109.946 508.586 109.561C507.964 103.862 504.821 101.808 499.157 103.397C496.57 104.001 494.213 105.077 492.085 106.626C490.359 104.753 489.278 102.601 488.844 100.169C492.045 97.9703 495.482 96.405 499.157 95.4732ZM507.997 115.43C508.673 118.061 508.772 120.8 508.292 123.648C504.845 127.316 501.014 127.903 496.8 125.409C495.918 123.243 496.114 121.189 497.389 119.246C500.72 117.248 504.256 115.976 507.997 115.43Z" fill="#061240"/>
<path opacity="0.985" fill-rule="evenodd" clip-rule="evenodd" d="M143.787 96.0596C148.717 96.4334 153.628 96.8247 158.521 97.2335C158.521 98.2118 158.521 99.1901 158.521 100.168C158.521 100.951 158.521 101.734 158.521 102.516C159.141 102.429 159.73 102.526 160.289 102.81C162.422 104.845 164.779 106.508 167.361 107.799C167.361 108.777 167.361 109.756 167.361 110.734C164.343 108.809 161.397 106.754 158.521 104.571C153.59 104.419 148.679 104.125 143.787 103.69C143.787 101.147 143.787 98.6031 143.787 96.0596Z" fill="#004CB2"/>
<path opacity="0.921" fill-rule="evenodd" clip-rule="evenodd" d="M434.919 96.0596C443.955 96.0596 452.992 96.0596 462.028 96.0596C462.126 98.0259 462.027 99.9825 461.734 101.929C456.135 109.854 450.536 117.778 444.938 125.702C450.828 125.995 456.721 126.093 462.618 125.995C462.618 128.539 462.618 131.083 462.618 133.626C452.795 133.626 442.973 133.626 433.151 133.626C433.054 131.66 433.152 129.703 433.446 127.756C438.963 120.011 444.365 112.184 449.652 104.277C444.757 103.692 439.846 103.496 434.919 103.69C434.919 101.147 434.919 98.6031 434.919 96.0596Z" fill="#061240"/>
<path opacity="0.923" fill-rule="evenodd" clip-rule="evenodd" d="M469.1 96.0596C472.243 96.0596 475.387 96.0596 478.53 96.0596C478.53 108.582 478.53 121.104 478.53 133.626C475.387 133.626 472.243 133.626 469.1 133.626C469.1 121.104 469.1 108.582 469.1 96.0596Z" fill="#061240"/>
<path opacity="0.992" fill-rule="evenodd" clip-rule="evenodd" d="M55.387 100.169C55.9763 100.169 56.5656 100.169 57.155 100.169C59.5433 102.155 62.0971 103.916 64.8163 105.452C64.9107 106.45 64.8125 107.428 64.5217 108.387C61.5123 105.963 58.4674 103.615 55.387 101.343C55.387 100.952 55.387 100.561 55.387 100.169Z" fill="#0055BE"/>
<path fill-rule="evenodd" clip-rule="evenodd" d="M57.1552 100.169C58.3338 100.169 59.5125 100.169 60.6912 100.169C61.8991 101.371 63.2742 102.35 64.8165 103.104C64.8165 103.3 64.8165 103.496 64.8165 103.691C64.8165 104.278 64.8165 104.865 64.8165 105.452C62.0973 103.916 59.5435 102.155 57.1552 100.169Z" fill="#0059C4"/>
<path fill-rule="evenodd" clip-rule="evenodd" d="M60.6909 100.169C62.066 100.169 63.4412 100.169 64.8163 100.169C64.8163 100.561 64.8163 100.952 64.8163 101.343C64.8163 101.93 64.8163 102.517 64.8163 103.104C63.274 102.35 61.8988 101.371 60.6909 100.169Z" fill="#005ECA"/>
<path opacity="0.99" fill-rule="evenodd" clip-rule="evenodd" d="M158.521 100.169C158.914 100.169 159.306 100.169 159.699 100.169C162.124 102.262 164.678 104.218 167.361 106.039C167.361 106.626 167.361 107.213 167.361 107.8C164.779 106.509 162.422 104.846 160.289 102.811C159.73 102.527 159.14 102.43 158.521 102.517C158.521 101.735 158.521 100.952 158.521 100.169Z" fill="#0046AC"/>
<path opacity="0.969" fill-rule="evenodd" clip-rule="evenodd" d="M159.699 100.169C160.878 100.169 162.057 100.169 163.235 100.169C164.432 101.357 165.808 102.335 167.361 103.104C167.361 104.083 167.361 105.061 167.361 106.039C164.678 104.218 162.124 102.262 159.699 100.169Z" fill="#0042A6"/>
<path opacity="0.923" fill-rule="evenodd" clip-rule="evenodd" d="M163.235 100.169C164.61 100.169 165.986 100.169 167.361 100.169C167.361 101.148 167.361 102.126 167.361 103.104C165.808 102.335 164.432 101.357 163.235 100.169Z" fill="#003D9F"/>
<path opacity="0.972" fill-rule="evenodd" clip-rule="evenodd" d="M64.8162 101.343C69.7314 101.455 74.6426 101.651 79.5496 101.93C79.5496 102.713 79.5496 103.496 79.5496 104.278C74.624 104.349 69.7128 104.154 64.8162 103.691C64.8162 103.496 64.8162 103.3 64.8162 103.104C64.8162 102.517 64.8162 101.93 64.8162 101.343Z" fill="#0052BA"/>
<path opacity="0.972" fill-rule="evenodd" clip-rule="evenodd" d="M55.387 101.343C58.4674 103.615 61.5123 105.963 64.5217 108.387C64.8125 107.428 64.9107 106.449 64.8163 105.452C64.8163 104.865 64.8163 104.278 64.8163 103.691C69.713 104.154 74.6242 104.349 79.5497 104.278C79.5497 106.626 79.5497 108.974 79.5497 111.322C74.6308 111.193 69.7196 110.9 64.8163 110.441C61.5519 108.33 58.4088 106.08 55.387 103.691C55.387 102.909 55.387 102.126 55.387 101.343Z" fill="#004FB7"/>
<path opacity="0.971" fill-rule="evenodd" clip-rule="evenodd" d="M55.387 103.691C58.4088 106.079 61.5519 108.329 64.8163 110.441C69.7196 110.9 74.6308 111.193 79.5497 111.322C79.5497 113.865 79.5497 116.409 79.5497 118.952C74.6427 118.673 69.7316 118.477 64.8163 118.365C64.8163 117.191 64.8163 116.017 64.8163 114.843C64.9454 114.154 64.749 113.567 64.227 113.083C61.3676 110.781 58.4209 108.629 55.387 106.626C55.387 105.647 55.387 104.669 55.387 103.691Z" fill="#004CB2"/>
<path opacity="0.991" fill-rule="evenodd" clip-rule="evenodd" d="M143.787 103.691C148.678 104.126 153.589 104.419 158.52 104.571C161.396 106.755 164.343 108.809 167.36 110.735C167.36 111.517 167.36 112.3 167.36 113.083C164.457 111.368 161.706 109.412 159.11 107.213C158.125 108.392 157.732 109.762 157.931 111.322C153.208 111.282 148.493 111.086 143.787 110.735C143.787 108.387 143.787 106.039 143.787 103.691Z" fill="#004FB7"/>
<path opacity="0.955" fill-rule="evenodd" clip-rule="evenodd" d="M55.387 106.625C58.4209 108.629 61.3676 110.781 64.227 113.082C64.749 113.566 64.9454 114.153 64.8163 114.843C64.4234 114.843 64.0306 114.843 63.6377 114.843C61.0653 112.678 58.3151 110.721 55.387 108.973C55.387 108.191 55.387 107.408 55.387 106.625Z" fill="#0046AB"/>
<path opacity="0.873" fill-rule="evenodd" clip-rule="evenodd" d="M55.387 108.974C58.3151 110.721 61.0653 112.678 63.6377 114.843C62.2626 114.843 60.8874 114.843 59.5123 114.843C58.2707 113.536 56.8956 112.362 55.387 111.322C55.387 110.539 55.387 109.756 55.387 108.974Z" fill="#0042A6"/>
<path opacity="0.99" fill-rule="evenodd" clip-rule="evenodd" d="M143.787 110.735C148.493 111.087 153.208 111.283 157.931 111.322C157.931 112.105 157.931 112.888 157.931 113.67C153.184 113.829 148.469 113.633 143.787 113.083C143.787 112.301 143.787 111.518 143.787 110.735Z" fill="#0052BA"/>
<path opacity="0.736" fill-rule="evenodd" clip-rule="evenodd" d="M55.387 111.322C56.8956 112.363 58.2707 113.537 59.5123 114.844C58.1372 114.844 56.7621 114.844 55.387 114.844C55.387 113.67 55.387 112.496 55.387 111.322Z" fill="#003C9F"/>
<path opacity="0.974" fill-rule="evenodd" clip-rule="evenodd" d="M167.36 113.083C167.36 113.67 167.36 114.257 167.36 114.844C166.771 114.844 166.182 114.844 165.592 114.844C163.534 112.882 161.275 111.121 158.815 109.561C158.526 110.32 158.428 111.103 158.52 111.909C158.52 112.887 158.52 113.865 158.52 114.844C158.52 117.778 158.52 120.713 158.52 123.648C153.6 123.623 148.69 123.428 143.787 123.061C143.787 119.735 143.787 116.409 143.787 113.083C148.469 113.633 153.184 113.828 157.931 113.67C157.931 112.887 157.931 112.104 157.931 111.322C157.732 109.762 158.125 108.393 159.11 107.213C161.706 109.412 164.457 111.369 167.36 113.083Z" fill="#0055BE"/>
<path opacity="0.792" fill-rule="evenodd" clip-rule="evenodd" d="M158.521 111.909C160.073 112.678 161.449 113.656 162.646 114.844C161.271 114.844 159.895 114.844 158.521 114.844C158.521 113.865 158.521 112.887 158.521 111.909Z" fill="#005ECA"/>
<path opacity="0.969" fill-rule="evenodd" clip-rule="evenodd" d="M165.593 114.843C164.61 114.843 163.628 114.843 162.646 114.843C161.449 113.656 160.074 112.678 158.521 111.908C158.428 111.102 158.527 110.32 158.815 109.561C161.276 111.121 163.535 112.882 165.593 114.843Z" fill="#0059C4"/>
<path opacity="0.868" fill-rule="evenodd" clip-rule="evenodd" d="M107.838 120.126C102.937 119.724 98.0258 119.529 93.1042 119.54C93.1042 118.17 93.1042 116.8 93.1042 115.431C98.0154 115.431 102.927 115.431 107.838 115.431C107.838 116.996 107.838 118.561 107.838 120.126Z" fill="#004BB2"/>
<path opacity="0.969" fill-rule="evenodd" clip-rule="evenodd" d="M64.8162 118.365C69.7314 118.477 74.6426 118.673 79.5496 118.952C79.5496 120.321 79.5496 121.691 79.5496 123.061C74.6529 122.598 69.7417 122.403 64.8162 122.474C64.8162 121.104 64.8162 119.734 64.8162 118.365Z" fill="#0049AF"/>
<path opacity="0.969" fill-rule="evenodd" clip-rule="evenodd" d="M93.1042 119.539C98.0258 119.528 102.937 119.724 107.838 120.126C107.838 121.495 107.838 122.865 107.838 124.235C102.959 123.683 98.0475 123.488 93.1042 123.648C93.1042 122.278 93.1042 120.908 93.1042 119.539Z" fill="#0049AF"/>
<path opacity="0.97" fill-rule="evenodd" clip-rule="evenodd" d="M64.8162 122.474C69.7417 122.403 74.6529 122.598 79.5496 123.061C79.5496 125.8 79.5496 128.539 79.5496 131.278C74.6426 130.999 69.7314 130.803 64.8162 130.691C64.8162 127.952 64.8162 125.213 64.8162 122.474Z" fill="#0046AB"/>
<path opacity="0.969" fill-rule="evenodd" clip-rule="evenodd" d="M143.787 123.062C148.69 123.428 153.6 123.623 158.52 123.649C158.52 126.975 158.52 130.301 158.52 133.627C153.619 133.225 148.708 133.03 143.787 133.04C143.787 129.714 143.787 126.388 143.787 123.062Z" fill="#0059C4"/>
<path opacity="0.97" fill-rule="evenodd" clip-rule="evenodd" d="M93.1042 123.649C98.0475 123.489 102.959 123.684 107.838 124.236C107.838 126.975 107.838 129.714 107.838 132.454C102.939 132.019 98.0277 131.824 93.1042 131.867C93.1042 129.127 93.1042 126.388 93.1042 123.649Z" fill="#0046AB"/>
<path opacity="0.976" fill-rule="evenodd" clip-rule="evenodd" d="M64.8162 130.692C69.7314 130.804 74.6426 131 79.5496 131.279C79.5496 131.671 79.5496 132.062 79.5496 132.453C74.6063 132.614 69.6952 132.418 64.8162 131.866C64.8162 131.475 64.8162 131.084 64.8162 130.692Z" fill="#0043A9"/>
<path opacity="0.967" fill-rule="evenodd" clip-rule="evenodd" d="M64.8162 131.867C69.6952 132.419 74.6063 132.614 79.5496 132.454C79.5496 134.411 79.5496 136.368 79.5496 138.324C84.0678 138.324 88.586 138.324 93.1043 138.324C93.1043 136.563 93.1043 134.802 93.1043 133.041C98.001 133.504 102.912 133.699 107.838 133.628C107.838 136.758 107.838 139.889 107.838 143.02C93.4503 142.717 79.1098 142.13 64.8162 141.259C64.8162 138.128 64.8162 134.998 64.8162 131.867Z" fill="#0041A5"/>
<path opacity="0.976" fill-rule="evenodd" clip-rule="evenodd" d="M93.1042 131.866C98.0277 131.823 102.939 132.018 107.838 132.453C107.838 132.844 107.838 133.235 107.838 133.627C102.912 133.698 98.0009 133.502 93.1042 133.04C93.1042 132.648 93.1042 132.257 93.1042 131.866Z" fill="#0043A9"/>
<path opacity="0.972" fill-rule="evenodd" clip-rule="evenodd" d="M143.787 133.04C148.708 133.029 153.619 133.225 158.52 133.627C158.52 134.409 158.52 135.192 158.52 135.975C153.603 135.909 148.691 135.714 143.787 135.388C143.787 134.605 143.787 133.822 143.787 133.04Z" fill="#005CC8"/>
<path opacity="0.955" fill-rule="evenodd" clip-rule="evenodd" d="M143.787 135.388C148.692 135.714 153.603 135.909 158.521 135.975C158.572 138.932 158.376 141.867 157.931 144.78C143.598 144.04 129.258 143.453 114.91 143.019C114.91 141.453 114.91 139.889 114.91 138.323C124.536 138.323 134.162 138.323 143.787 138.323C143.787 137.345 143.787 136.367 143.787 135.388Z" fill="#0060CC"/>
<path opacity="0.987" fill-rule="evenodd" clip-rule="evenodd" d="M64.8162 141.258C79.1098 142.129 93.4503 142.716 107.838 143.019C107.838 143.606 107.838 144.193 107.838 144.78C93.5051 144.058 79.1646 143.471 64.8162 143.019C64.8162 142.432 64.8162 141.845 64.8162 141.258Z" fill="#003EA2"/>
<path opacity="0.736" fill-rule="evenodd" clip-rule="evenodd" d="M390.719 142.431C392.65 142.264 394.516 142.46 396.317 143.018C396.759 143.684 396.661 144.271 396.023 144.779C393.978 143.052 392.21 143.248 390.719 145.366C392.013 146.55 393.585 147.235 395.433 147.42C397.497 148.885 397.693 150.548 396.023 152.41C393.861 153.192 391.701 153.192 389.54 152.41C389.018 151.925 388.821 151.338 388.951 150.649C390.322 150.746 391.598 151.137 392.781 151.823C393.729 151.443 394.613 150.954 395.433 150.355C393.684 148.935 391.72 147.859 389.54 147.127C388.645 145.213 389.038 143.648 390.719 142.431Z" fill="black"/>
<path opacity="0.739" fill-rule="evenodd" clip-rule="evenodd" d="M401.327 142.432C407.717 141.845 410.173 144.585 408.693 150.649C405.354 153.78 402.014 153.78 398.675 150.649C397.264 147.137 398.148 144.399 401.327 142.432ZM403.095 143.606C406.888 144.313 408.067 146.465 406.631 150.062C404.666 152.41 402.702 152.41 400.737 150.062C399.489 147.097 400.275 144.944 403.095 143.606Z" fill="black"/>
<path opacity="0.809" fill-rule="evenodd" clip-rule="evenodd" d="M411.345 142.432C411.935 142.432 412.524 142.432 413.113 142.432C413.113 145.367 413.113 148.301 413.113 151.236C415.078 151.236 417.043 151.236 419.007 151.236C419.007 151.823 419.007 152.41 419.007 152.997C416.453 152.997 413.899 152.997 411.345 152.997C411.345 149.475 411.345 145.954 411.345 142.432Z" fill="black"/>
<path opacity="0.707" fill-rule="evenodd" clip-rule="evenodd" d="M419.596 142.432C420.185 142.432 420.775 142.432 421.364 142.432C421.182 145.23 421.477 147.969 422.248 150.649C423.543 151.959 424.918 151.959 426.374 150.649C426.668 147.917 426.766 145.178 426.668 142.432C427.454 142.432 428.24 142.432 429.026 142.432C429.123 144.983 429.025 147.526 428.731 150.062C426.801 153.137 424.149 153.821 420.775 152.117C420.406 151.677 420.111 151.187 419.891 150.649C419.597 147.917 419.498 145.178 419.596 142.432Z" fill="black"/>
<path opacity="0.725" fill-rule="evenodd" clip-rule="evenodd" d="M429.615 142.432C432.782 142.24 435.925 142.435 439.044 143.019C437.927 143.586 436.748 143.782 435.508 143.606C435.508 146.737 435.508 149.868 435.508 152.998C434.723 152.998 433.936 152.998 433.151 152.998C433.151 149.868 433.151 146.737 433.151 143.606C431.629 143.885 430.45 143.494 429.615 142.432Z" fill="black"/>
<path opacity="0.633" fill-rule="evenodd" clip-rule="evenodd" d="M439.634 142.432C440.419 142.432 441.206 142.432 441.991 142.432C441.991 145.954 441.991 149.475 441.991 152.997C441.206 152.997 440.419 152.997 439.634 152.997C439.634 149.475 439.634 145.954 439.634 142.432Z" fill="black"/>
<path opacity="0.739" fill-rule="evenodd" clip-rule="evenodd" d="M446.706 142.432C453.097 141.845 455.552 144.585 454.073 150.649C450.733 153.78 447.394 153.78 444.054 150.649C442.643 147.137 443.527 144.399 446.706 142.432ZM448.474 143.606C452.267 144.313 453.446 146.465 452.01 150.062C450.046 152.41 448.081 152.41 446.117 150.062C444.868 147.097 445.654 144.944 448.474 143.606Z" fill="black"/>
<path opacity="0.737" fill-rule="evenodd" clip-rule="evenodd" d="M456.725 142.431C457.345 142.343 457.934 142.441 458.493 142.724C460.162 144.779 461.832 146.833 463.502 148.888C463.796 146.744 463.894 144.592 463.797 142.431C464.582 142.431 465.368 142.431 466.154 142.431C466.154 145.953 466.154 149.475 466.154 152.997C465.345 153.089 464.559 152.991 463.797 152.703C462.127 150.649 460.457 148.594 458.787 146.54C458.493 148.683 458.395 150.835 458.493 152.997C457.903 152.997 457.314 152.997 456.725 152.997C456.725 149.475 456.725 145.953 456.725 142.431Z" fill="black"/>
<path opacity="0.713" fill-rule="evenodd" clip-rule="evenodd" d="M470.869 143.018C471.581 142.266 472.367 142.266 473.226 143.018C474.145 145.436 475.226 147.784 476.467 150.062C477.491 147.689 478.571 145.341 479.709 143.018C480.429 142.364 481.215 142.266 482.066 142.725C480.517 145.909 479.043 149.137 477.646 152.41C476.847 152.926 475.963 153.122 474.994 152.997C473.954 149.491 472.579 146.164 470.869 143.018Z" fill="black"/>
<path opacity="0.72" fill-rule="evenodd" clip-rule="evenodd" d="M485.013 142.431C491.293 141.35 493.945 143.893 492.969 150.062C491.908 152.254 490.14 153.232 487.665 152.996C482.867 152.654 481.099 150.11 482.361 145.366C482.965 144.082 483.849 143.104 485.013 142.431ZM487.37 143.605C490.975 144.525 492.056 146.677 490.611 150.062C487.405 152.421 485.146 151.638 483.834 147.714C484.213 145.581 485.392 144.211 487.37 143.605Z" fill="black"/>
<path opacity="0.633" fill-rule="evenodd" clip-rule="evenodd" d="M495.031 142.432C495.817 142.432 496.603 142.432 497.388 142.432C497.388 145.954 497.388 149.475 497.388 152.997C496.603 152.997 495.817 152.997 495.031 152.997C495.031 149.475 495.031 145.954 495.031 142.432Z" fill="black"/>
<path opacity="0.721" fill-rule="evenodd" clip-rule="evenodd" d="M502.103 142.432C504.486 142.114 506.647 142.603 508.586 143.9C507.372 145.526 506.094 145.428 504.755 143.606C500.852 144.817 499.968 147.165 502.103 150.65C504.075 152.157 505.941 151.961 507.702 150.063C508.655 150.671 508.753 151.356 507.996 152.118C502.28 154.317 499.235 152.458 498.862 146.541C499.414 144.723 500.495 143.353 502.103 142.432Z" fill="black"/>
<path opacity="0.82" fill-rule="evenodd" clip-rule="evenodd" d="M510.354 142.432C512.937 142.241 515.491 142.437 518.015 143.019C516.29 143.597 514.522 143.792 512.711 143.606C512.711 144.78 512.711 145.954 512.711 147.128C518.998 147.52 518.998 147.91 512.711 148.302C512.711 149.476 512.711 150.65 512.711 151.824C514.714 151.636 516.679 151.832 518.604 152.411C515.882 152.994 513.132 153.19 510.354 152.998C510.354 149.476 510.354 145.954 510.354 142.432Z" fill="black"/>
<path opacity="0.987" fill-rule="evenodd" clip-rule="evenodd" d="M64.8162 143.019C79.1646 143.471 93.5051 144.058 107.838 144.779C107.838 147.519 107.838 150.258 107.838 152.997C105.48 152.997 103.123 152.997 100.766 152.997C88.8816 152.248 76.8984 151.661 64.8162 151.236C64.8162 148.497 64.8162 145.758 64.8162 143.019Z" fill="#003C9F"/>
<path opacity="0.99" fill-rule="evenodd" clip-rule="evenodd" d="M114.91 143.019C129.258 143.453 143.598 144.04 157.931 144.779C157.931 145.953 157.931 147.127 157.931 148.301C143.592 147.697 129.251 147.11 114.91 146.54C114.91 145.366 114.91 144.193 114.91 143.019Z" fill="#0062CF"/>
<path opacity="0.972" fill-rule="evenodd" clip-rule="evenodd" d="M114.91 146.541C129.251 147.11 143.592 147.697 157.931 148.301C157.931 149.867 157.931 151.432 157.931 152.997C143.591 152.997 129.25 152.997 114.91 152.997C114.91 150.845 114.91 148.693 114.91 146.541Z" fill="#0064D2"/>
</svg>
