<svg width="37" height="16" viewBox="0 0 37 16" fill="none" xmlns="http://www.w3.org/2000/svg">
<path d="M21.9102 5.1973C21.1049 5.1973 20.504 5.59135 20.504 6.53707C20.504 7.25051 20.9004 7.74825 21.8685 7.74825C22.6906 7.74825 23.2456 7.2671 23.2456 6.50804C23.2456 5.64942 22.7448 5.1973 21.9102 5.1973ZM20.2953 11.892C20.1034 12.1243 19.9156 12.3731 19.9156 12.6635C19.9156 13.2442 20.6625 13.4226 21.6891 13.4226C22.5403 13.4226 23.6962 13.3645 23.6962 12.5764C23.6962 12.1077 23.1371 12.0786 22.436 12.0372L20.2953 11.892ZM24.6393 5.24293C24.9022 5.57891 25.1818 6.04347 25.1818 6.71543C25.1818 8.33311 23.9049 9.27883 22.0605 9.27883C21.5889 9.27883 21.1675 9.22075 20.9004 9.14609L20.4122 9.92175L21.8476 10.0089C24.3847 10.1706 25.8786 10.2411 25.8786 12.1823C25.8786 13.8581 24.3973 14.808 21.8476 14.808C19.1937 14.808 18.1797 14.136 18.1797 12.987C18.1797 12.3317 18.4718 11.9832 18.9851 11.4979C18.501 11.2947 18.3383 10.9297 18.3383 10.5356C18.3383 10.2162 18.501 9.92175 18.7639 9.64799C19.0268 9.37008 19.3189 9.09217 19.6736 8.77278C18.9558 8.42436 18.4134 7.6653 18.4134 6.58685C18.4134 4.9111 19.5275 3.75799 21.7725 3.75799C22.4026 3.75799 22.7865 3.81606 23.1204 3.90316H25.9788V5.14338L24.6393 5.24293ZM28.566 2.59243C27.7314 2.59243 27.2473 2.11127 27.2473 1.2817C27.2473 0.452119 27.7314 0 28.566 0C29.4172 0 29.9013 0.452119 29.9013 1.2817C29.9013 2.11127 29.4172 2.59243 28.566 2.59243ZM26.6757 11.3528V10.1997L27.4226 10.1001C27.6271 10.0711 27.6563 10.0254 27.6563 9.80975V5.52499C27.6563 5.36322 27.6104 5.26367 27.4643 5.21804L26.6715 4.94013L26.8342 3.75799H29.8721V9.80975C29.8721 10.042 29.8846 10.0711 30.1058 10.1001L30.8527 10.2038V11.3528H26.6757ZM36.653 10.7887C36.0229 11.0956 35.0965 11.3735 34.2619 11.3735C32.5177 11.3735 31.8584 10.6725 31.8584 9.0258V5.2056C31.8584 5.11849 31.8584 5.06042 31.7415 5.06042H30.715V3.76213C32.0044 3.61696 32.5177 2.97404 32.6804 1.38539H34.0742V3.45519C34.0742 3.55889 34.0742 3.60037 34.191 3.60037H36.2566V5.05627H34.07V8.5405C34.07 9.39911 34.2744 9.73509 35.0673 9.73509C35.4804 9.73509 35.9019 9.6314 36.2566 9.50281L36.653 10.7887Z" fill="#B3B3B3"/>
<path d="M15.1033 7.01334L8.38327 0.291743C7.99437 -0.0972477 7.36711 -0.0972477 6.9824 0.291743L5.58571 1.68876L7.35457 3.45804C7.7811 3.31165 8.24945 3.42458 8.56726 3.73828C8.88507 4.05617 8.99379 4.52881 8.84743 4.95545L10.5536 6.66199C10.9676 6.51978 11.4443 6.6118 11.7704 6.94223C12.2304 7.40233 12.2304 8.15103 11.7704 8.61113C11.3105 9.07122 10.5619 9.07122 10.1019 8.61113C9.76323 8.27233 9.66287 7.76622 9.84686 7.32704L8.25781 5.73761V9.92449C8.3749 9.98305 8.47944 10.0583 8.57144 10.1462C9.03143 10.6063 9.03143 11.355 8.57144 11.8151C8.11145 12.2752 7.36293 12.2752 6.90294 11.8151C6.44296 11.355 6.44296 10.6063 6.90294 10.1462C7.01167 10.0374 7.14548 9.94959 7.28766 9.88685V5.66233C7.1413 5.60377 7.01167 5.51593 6.90294 5.403C6.55586 5.05583 6.46805 4.54136 6.64786 4.11473L4.90409 2.37054L0.291674 6.97987C-0.0972245 7.36887 -0.0972245 7.99627 0.291674 8.38108L7.01167 15.1027C7.40057 15.4917 8.02782 15.4917 8.41254 15.1027L15.0991 8.41454C15.4922 8.02555 15.4922 7.39814 15.1033 7.01334Z" fill="#F74E27"/>
</svg>
