<svg width="27" height="37" viewBox="0 0 27 37" fill="none" xmlns="http://www.w3.org/2000/svg">
<path d="M11.8038 3.57027V0.0687251H12.6628V3.57027C12.6628 3.90243 12.5919 4.18535 12.4498 4.41903C12.3077 4.65268 12.1142 4.83138 11.8691 4.95507C11.6239 5.07879 11.3457 5.14064 11.0341 5.14064C10.7157 5.14064 10.4327 5.08681 10.1854 4.97913C9.94023 4.87146 9.74773 4.70652 9.60801 4.48431C9.4683 4.2621 9.39844 3.98033 9.39844 3.639H10.2644C10.2644 3.836 10.2953 3.99521 10.3572 4.11664C10.4213 4.23576 10.5107 4.3228 10.6252 4.37778C10.7421 4.43048 10.8783 4.45682 11.0341 4.45682C11.1829 4.45682 11.3147 4.4236 11.4292 4.35717C11.5461 4.28844 11.6377 4.1888 11.7041 4.05821C11.7706 3.92535 11.8038 3.7627 11.8038 3.57027ZM16.2882 3.78331C16.2882 3.68023 16.272 3.58859 16.2401 3.50841C16.2102 3.42824 16.1564 3.35493 16.0785 3.28849C16.0006 3.22206 15.8907 3.15791 15.7486 3.09606C15.6089 3.03192 15.4302 2.96663 15.2126 2.9002C14.9744 2.82689 14.7544 2.74556 14.5528 2.65622C14.3534 2.56458 14.1794 2.45921 14.0305 2.34009C13.8816 2.21868 13.766 2.08009 13.6834 1.92429C13.601 1.76623 13.5597 1.58411 13.5597 1.37794C13.5597 1.17406 13.6021 0.98849 13.6869 0.821264C13.7739 0.654034 13.8964 0.509711 14.0545 0.388297C14.2149 0.264592 14.4039 0.169522 14.6216 0.103088C14.8392 0.0343618 15.0798 0 15.3431 0C15.7143 0 16.0338 0.0687251 16.3019 0.206175C16.5721 0.343625 16.7795 0.528037 16.9239 0.759412C17.0705 0.990792 17.1438 1.24622 17.1438 1.5257H16.2882C16.2882 1.36076 16.2527 1.21529 16.1816 1.08929C16.1128 0.961006 16.0075 0.860209 15.8655 0.786902C15.7257 0.713596 15.5482 0.676942 15.3328 0.676942C15.129 0.676942 14.9594 0.707869 14.8242 0.769721C14.6892 0.831573 14.5883 0.915189 14.5219 1.02057C14.4555 1.12594 14.4222 1.24506 14.4222 1.37794C14.4222 1.47186 14.4441 1.55776 14.4874 1.63566C14.531 1.71125 14.5974 1.78227 14.6868 1.8487C14.7761 1.91284 14.8884 1.97356 15.0236 2.03082C15.1588 2.08809 15.318 2.14307 15.5013 2.19576C15.7784 2.27823 16.0201 2.36987 16.2263 2.47066C16.4324 2.56917 16.6043 2.68142 16.7418 2.80742C16.8792 2.93342 16.9822 3.07659 17.051 3.23695C17.1197 3.39502 17.1541 3.57485 17.1541 3.77645C17.1541 3.9872 17.1117 4.17733 17.0269 4.34686C16.9422 4.51409 16.8208 4.65727 16.6626 4.7764C16.5069 4.89322 16.3191 4.98371 16.0992 5.04785C15.8814 5.10971 15.6387 5.14064 15.3706 5.14064C15.1301 5.14064 14.893 5.10856 14.6593 5.04442C14.4279 4.98028 14.2172 4.88291 14.0271 4.75234C13.8369 4.61948 13.6858 4.45454 13.5735 4.25752C13.4612 4.05821 13.4051 3.8257 13.4051 3.55996H14.2675C14.2675 3.72261 14.2951 3.86121 14.3501 3.97574C14.4074 4.09029 14.4864 4.18421 14.5871 4.25752C14.688 4.32854 14.8049 4.38123 14.9377 4.41558C15.0729 4.44995 15.2171 4.46713 15.3706 4.46713C15.5722 4.46713 15.7406 4.4385 15.8757 4.38123C16.0133 4.32395 16.1163 4.24378 16.1851 4.14068C16.2537 4.0376 16.2882 3.91847 16.2882 3.78331Z" fill="#E9CA32"/>
<path d="M2.20977 33.0604L0 6.24463L26.3904 6.29851L24.0538 33.0604L13.2948 36.1538L2.20977 33.0604Z" fill="#E9CA32"/>
<path d="M13.3418 33.5148V8.88379L24.0446 8.91952L22.136 30.9567L13.3418 33.5148Z" fill="#FFDE25"/>
<path d="M12.0641 11.7388H9.20662V28.2221L6.98417 27.7995V25.5805L4.33838 25.1579V30.124L12.0641 32.1316V11.7388ZM14.2076 11.7388H22.1181L21.5888 14.8981H17.2274V20.0825H21.5888L21.0597 30.5467L14.2076 32.1316V28.8561L18.8373 27.2711L19.1046 22.9389L14.2076 23.6469V11.7388Z" fill="white"/>
</svg>
