<svg width="573" height="213" viewBox="0 0 573 213" fill="none" xmlns="http://www.w3.org/2000/svg">
<rect width="573" height="213" fill="white"/>
<path fill-rule="evenodd" clip-rule="evenodd" d="M115.143 66C110.923 66 107.757 68.4945 107.757 71.9751C107.757 75.4529 110.848 78.0991 115.143 78.0991C119.36 78.0991 122.451 75.4529 122.451 71.9751C122.451 68.4945 119.363 66 115.143 66ZM59 126.866V71.1232H72.1863V115.598H101.873V126.863L59 126.866ZM108.663 126.866H121.473V83.3653H108.663V126.866ZM204.964 126.866V100.249C204.964 88.153 199.386 81.3434 189.216 81.3434C181.604 81.3434 176.629 84.824 174.067 92.1588C172.035 85.2792 167.063 81.3463 159.903 81.3463C152.667 81.3463 147.845 84.7482 145.209 92.3863V83.1581H132.552V126.863H145.287V104.252C145.287 97.0719 148.601 92.1559 154.325 92.1559C159.602 92.1559 162.389 96.0129 162.389 101.909V126.863H175.124V102.968C175.124 96.6168 178.139 92.1559 184.015 92.1559C189.442 92.1559 192.154 96.0887 192.154 102.971V126.866H204.964ZM225.545 100.249H249.281C248.679 94.5774 244.684 91.3273 237.828 91.3273C230.896 91.3273 226.676 94.9567 225.545 100.249ZM260.131 107.056H225.394C226.827 113.784 232.777 117.792 242.349 117.792C248.182 117.815 253.875 115.989 258.623 112.573V122.557C254.102 125.883 246.945 128.228 239.411 128.228C223.134 128.228 212.659 118.472 212.659 104.41C212.659 91.5548 221.93 81.3463 237.527 81.3463C252.218 81.3463 260.131 89.3608 260.131 102.367V107.056ZM266.542 112.348V122.253C272.495 126.186 279.957 128.228 287.566 128.228C300.526 128.228 307.985 122.405 307.985 113.935C307.985 106.224 303.013 102.595 294.799 100.932L286.208 99.0413C281.688 98.0551 279.728 96.9231 279.728 94.7291C279.728 92.2346 282.518 90.5716 288.469 90.5716C295.401 90.5716 301.354 92.8386 305.574 95.7153V86.1807C301.429 83.5345 295.328 81.3434 287.265 81.3434C274.53 81.3434 266.768 86.7876 266.768 94.7262C266.768 100.777 270.31 104.935 280.029 107.356L289.601 109.623C294.046 110.761 294.723 112.57 294.723 114.312C294.723 117.11 292.09 118.849 286.585 118.849C279.502 118.849 271.969 116.585 266.542 112.348ZM363.451 102.216V126.869H350.641V105.089C350.641 96.3951 347.248 92.2346 340.317 92.2346C332.705 92.2346 328.789 97.3024 328.789 104.786V126.866H316.054V73.571L328.789 67.8585V92.9115C331.877 85.1216 337.379 81.3434 345.668 81.3434C357.046 81.3434 363.451 88.754 363.451 102.213V102.216ZM392.468 106.677C398.344 106.677 402.266 109.399 402.266 113.256C402.266 117.188 398.118 120.138 392.318 120.138C386.665 120.138 383.352 117.337 383.352 113.334C383.352 109.474 386.665 106.677 392.468 106.677ZM414.772 126.866V103.123C414.772 89.0603 406.181 81.3463 391.641 81.3463C383.427 81.3463 377.699 83.9925 373.554 87.018V97.6788C377.398 93.8976 382.145 91.8553 387.948 91.8553C396.086 91.8553 402.112 95.9399 402.187 104.255V105.997C399.099 101.836 394.277 99.7211 387.872 99.7211C377.699 99.7211 371.294 105.769 371.294 113.935C371.294 122.105 377.473 128.38 387.195 128.38C394.052 128.38 399.25 125.883 402.266 120.97V126.866H414.772ZM456.747 84.1413V95.937C455.092 94.7262 452.603 93.8947 449.514 93.8947C442.583 93.8947 437.833 98.6591 437.833 108.792V126.863H425.026V83.161H437.686V95.0355C439.795 86.3353 444.316 82.3266 450.42 82.3266C453.132 82.3266 455.242 83.0823 456.747 84.1413ZM488.928 91.7795C496.763 91.7795 501.663 97.3724 501.663 104.71C501.663 112.194 496.688 117.789 488.703 117.789C480.79 117.789 475.965 112.269 475.965 104.935C475.965 97.4512 481.016 91.7766 488.928 91.7766V91.7795ZM493.976 128.226C505.73 128.226 515 118.697 515 104.558C515 91.4002 507.012 81.3434 494.653 81.3434C485.16 81.3434 478.83 86.0319 476.118 93.4425V83.1552H463.384V147L476.118 141.226V117.862C479.432 124.441 485.612 128.22 493.976 128.22V128.226Z" fill="black"/>
</svg>
