<svg width="31" height="35" viewBox="0 0 31 35" fill="none" xmlns="http://www.w3.org/2000/svg">
<path d="M30.2024 13.4406C30.2024 11.4414 27.6967 9.54681 23.8553 8.37191C24.7418 4.45969 24.3478 1.34713 22.6118 0.350623C22.2116 0.116874 21.7438 0.0061519 21.2327 0.0061519V1.37789C21.516 1.37789 21.7438 1.43325 21.9345 1.53783C22.7719 2.01762 23.135 3.84456 22.8519 6.19435C22.7842 6.77257 22.6733 7.38155 22.5379 8.00284C21.3312 7.70757 20.0139 7.47997 18.6287 7.33234C17.7976 6.19435 16.9358 5.16093 16.0677 4.25669C18.0747 2.39285 19.9585 1.37174 21.2389 1.37174V0C19.5459 0 17.3297 1.20565 15.0889 3.29709C12.848 1.21796 10.6318 0.0246047 8.93882 0.0246047V1.39635C10.2132 1.39635 12.1031 2.41131 14.1101 4.26285C13.2481 5.16708 12.3863 6.19435 11.5675 7.33234C10.1762 7.47997 8.8588 7.70757 7.65217 8.00898C7.51058 7.39385 7.40592 6.79718 7.33205 6.22511C7.04271 3.87532 7.39977 2.04838 8.23085 1.56243C8.41554 1.45171 8.65563 1.40249 8.93882 1.40249V0.0307566C8.4217 0.0307566 7.95382 0.141479 7.54751 0.375229C5.81762 1.37174 5.42979 4.47815 6.32243 8.37807C2.49326 9.55911 0 11.4475 0 13.4406C0 15.4397 2.50558 17.3344 6.34706 18.5092C5.46056 22.4214 5.85455 25.5341 7.5906 26.5306C7.99076 26.7643 8.45863 26.875 8.97576 26.875C10.6687 26.875 12.885 25.6694 15.1258 23.5779C17.3667 25.6571 19.5829 26.8503 21.2758 26.8503C21.7929 26.8503 22.2609 26.7397 22.6672 26.506C24.3971 25.5094 24.7849 22.403 23.8923 18.5031C27.7091 17.3282 30.2024 15.4336 30.2024 13.4406ZM22.187 9.33767C21.9592 10.1312 21.6761 10.9493 21.3559 11.7674C21.1035 11.2753 20.8388 10.7832 20.5495 10.2911C20.2662 9.79901 19.9646 9.31921 19.6629 8.85171C20.5372 8.98088 21.3805 9.14082 22.187 9.33767ZM19.3675 15.8888C18.8872 16.7192 18.3947 17.5065 17.8838 18.2386C16.9666 18.3185 16.0369 18.3616 15.1012 18.3616C14.1717 18.3616 13.242 18.3185 12.3309 18.2447C11.82 17.5127 11.3213 16.7315 10.8411 15.9073C10.3732 15.1015 9.94844 14.2833 9.56059 13.459C9.94228 12.6348 10.3732 11.8105 10.8349 11.0047C11.3151 10.1742 11.8077 9.38687 12.3186 8.65487C13.2358 8.57489 14.1655 8.53183 15.1012 8.53183C16.0307 8.53183 16.9604 8.57489 17.8714 8.64871C18.3824 9.38073 18.8812 10.1619 19.3613 10.9862C19.8292 11.792 20.2539 12.6102 20.6417 13.4344C20.2539 14.2587 19.8292 15.083 19.3675 15.8888ZM21.3559 15.0892C21.6884 15.9134 21.9715 16.7377 22.2055 17.5373C21.399 17.7342 20.5495 17.9002 19.6691 18.0295C19.9708 17.5558 20.2724 17.0698 20.5556 16.5716C20.8388 16.0795 21.1035 15.5812 21.3559 15.0892ZM15.1135 21.6526C14.541 21.0621 13.9685 20.4039 13.4021 19.6842C13.9561 19.7088 14.5225 19.7271 15.095 19.7271C15.6737 19.7271 16.2462 19.7148 16.8064 19.6842C16.2524 20.4039 15.6799 21.0621 15.1135 21.6526ZM10.5333 18.0295C9.6591 17.9002 8.81569 17.7404 8.00923 17.5435C8.23701 16.75 8.52019 15.9319 8.84032 15.1138C9.09272 15.6058 9.35744 16.0979 9.64678 16.59C9.93613 17.0821 10.2316 17.5619 10.5333 18.0295ZM15.0827 5.2286C15.6552 5.81912 16.2278 6.47731 16.7941 7.19701C16.2401 7.1724 15.6737 7.15395 15.1012 7.15395C14.5225 7.15395 13.95 7.16626 13.3898 7.19701C13.9438 6.47731 14.5163 5.81912 15.0827 5.2286ZM10.5271 8.85171C10.2255 9.32536 9.92381 9.81131 9.64063 10.3096C9.35744 10.8017 9.09272 11.2938 8.84032 11.7859C8.50789 10.9616 8.22469 10.1373 7.99076 9.33767C8.79723 9.14697 9.64679 8.98088 10.5271 8.85171ZM4.95575 16.5531C2.77645 15.6243 1.36667 14.4064 1.36667 13.4406C1.36667 12.4748 2.77645 11.2507 4.95575 10.328C5.48519 10.1004 6.06387 9.89742 6.66102 9.70673C7.01192 10.9124 7.47364 12.1673 8.04616 13.4529C7.47979 14.7323 7.02424 15.981 6.67949 17.1806C6.07003 16.9899 5.49135 16.7808 4.95575 16.5531ZM8.2678 25.3433C7.43055 24.8636 7.06733 23.0366 7.35052 20.6867C7.41823 20.1086 7.52904 19.4996 7.66448 18.8782C8.8711 19.1735 10.1885 19.4012 11.5737 19.5489C12.4048 20.6867 13.2666 21.7202 14.1347 22.6245C12.1277 24.4883 10.2439 25.5094 8.96345 25.5094C8.68641 25.5033 8.45249 25.4478 8.2678 25.3433ZM22.8704 20.6561C23.1596 23.0059 22.8026 24.8328 21.9715 25.3187C21.7868 25.4294 21.5468 25.4786 21.2635 25.4786C19.9893 25.4786 18.0993 24.4636 16.0923 22.6122C16.9542 21.7079 17.816 20.6807 18.6349 19.5427C20.0262 19.3951 21.3435 19.1674 22.5502 18.8661C22.6918 19.4873 22.8026 20.084 22.8704 20.6561ZM25.2405 16.5531C24.711 16.7808 24.1323 16.9837 23.5351 17.1744C23.1843 15.9687 22.7226 14.7138 22.1501 13.4283C22.7164 12.1488 23.172 10.9001 23.5168 9.70059C24.1261 9.89128 24.7048 10.1004 25.2467 10.328C27.426 11.2569 28.8356 12.4748 28.8356 13.4406C28.8295 14.4064 27.4198 15.6305 25.2405 16.5531Z" fill="#61DAFB"/>
<path d="M15.0836 16.2511C16.6363 16.2511 17.8948 14.9926 17.8948 13.44C17.8948 11.8875 16.6363 10.6289 15.0836 10.6289C13.5311 10.6289 12.2725 11.8875 12.2725 13.44C12.2725 14.9926 13.5311 16.2511 15.0836 16.2511Z" fill="#61DAFB"/>
<path d="M6.73877 29.5977H8.39505C8.77074 29.5977 9.08803 29.655 9.34689 29.7695C9.60804 29.884 9.8062 30.0535 9.94137 30.2781C10.0788 30.5002 10.1475 30.7739 10.1475 31.0993C10.1475 31.3284 10.1006 31.5379 10.0067 31.7281C9.91502 31.9161 9.78216 32.0763 9.60804 32.2093C9.43624 32.3398 9.23006 32.4371 8.98952 32.5013L8.80397 32.5735H7.24734L7.24047 32.0339H8.41566C8.65391 32.0339 8.85207 31.9927 9.01014 31.9102C9.1682 31.8254 9.28734 31.7121 9.36751 31.57C9.44769 31.428 9.48777 31.2711 9.48777 31.0993C9.48777 30.9069 9.44998 30.7385 9.37438 30.5942C9.29879 30.4499 9.17966 30.3388 9.01701 30.2608C8.85665 30.1807 8.64933 30.1406 8.39505 30.1406H7.40198V34.6008H6.73877V29.5977ZM9.66302 34.6008L8.4466 32.3329L9.13728 32.3295L10.3709 34.5596V34.6008H9.66302ZM12.522 34.6696C12.2632 34.6696 12.0283 34.6261 11.8176 34.539C11.6091 34.4497 11.4293 34.3248 11.2781 34.1644C11.1292 34.0041 11.0146 33.814 10.9344 33.594C10.8543 33.3741 10.8142 33.1335 10.8142 32.8724V32.7281C10.8142 32.4257 10.8588 32.1565 10.9482 31.9206C11.0375 31.6824 11.1589 31.4808 11.3124 31.3158C11.4659 31.1509 11.6401 31.026 11.8348 30.9412C12.0295 30.8565 12.2311 30.8141 12.4396 30.8141C12.7052 30.8141 12.9344 30.8599 13.1267 30.9515C13.3214 31.0431 13.4807 31.1714 13.6044 31.3363C13.7281 31.4991 13.8198 31.6914 13.8793 31.9137C13.9388 32.1336 13.9686 32.3741 13.9686 32.6353V32.9205H11.1922V32.4016H13.333V32.3535C13.3238 32.1886 13.2895 32.0282 13.2298 31.8725C13.1726 31.7167 13.081 31.5884 12.9549 31.4877C12.829 31.3868 12.6571 31.3363 12.4396 31.3363C12.2951 31.3363 12.1623 31.3673 12.0409 31.4292C11.9195 31.4887 11.8153 31.5781 11.7282 31.6972C11.6411 31.8164 11.5737 31.9618 11.5254 32.1336C11.4773 32.3055 11.4533 32.5035 11.4533 32.7281V32.8724C11.4533 33.0488 11.4773 33.2149 11.5254 33.3706C11.5759 33.5241 11.648 33.6593 11.742 33.7761C11.8381 33.893 11.9538 33.9846 12.089 34.051C12.2265 34.1175 12.3822 34.1507 12.5564 34.1507C12.7809 34.1507 12.971 34.1048 13.1267 34.0132C13.2826 33.9216 13.4188 33.799 13.5356 33.6455L13.9205 33.9513C13.8403 34.0727 13.7384 34.1886 13.6147 34.2985C13.4911 34.4085 13.3387 34.4978 13.1577 34.5665C12.9789 34.6351 12.7671 34.6696 12.522 34.6696ZM16.9032 33.9651V32.0511C16.9032 31.9045 16.8734 31.7774 16.8139 31.6697C16.7566 31.5598 16.6695 31.475 16.5526 31.4154C16.4359 31.3558 16.2915 31.3261 16.1197 31.3261C15.9595 31.3261 15.8186 31.3536 15.697 31.4086C15.578 31.4636 15.484 31.5357 15.4154 31.625C15.349 31.7143 15.3157 31.8106 15.3157 31.9137H14.68C14.68 31.7809 14.7143 31.6491 14.783 31.5186C14.8518 31.388 14.9503 31.2699 15.0786 31.1645C15.2091 31.0569 15.3649 30.9722 15.5459 30.9103C15.7291 30.8462 15.9331 30.8141 16.1575 30.8141C16.4279 30.8141 16.6661 30.8599 16.8723 30.9515C17.0808 31.0431 17.2433 31.1818 17.3602 31.3673C17.4794 31.5505 17.5389 31.7809 17.5389 32.058V33.7899C17.5389 33.9135 17.5492 34.0453 17.5699 34.185C17.5927 34.3248 17.626 34.4451 17.6696 34.5459V34.6008H17.0063C16.9742 34.5275 16.9491 34.4302 16.9308 34.3088C16.9124 34.185 16.9032 34.0705 16.9032 33.9651ZM17.0132 32.3467L17.0201 32.7934H16.3774C16.1965 32.7934 16.035 32.8082 15.8929 32.8381C15.751 32.8655 15.6318 32.9079 15.5356 32.9652C15.4394 33.0224 15.3661 33.0947 15.3157 33.1816C15.2652 33.2664 15.24 33.3661 15.24 33.4806C15.24 33.5974 15.2664 33.704 15.319 33.8002C15.3718 33.8964 15.4509 33.9732 15.5563 34.0304C15.6639 34.0853 15.7955 34.1129 15.9514 34.1129C16.1461 34.1129 16.3179 34.0717 16.4667 33.9892C16.6157 33.9068 16.7337 33.8059 16.8208 33.6869C16.9101 33.5677 16.9582 33.452 16.9651 33.3397L17.2365 33.6455C17.2205 33.7418 17.1769 33.8483 17.106 33.9651C17.035 34.082 16.9399 34.1943 16.8208 34.3019C16.704 34.4073 16.5642 34.4954 16.4015 34.5665C16.2411 34.6351 16.0602 34.6696 15.8586 34.6696C15.6066 34.6696 15.3856 34.6203 15.1954 34.5218C15.0075 34.4233 14.8609 34.2916 14.7556 34.1267C14.6525 33.9594 14.6009 33.7728 14.6009 33.5665C14.6009 33.3672 14.6399 33.192 14.7178 33.0407C14.7956 32.8872 14.9079 32.7601 15.0546 32.6594C15.2012 32.5563 15.3775 32.4783 15.5837 32.4257C15.7898 32.373 16.0202 32.3467 16.2744 32.3467H17.0132ZM20.0268 34.1472C20.178 34.1472 20.3177 34.1163 20.446 34.0544C20.5743 33.9927 20.6797 33.9078 20.7621 33.8002C20.8446 33.6902 20.8915 33.5655 20.903 33.4256H21.5077C21.4963 33.6455 21.4218 33.8506 21.2845 34.0408C21.1493 34.2286 20.9717 34.3809 20.7518 34.4978C20.5319 34.6123 20.2903 34.6696 20.0268 34.6696C19.7474 34.6696 19.5032 34.6203 19.2949 34.5218C19.0886 34.4233 18.9168 34.2881 18.7794 34.1163C18.6442 33.9445 18.5423 33.7476 18.4736 33.5253C18.4072 33.3008 18.3739 33.0637 18.3739 32.8139V32.6696C18.3739 32.42 18.4072 32.1841 18.4736 31.9618C18.5423 31.7373 18.6442 31.5391 18.7794 31.3673C18.9168 31.1955 19.0886 31.0604 19.2949 30.9619C19.5032 30.8634 19.7474 30.8141 20.0268 30.8141C20.3177 30.8141 20.5719 30.8736 20.7896 30.9928C21.0072 31.1097 21.1779 31.2699 21.3016 31.4739C21.4275 31.6755 21.4963 31.9045 21.5077 32.161H20.903C20.8915 32.0075 20.848 31.869 20.7725 31.7452C20.6992 31.6217 20.5983 31.5231 20.47 31.4498C20.3441 31.3742 20.1963 31.3363 20.0268 31.3363C19.8321 31.3363 19.6682 31.3753 19.5354 31.4532C19.4049 31.5288 19.3006 31.6319 19.2226 31.7626C19.1471 31.8908 19.0921 32.0339 19.0577 32.192C19.0257 32.3478 19.0096 32.5071 19.0096 32.6696V32.8139C19.0096 32.9767 19.0257 33.1371 19.0577 33.2951C19.0898 33.4531 19.1436 33.5962 19.2193 33.7245C19.2971 33.8528 19.4013 33.956 19.532 34.0339C19.6648 34.1094 19.8298 34.1472 20.0268 34.1472ZM23.7792 30.8829V31.3708H21.769V30.8829H23.7792ZM22.4493 29.9791H23.085V33.68C23.085 33.8059 23.1045 33.9011 23.1435 33.9651C23.1824 34.0293 23.2328 34.0717 23.2947 34.0922C23.3565 34.1129 23.423 34.1232 23.4939 34.1232C23.5467 34.1232 23.6017 34.1186 23.6589 34.1094C23.7184 34.098 23.7631 34.0889 23.7929 34.082L23.7964 34.6008C23.7459 34.6168 23.6795 34.6318 23.597 34.6456C23.5168 34.6615 23.4194 34.6696 23.3049 34.6696C23.1492 34.6696 23.006 34.6387 22.8754 34.5768C22.7449 34.5149 22.6406 34.4119 22.5628 34.2676C22.4871 34.121 22.4493 33.9239 22.4493 33.6764V29.9791Z" fill="#61DAFB"/>
</svg>
