<svg width="37" height="26" viewBox="0 0 37 26" fill="none" xmlns="http://www.w3.org/2000/svg">
<path d="M31.8514 14.9299C30.5577 14.9367 29.4375 15.228 28.498 15.6617C28.1511 15.018 27.8041 14.4557 27.7463 14.0356C27.6813 13.5478 27.6018 13.2497 27.6813 12.667C27.7608 12.0843 28.1221 11.2577 28.1221 11.19C28.1149 11.129 28.0426 10.8309 27.2982 10.8241C26.5538 10.8173 25.9106 10.9596 25.8383 11.1426C25.7661 11.3255 25.6215 11.7456 25.5276 12.1792C25.3975 12.816 24.0388 15.0722 23.2655 16.2579C23.0125 15.7972 22.7957 15.3906 22.7523 15.0654C22.6873 14.5776 22.6078 14.2795 22.6873 13.6968C22.7668 13.1142 23.1282 12.2876 23.1282 12.2198C23.1209 12.1588 23.0487 11.8607 22.3043 11.854C21.5599 11.8472 20.9166 11.9895 20.8444 12.1724C20.7721 12.3553 20.6926 12.7889 20.5336 13.209C20.3818 13.6291 18.575 17.3961 18.1053 18.3785C17.8668 18.8799 17.6572 19.2796 17.5054 19.5507C17.3536 19.8217 17.4982 19.571 17.4837 19.5981C17.3536 19.8284 17.2814 19.9572 17.2814 19.9572V19.9639C17.1802 20.1333 17.0718 20.2959 17.0212 20.2959C16.985 20.2959 16.9128 19.842 17.0356 19.2187C17.303 17.911 17.9535 15.8717 17.9463 15.7972C17.9463 15.7633 18.0691 15.4042 17.5271 15.2213C16.9995 15.0383 16.8116 15.3432 16.7682 15.3432C16.7249 15.3432 16.6887 15.4516 16.6887 15.4516C16.6887 15.4516 17.2741 13.1548 15.5685 13.1548C14.4989 13.1548 13.0245 14.2456 12.2946 15.2416C11.832 15.4787 10.8492 15.9801 9.80843 16.5153C9.41094 16.7186 8.99899 16.9354 8.60872 17.1319L8.52922 17.0506C6.46224 14.9841 2.63906 13.5207 2.79806 10.7428C2.85587 9.7333 3.23169 7.07062 10.1409 3.8456C15.7998 1.20325 20.3312 1.9282 21.119 3.54071C22.2392 5.8443 18.6979 10.1263 12.8149 10.7428C10.5745 10.98 9.39648 10.1669 9.10017 9.86203C8.7894 9.54359 8.74604 9.53004 8.6304 9.59102C8.44249 9.68587 8.55813 9.97044 8.6304 10.1398C8.80385 10.5667 9.52657 11.3255 10.7552 11.7049C11.832 12.0369 14.4627 12.2198 17.6427 11.068C21.2057 9.77395 23.9882 6.18306 23.1715 3.18162C22.3404 0.125979 16.9344 -0.87676 11.8248 0.823831C8.78217 1.84012 5.48657 3.42553 3.11605 5.50554C0.297447 7.97173 -0.150639 10.1263 0.0372681 11.0206C0.694943 14.2118 5.38539 16.2918 7.26446 17.8297C7.17051 17.8772 7.08378 17.9246 7.00428 17.9652C6.06475 18.3989 2.48729 20.1537 1.59111 22.0101C0.579308 24.1104 1.75011 25.6213 2.53065 25.8246C4.94453 26.4547 7.41623 25.3232 8.75326 23.46C10.0831 21.5968 9.92407 19.178 9.30976 18.0737L9.28808 18.033L10.0252 17.6265C10.5022 17.3622 10.972 17.1183 11.384 16.9083C11.1527 17.4978 10.9865 18.1956 10.8997 19.2119C10.7986 20.4043 11.3189 21.9491 12.0055 22.5589C12.309 22.8231 12.6704 22.8299 12.8944 22.8299C13.6894 22.8299 14.0508 22.2133 14.4483 21.4748C14.9397 20.5737 15.3734 19.5303 15.3734 19.5303C15.3734 19.5303 14.8313 22.3556 16.3129 22.3556C16.8549 22.3556 17.397 21.6984 17.6427 21.3597V21.3664C17.6427 21.3664 17.6572 21.3461 17.6861 21.2987C17.7439 21.2174 17.7728 21.1699 17.7728 21.1699V21.1564C17.9896 20.8041 18.4738 19.9978 19.1966 18.6631C20.1289 16.9422 21.025 14.7876 21.025 14.7876C21.025 14.7876 21.1118 15.3161 21.3792 16.1834C21.5382 16.6983 21.8851 17.2606 22.1525 17.8094C21.9357 18.094 21.8056 18.2566 21.8056 18.2566L21.8128 18.2634C21.6394 18.4802 21.4442 18.7105 21.2419 18.9409C20.5047 19.7675 19.623 20.7092 19.5073 20.9802C19.37 21.2987 19.3989 21.5358 19.6663 21.7255C19.8615 21.861 20.2084 21.8881 20.577 21.861C21.2419 21.8204 21.7044 21.6645 21.9357 21.5697C22.297 21.4477 22.709 21.2648 23.1065 20.9938C23.8292 20.4924 24.2701 19.781 24.2267 18.8325C24.205 18.3108 24.0243 17.7959 23.8003 17.308C23.8653 17.22 23.9304 17.1319 23.9954 17.037C25.1373 15.4719 26.019 13.751 26.019 13.751C26.019 13.751 26.1058 14.2795 26.3732 15.1467C26.5105 15.5871 26.7851 16.0682 27.0308 16.5424C25.9612 17.3622 25.2891 18.3108 25.0578 18.9341C24.6314 20.0859 24.9639 20.6076 25.5926 20.7296C25.8745 20.7838 26.2792 20.6618 26.5828 20.5398C26.9586 20.4247 27.4139 20.2282 27.8331 19.9368C28.5558 19.4355 29.2496 18.7376 29.2135 17.7959C29.1918 17.3622 29.0689 16.9354 28.9027 16.5289C29.8133 16.1766 30.9913 15.9733 32.4874 16.1427C35.7035 16.495 36.3395 18.3785 36.2166 19.1645C36.0937 19.9504 35.4216 20.384 35.1976 20.5195C34.9735 20.6483 34.9013 20.6957 34.9229 20.7905C34.9518 20.9328 35.053 20.926 35.2482 20.8989C35.5156 20.8583 36.9393 20.2553 36.9971 18.8054C37.0839 16.9422 35.1976 14.9096 31.8514 14.9299ZM7.04765 22.7689C5.98525 23.8597 4.48922 24.273 3.85323 23.9207C3.16664 23.5481 3.43405 21.9423 4.74217 20.7838C5.53716 20.0791 6.57065 19.4287 7.25001 19.029C7.40178 18.9409 7.63305 18.8122 7.90768 18.6563C7.95105 18.6292 7.97995 18.6157 7.97995 18.6157C8.03054 18.5886 8.08836 18.5547 8.14618 18.5208C8.6304 20.174 8.16786 21.6239 7.04765 22.7689ZM14.8169 17.8162C14.4483 18.6631 13.6678 20.838 13.198 20.716C12.7933 20.6144 12.5475 18.968 13.1185 17.3419C13.4076 16.5221 14.0219 15.5465 14.3832 15.1671C14.9686 14.5573 15.6046 14.354 15.7636 14.6047C15.9515 14.9299 15.0481 17.2877 14.8169 17.8162ZM21.2274 20.6889C21.0684 20.7634 20.9239 20.8176 20.8588 20.777C20.8082 20.7499 20.9239 20.6483 20.9239 20.6483C20.9239 20.6483 21.7261 19.842 22.0441 19.4694C22.2248 19.2525 22.4416 19.0019 22.6728 18.7173V18.7986C22.6728 19.7742 21.6755 20.4247 21.2274 20.6889ZM26.1708 19.632C26.0552 19.5507 26.0696 19.3 26.4599 18.514C26.6117 18.2024 26.9586 17.6807 27.5584 17.1861C27.6307 17.3893 27.6741 17.5858 27.6668 17.7688C27.6596 18.9883 26.7345 19.4423 26.1708 19.632Z" fill="#CF649A"/>
</svg>
