<svg width="40" height="32" viewBox="0 0 40 32" fill="none" xmlns="http://www.w3.org/2000/svg">
<rect x="13" y="2" width="13" height="14" fill="white"/>
<path d="M2.08792 29.5467C1.70162 29.5483 1.31752 29.488 0.949979 29.368C0.597463 29.2525 0.273538 29.0623 0 28.81L0.497043 27.9617C0.750092 28.1378 1.02032 28.2874 1.30351 28.4081C1.54045 28.5122 1.79625 28.5654 2.05467 28.5645C2.23109 28.5645 2.37495 28.531 2.47436 28.4639C2.57376 28.4081 2.61787 28.3078 2.61787 28.1849C2.61787 28.0733 2.56291 27.9617 2.43025 27.8946C2.22266 27.7941 2.00384 27.7191 1.7785 27.6714L1.00494 27.4146C0.795269 27.3253 0.6297 27.2359 0.497043 27.1356C0.372762 27.0526 0.273477 26.9366 0.210013 26.8005C0.149956 26.6596 0.119904 26.5075 0.121801 26.3541C0.118571 26.1373 0.163519 25.9224 0.253347 25.7254C0.343174 25.5284 0.475599 25.3541 0.640897 25.2155C0.795268 25.0817 0.994086 24.981 1.21496 24.903C1.43617 24.8249 1.67909 24.7914 1.93321 24.7914C2.27588 24.7914 2.59582 24.8359 2.89404 24.9252C3.19261 25.0259 3.47964 25.1933 3.75581 25.4387L3.21466 26.2761C3.00083 26.1215 2.77118 25.9906 2.52966 25.8855C2.34149 25.803 2.13835 25.761 1.93321 25.7622C1.78969 25.7622 1.65703 25.7848 1.55763 25.8519C1.44702 25.9077 1.40292 26.008 1.40292 26.1422C1.40292 26.2757 1.45822 26.3654 1.56848 26.4322C1.67909 26.4993 1.89996 26.5664 2.19818 26.6444C2.47503 26.7149 2.74781 26.8005 3.01584 26.9011C3.23638 26.9902 3.41348 27.0908 3.55699 27.1914C3.82842 27.3934 3.97872 27.7221 3.95463 28.062C3.95463 28.5197 3.78906 28.8767 3.44639 29.1448C3.11525 29.4128 2.67317 29.5467 2.08792 29.5467ZM7.55573 29.2228C7.36811 29.3012 7.14723 29.3793 6.90431 29.4464C6.66105 29.5131 6.41813 29.558 6.16401 29.558C5.98724 29.558 5.83253 29.5357 5.67782 29.4909C5.52751 29.4465 5.38826 29.3705 5.26933 29.2677C5.15873 29.1783 5.07051 29.0445 5.00401 28.8993C4.92929 28.7191 4.89177 28.5254 4.89375 28.33V25.93H4.31901V24.8807H4.90427V23.418H6.27393V24.8694H7.20186V25.9296H6.27393V27.8497C6.27393 27.9949 6.30718 28.1065 6.38454 28.1845C6.46189 28.2403 6.5613 28.2735 6.67191 28.2735C6.78217 28.2735 6.89244 28.2626 6.99219 28.2181C7.10245 28.1845 7.20186 28.151 7.27922 28.1065L7.54453 29.2225H7.55539L7.55573 29.2228ZM10.1407 29.5467C9.78916 29.5529 9.43992 29.4884 9.11335 29.357C8.82899 29.2433 8.57172 29.0701 8.35845 28.8488C8.14519 28.6276 7.98077 28.3633 7.87601 28.0733C7.65892 27.4903 7.65892 26.8477 7.87601 26.2648C7.98077 25.9748 8.14519 25.7105 8.35845 25.4892C8.57172 25.268 8.82899 25.0948 9.11335 24.981C9.41192 24.8585 9.75391 24.7914 10.1407 24.7914C10.4732 24.7756 10.8051 24.8323 11.1139 24.9575C11.4227 25.0827 11.7012 25.2736 11.9304 25.5171C12.1401 25.729 12.2948 25.9858 12.4054 26.2648C12.6315 26.8498 12.6315 27.4992 12.4054 28.0842C12.3 28.3708 12.1365 28.6321 11.9254 28.8513C11.7142 29.0705 11.4601 29.2429 11.1792 29.3574C10.8492 29.4903 10.496 29.5544 10.1407 29.5467ZM9.1466 27.1801C9.1466 27.5375 9.23482 27.8275 9.42278 28.0397C9.62159 28.2629 9.86451 28.3745 10.1519 28.3745C10.2889 28.3772 10.4246 28.3484 10.549 28.2904C10.6734 28.2324 10.783 28.1467 10.8698 28.0397C10.958 27.9281 11.0245 27.8165 11.0798 27.6601C11.1348 27.5149 11.1568 27.3475 11.1568 27.1801C11.1568 26.8118 11.0574 26.5215 10.8698 26.3096C10.7831 26.2026 10.6734 26.1168 10.549 26.0587C10.4247 26.0007 10.2889 25.9719 10.1519 25.9745C10.0152 25.9742 9.8801 26.004 9.75604 26.0619C9.63197 26.1198 9.52194 26.2043 9.43363 26.3096C9.34542 26.4212 9.26806 26.5328 9.2131 26.6889C9.16321 26.8476 9.14072 27.0138 9.1466 27.1801ZM16.1391 26.0751C15.8077 26.0751 15.4982 26.1309 15.2221 26.2425C14.9788 26.3254 14.7717 26.4913 14.6365 26.7115V29.4686H13.2556V24.8807H14.5262V25.7961C14.6809 25.4836 14.8797 25.2381 15.1335 25.0704C15.3768 24.8917 15.6309 24.8023 15.9071 24.7914H16.0506L16.1388 24.8023L16.1391 26.0751ZM16.7464 30.1495C16.9385 30.217 17.1396 30.2546 17.3429 30.2611C17.5088 30.2611 17.6415 30.2053 17.7409 30.0934C17.8291 29.9821 17.9064 29.7589 17.9838 29.4686L16.2603 24.8807H17.6852L18.7349 28.2629L19.6517 24.8807H20.9443L19.2099 30.2053C19.0792 30.6412 18.7908 31.0117 18.4021 31.2433C18.0134 31.4748 17.5526 31.5506 17.1112 31.4555C16.9858 31.4322 16.8635 31.3948 16.7464 31.3439V30.1495ZM24.214 29.547C23.8713 29.547 23.5625 29.4796 23.3081 29.3235C23.0499 29.18 22.8358 28.9675 22.6896 28.7093V29.4686H21.4855V23.0835H22.8772V25.6287C23.0253 25.3666 23.2413 25.1502 23.5021 25.0027C23.7629 24.8551 24.0586 24.7821 24.3575 24.7914C24.6448 24.7914 24.9098 24.8472 25.1531 24.981C25.396 25.0926 25.5948 25.2713 25.7824 25.4836C26.0505 25.8596 26.2264 26.2944 26.2956 26.7524C26.3648 27.2103 26.3253 27.6782 26.1804 28.1178C26.0762 28.3964 25.9227 28.6537 25.7275 28.8771C25.5358 29.0895 25.302 29.2588 25.0413 29.3742C24.7805 29.4896 24.4986 29.5487 24.214 29.547ZM23.8272 28.3745C24.046 28.3749 24.2595 28.3062 24.4377 28.1781C24.616 28.05 24.7501 27.8689 24.8213 27.6601C24.9009 27.4389 24.9235 27.201 24.8868 26.9686C24.8502 26.7362 24.7554 26.5171 24.6116 26.3319C24.5265 26.2186 24.4162 26.1271 24.2895 26.065C24.1628 26.0029 24.0233 25.9719 23.8825 25.9745C23.6728 25.9745 23.474 26.0529 23.286 26.198C23.1043 26.3568 22.9608 26.5552 22.8663 26.7783V27.7385C22.9535 27.9245 23.091 28.0819 23.263 28.1925C23.435 28.3031 23.6344 28.3624 23.8384 28.3636L23.8272 28.3745ZM27.0086 23.0835H28.3894V27.8271C28.3894 28.1845 28.5333 28.3519 28.8315 28.3519C28.989 28.3523 29.1447 28.3143 29.2845 28.2403L29.4721 29.2786C29.0852 29.4498 28.6683 29.5408 28.2459 29.5463C27.8483 29.5463 27.5389 29.4347 27.3292 29.2338C27.108 29.0106 26.9977 28.7203 26.9977 28.3184V23.0835H27.0086ZM32.0791 29.5467C31.7276 29.5529 31.3783 29.4884 31.0518 29.357C30.7657 29.244 30.5066 29.0712 30.2914 28.8499C30.0762 28.6287 29.9098 28.364 29.8032 28.0733C29.6464 27.6425 29.6067 27.1772 29.6883 26.7257C29.77 26.2742 29.9699 25.853 30.2674 25.5058C30.4884 25.2811 30.7513 25.1028 31.0409 24.981C31.3388 24.8585 31.6815 24.7914 32.0679 24.7914C32.4004 24.7756 32.7323 24.8323 33.0411 24.9575C33.3499 25.0827 33.6284 25.2736 33.8576 25.5171C34.0785 25.729 34.222 25.9858 34.3326 26.2648C34.4954 26.6946 34.5383 27.1613 34.4565 27.614C34.3746 28.0667 34.1712 28.4881 33.8685 28.8322C33.6525 29.0628 33.3884 29.2421 33.0952 29.357C32.7687 29.4884 32.4194 29.5529 32.0679 29.5467H32.0791ZM31.0738 27.1801C31.0738 27.5375 31.162 27.8275 31.35 28.0397C31.5488 28.2629 31.7917 28.3745 32.0791 28.3745C32.2159 28.3764 32.3515 28.3473 32.4757 28.2893C32.5999 28.2314 32.7097 28.1461 32.797 28.0397C32.8852 27.9281 32.9517 27.8165 33.007 27.6601C33.0623 27.5149 33.0844 27.3475 33.0844 27.1801C33.0844 26.8118 32.985 26.5215 32.797 26.3096C32.7103 26.2026 32.6006 26.1168 32.4763 26.0587C32.3519 26.0007 32.2161 25.9719 32.0791 25.9745C31.9425 25.9742 31.8074 26.0041 31.6834 26.062C31.5594 26.1199 31.4495 26.2044 31.3612 26.3096C31.273 26.4212 31.1953 26.5328 31.14 26.6889C31.085 26.8453 31.0738 27.0015 31.0738 27.1801ZM38.2428 29.4686L37.0611 27.6156L36.5749 28.1291V29.4686H35.194V23.0835H36.5749V26.7783L38.1104 24.8807H39.5795L37.9449 26.8563L39.7125 29.4683H38.2431L38.2428 29.4686Z" fill="#B3B3B3"/>
<path d="M21.3162 9.58661H17.2155V11.5427H21.2179C21.4545 11.5427 21.6714 11.4449 21.849 11.2887C22.0063 11.1318 22.1053 10.8971 22.1053 10.6039C22.1107 10.3514 22.0346 10.1042 21.8883 9.89976C21.7304 9.70364 21.5528 9.58661 21.3162 9.58661ZM21.4545 7.21901C21.6321 7.10198 21.7107 6.84734 21.7107 6.5149C21.7107 6.22168 21.6321 6.00627 21.4938 5.86931C21.3511 5.7449 21.1695 5.67566 20.9813 5.67383H17.2148V7.43442H20.9026C21.0993 7.43442 21.2965 7.33668 21.4545 7.21901Z" fill="#0AB3AF"/>
<path d="M27.9668 0H12.0627C11.5559 0 11.1509 0.404049 11.1509 0.88916V16.7746C11.1509 17.2604 11.5559 17.5633 12.0426 17.5633H14.3926V20.7366L17.3103 17.5834H27.9674C28.4535 17.5834 28.7574 17.2805 28.7574 16.7753V0.909268C28.7574 0.424157 28.4535 0.0201082 27.9473 0.0201082L27.9661 0H27.9668ZM25.2934 12.8743C25.0846 13.2411 24.7846 13.5476 24.4223 13.7641C24.0374 14.006 23.6122 14.2291 23.1255 14.3296C22.6395 14.4509 22.1126 14.5521 21.5656 14.5521H14.3926V3.23365H22.5377C22.9428 3.23365 23.2869 3.31471 23.6116 3.49631C23.9149 3.65844 24.1988 3.88026 24.4217 4.14355C24.8755 4.69518 25.1195 5.38969 25.1106 6.1041C25.1106 6.62942 24.9687 7.13464 24.7049 7.61975C24.4316 8.108 24.0043 8.49184 23.4898 8.71125C24.1379 8.89285 24.6447 9.21647 25.029 9.68084C25.3939 10.166 25.5766 10.7931 25.5766 11.5811C25.5766 12.0863 25.4749 12.5111 25.2727 12.8743H25.2928H25.2934Z" fill="#0AB3AF"/>
</svg>
