<svg width="42" height="34" viewBox="0 0 42 34" fill="none" xmlns="http://www.w3.org/2000/svg">
<path fill-rule="evenodd" clip-rule="evenodd" d="M2.37119 32.2166C1.92525 32.2182 1.48138 32.1543 1.05291 32.0268C0.630248 31.9004 0.279813 31.7255 0 31.5014L0.428012 30.5214C1.01011 30.9397 1.6639 31.1483 2.38831 31.1483C2.76496 31.1483 3.0544 31.0854 3.25717 30.9584C3.45994 30.8321 3.56106 30.6571 3.56106 30.4331C3.56106 30.2333 3.4685 30.0772 3.28285 29.9651C3.0972 29.8537 2.76763 29.7444 2.29415 29.6385C1.76341 29.527 1.33968 29.3912 1.02295 29.2323C0.70622 29.0734 0.475093 28.878 0.329569 28.6452C0.184045 28.4134 0.111283 28.1264 0.111283 27.7843C0.111283 27.4079 0.212936 27.0724 0.415171 26.7777C0.617942 26.4836 0.902036 26.2524 1.26692 26.0846C1.63233 25.9169 2.05446 25.833 2.53383 25.833C2.96184 25.833 3.37381 25.8981 3.77079 26.0273C4.16723 26.1569 4.48236 26.3308 4.71669 26.5482L4.28868 27.5282C3.73494 27.1105 3.15284 26.9019 2.54239 26.9019C2.19463 26.9019 1.92017 26.9714 1.72061 27.1094C1.52105 27.2479 1.421 27.4377 1.421 27.6789C1.421 27.8202 1.45952 27.9366 1.53656 28.0277C1.61361 28.1193 1.74201 28.1998 1.92177 28.2705C2.10154 28.3411 2.35674 28.415 2.68792 28.4912C3.46369 28.6678 4.02171 28.8946 4.36144 29.1711C4.70118 29.4481 4.87078 29.8305 4.87078 30.3189C4.87078 30.9077 4.65142 31.3712 4.21164 31.7095C3.77239 32.0483 3.15873 32.2166 2.37119 32.2166ZM7.96959 31.2277C8.10066 31.2277 8.23816 31.2189 8.38048 31.2012L8.312 32.1725C8.14748 32.196 7.98159 32.2078 7.8155 32.2078C7.17616 32.2078 6.70963 32.0638 6.4159 31.7752C6.12164 31.4871 5.97505 31.0484 5.97505 30.4596V28.8002H5.17895V27.802H5.97505V26.5305H7.26765V27.802H8.32055V28.8002H7.26765V30.4513C7.26765 30.9695 7.50198 31.2283 7.96959 31.2283V31.2277ZM10.9742 32.2078C10.5291 32.2078 10.138 32.1151 9.80148 31.9297C9.47268 31.7522 9.20177 31.479 9.0225 31.1439C8.84005 30.8056 8.74857 30.4066 8.74857 29.9475C8.74857 29.4884 8.83952 29.0899 9.0225 28.7511C9.20115 28.4166 9.47234 28.1446 9.80148 27.9697C10.1385 27.7876 10.5291 27.696 10.9742 27.696C11.4194 27.696 11.8105 27.7876 12.147 27.9697C12.484 28.1524 12.7435 28.4128 12.926 28.7511C13.1084 29.0899 13.1999 29.4884 13.1999 29.9475C13.1999 30.4066 13.1089 30.8056 12.926 31.1439C12.7467 31.479 12.4758 31.7522 12.147 31.9297C11.8099 32.1151 11.4194 32.2078 10.9742 32.2078ZM10.9742 31.1924C11.6018 31.1924 11.9159 30.7774 11.9159 29.9475C11.9159 29.5297 11.8345 29.218 11.6719 29.0116C11.5092 28.8057 11.2765 28.7025 10.9742 28.7025C10.3467 28.7025 10.0326 29.1175 10.0326 29.9475C10.0326 30.7774 10.3467 31.1924 10.9742 31.1924ZM16.7781 28.7914L16.0505 28.8709C15.6909 28.9062 15.4373 29.0105 15.2886 29.1837C15.1404 29.3576 15.066 29.5888 15.066 29.8768V32.1377H13.7734V27.8025H15.0147V28.5353C15.226 28.0348 15.662 27.7611 16.3244 27.7142L16.701 27.6877L16.7781 28.7914ZM20.5339 27.8108H21.8008L19.267 33.7264H17.9572L18.7619 31.8988L17.0327 27.8108H18.3767L19.4382 30.5655L20.5339 27.8108ZM24.7969 27.696C25.1623 27.696 25.4844 27.7876 25.7642 27.9697C26.044 28.1524 26.2618 28.4128 26.419 28.7511C26.5758 29.0899 26.6545 29.4828 26.6545 29.9298C26.6545 30.3774 26.5758 30.7736 26.419 31.1174C26.2623 31.4617 26.0424 31.7299 25.7599 31.9214C25.4738 32.1138 25.1384 32.2137 24.7969 32.2083C24.5232 32.2124 24.2528 32.147 24.0093 32.018C23.7844 31.9002 23.5971 31.718 23.47 31.4932V32.1377H22.1946V25.913H23.4872V28.3852C23.6141 28.1661 23.7999 27.9898 24.0222 27.8776C24.2628 27.7544 24.5283 27.6922 24.7969 27.696ZM24.4202 31.193C24.723 31.193 24.9569 31.0826 25.1222 30.8619C25.288 30.6411 25.3704 30.3305 25.3704 29.9304C25.3704 29.5358 25.288 29.234 25.1222 29.0254C24.9563 28.8157 24.723 28.7114 24.4202 28.7114C24.1179 28.7114 23.8841 28.819 23.7183 29.0342C23.5524 29.2489 23.47 29.5529 23.47 29.9475C23.47 30.3481 23.553 30.6555 23.7183 30.8707C23.8841 31.0854 24.1179 31.193 24.4202 31.193ZM29.4622 32.2083C29.0171 32.2083 28.626 32.1151 28.2895 31.9297C27.9607 31.7522 27.6898 31.4789 27.5105 31.1439C27.328 30.8056 27.2366 30.4066 27.2366 29.9475C27.2366 29.4884 27.3275 29.0899 27.5105 28.7511C27.6891 28.4166 27.9603 28.1446 28.2895 27.9697C28.6265 27.7876 29.0171 27.696 29.4622 27.696C29.9073 27.696 30.2984 27.7876 30.635 27.9697C30.972 28.1524 31.2315 28.4128 31.414 28.7511C31.5964 29.0899 31.6879 29.4884 31.6879 29.9475C31.6879 30.4066 31.5969 30.8056 31.414 31.1439C31.2347 31.4789 30.9637 31.7522 30.635 31.9297C30.2979 32.1151 29.9073 32.2083 29.4622 32.2083ZM29.4622 31.193C30.0903 31.193 30.4038 30.7774 30.4038 29.9475C30.4038 29.5297 30.3225 29.218 30.1599 29.0116C29.9972 28.8057 29.7645 28.7025 29.4622 28.7025C28.8346 28.7025 28.5206 29.1175 28.5206 29.9475C28.5206 30.7774 28.8346 31.193 29.4622 31.193ZM34.2816 32.2083C33.8365 32.2083 33.4454 32.1151 33.1089 31.9297C32.7801 31.7522 32.5092 31.479 32.3299 31.1439C32.1475 30.8056 32.056 30.4066 32.056 29.9475C32.056 29.4884 32.1469 29.0899 32.3299 28.7511C32.5086 28.4166 32.7797 28.1446 33.1089 27.9697C33.4459 27.7876 33.8365 27.696 34.2816 27.696C34.7268 27.696 35.1179 27.7876 35.4544 27.9697C35.7914 28.1524 36.0509 28.4128 36.2334 28.7511C36.4158 29.0899 36.5073 29.4884 36.5073 29.9475C36.5073 30.4066 36.4163 30.8056 36.2334 31.1439C36.0541 31.479 35.7832 31.7522 35.4544 31.9297C35.1173 32.1151 34.7268 32.2083 34.2816 32.2083ZM34.2816 31.193C34.9092 31.193 35.2233 30.7774 35.2233 29.9475C35.2233 29.5297 35.1419 29.218 34.9793 29.0116C34.8166 28.8057 34.5839 28.7025 34.2816 28.7025C33.6541 28.7025 33.34 29.1175 33.34 29.9475C33.34 30.7774 33.6541 31.193 34.2816 31.193ZM41.6199 32.1366H40.0363L38.4269 30.2035V32.1372H37.1343V25.913H38.4269V29.6561L39.9763 27.8108H41.5172L39.7538 29.8768L41.6199 32.1383V32.1366Z" fill="#B3B3B3"/>
<path d="M12.175 20.5953L11.4822 2.14562C11.4604 1.53624 11.9284 1.02063 12.5371 0.983434L28.2266 0.00228195C28.5364 -0.01749 28.8406 0.0918909 29.0669 0.304445C29.2933 0.516998 29.4215 0.813758 29.4212 1.12424V21.2267C29.4209 21.5334 29.2953 21.8266 29.0735 22.0385C28.8517 22.2503 28.5531 22.3624 28.2467 22.3486L13.2478 21.6748C12.6636 21.6485 12.1971 21.1797 12.175 20.5953Z" fill="#FF4785"/>
<path fill-rule="evenodd" clip-rule="evenodd" d="M27.1788 0.353027L25.0627 0.490112L24.9598 3.07987C24.9572 3.146 24.9914 3.20777 25.0476 3.23854C25.1038 3.26931 25.1719 3.26357 25.2227 3.2238L26.1865 2.4607L27.0014 3.13013C27.0516 3.1716 27.1204 3.17883 27.1776 3.14866C27.2347 3.11848 27.2699 3.0564 27.2676 2.98962L27.1788 0.353027ZM25.5315 9.02362C25.1449 9.33777 22.2577 9.55139 22.2577 9.10473C22.319 7.39917 21.5874 7.32491 21.1799 7.32491C20.7944 7.32491 20.1438 7.446 20.1438 8.3599C20.1438 9.29093 21.0945 9.81642 22.2106 10.4333C23.7955 11.3095 25.7155 12.3708 25.7155 15.0393C25.7155 17.5982 23.7221 19.0102 21.181 19.0102C18.5578 19.0102 16.2654 17.9033 16.5238 14.066C16.6257 13.6159 19.9609 13.7233 19.9609 14.066C19.9193 15.6494 20.2654 16.1155 21.1394 16.1155C21.8108 16.1155 22.1153 15.7293 22.1153 15.0805C22.1153 14.0969 21.1252 13.5166 19.985 12.8494C18.4417 11.9458 16.6257 10.8823 16.6257 8.44101C16.6257 6.00548 18.2314 4.38102 21.0989 4.38102C23.9664 4.38102 25.5315 5.98034 25.5315 9.02362Z" fill="white"/>
</svg>
