<svg width="37" height="24" viewBox="0 0 37 24" fill="none" xmlns="http://www.w3.org/2000/svg">
<path fill-rule="evenodd" clip-rule="evenodd" d="M18.4005 0C15.3311 0 13.4133 1.5314 12.6456 4.59419C13.7967 3.06279 15.1394 2.48863 16.6739 2.87126C17.5494 3.08951 18.1754 3.72344 18.8678 4.42529C19.9963 5.56818 21.3025 6.89083 24.155 6.89083C27.2239 6.89083 29.1422 5.35944 29.9094 2.29709C28.7588 3.82849 27.416 4.40265 25.8816 4.01958C25.0056 3.80132 24.3796 3.16739 23.6872 2.46599C22.5587 1.3222 21.2529 0 18.4005 0ZM12.6456 6.89083C9.57665 6.89083 7.65835 8.42223 6.89111 11.485C8.04219 9.95363 9.38496 9.37946 10.919 9.76209C11.7949 9.98034 12.421 10.6143 13.1133 11.3161C14.2418 12.459 15.5476 13.7817 18.4005 13.7817C21.4694 13.7817 23.3877 12.2507 24.155 9.18793C23.0039 10.7193 21.6611 11.2935 20.1267 10.9109C19.2512 10.6922 18.6251 10.0582 17.9328 9.35682C16.8042 8.21394 15.498 6.89083 12.6456 6.89083Z" fill="#38BDF8"/>
<path fill-rule="evenodd" clip-rule="evenodd" d="M2.3426 20.179H1.44611V21.9311C1.44611 22.3984 1.7497 22.3911 2.3426 22.3618V23.07C1.14231 23.2161 0.665172 22.8803 0.665172 21.9311V20.179H0V19.4197H0.665172V18.4393L1.44611 18.2055V19.4197H2.3426V20.179ZM5.75986 19.4197H6.5406V23.07H5.75986V22.5444C5.48506 22.9312 5.05845 23.1649 4.49455 23.1649C3.51128 23.1649 2.69431 22.3254 2.69431 21.2448C2.69431 20.1572 3.51128 19.3248 4.49455 19.3248C5.05845 19.3248 5.48506 19.5584 5.75986 19.9381V19.4197ZM4.61756 22.4129C5.26823 22.4129 5.75986 21.9237 5.75986 21.2448C5.75986 20.5658 5.26823 20.0768 4.61756 20.0768C3.96688 20.0768 3.47525 20.566 3.47525 21.2448C3.47525 21.9237 3.96688 22.4129 4.61756 22.4129ZM7.84195 18.8722C7.56735 18.8722 7.34328 18.6387 7.34328 18.3685C7.34391 18.2346 7.39675 18.1064 7.49021 18.012C7.58367 17.9176 7.71015 17.8647 7.84195 17.8648C7.97379 17.8646 8.10032 17.9175 8.19383 18.012C8.28733 18.1064 8.34019 18.2346 8.34083 18.3685C8.34083 18.6385 8.11676 18.8722 7.84195 18.8722ZM7.45159 23.07V19.4197H8.23252V23.07H7.45159ZM9.13626 23.07V17.7402H9.91699V23.0698H9.13626V23.07ZM14.9853 19.4197H15.8095L14.6745 23.07H13.908L13.1561 20.6098L12.3969 23.07H11.6307L10.4954 19.4197H11.3196L12.021 21.9383L12.7802 19.4197H13.5249L14.2767 21.9383L14.9853 19.4197ZM16.7783 18.8722C16.5035 18.8722 16.2794 18.6387 16.2794 18.3685C16.2801 18.2346 16.3329 18.1064 16.4264 18.012C16.5199 17.9175 16.6465 17.8646 16.7783 17.8648C16.9101 17.8646 17.0367 17.9175 17.1302 18.012C17.2237 18.1064 17.2765 18.2346 17.2772 18.3685C17.2772 18.6385 17.0531 18.8722 16.7783 18.8722ZM16.3879 23.07V19.4197H17.1687V23.07H16.3879ZM19.9739 19.3248C20.7836 19.3248 21.362 19.8796 21.362 20.8288V23.0698H20.5813V20.909C20.5813 20.3541 20.2632 20.0623 19.7716 20.0623C19.2582 20.0623 18.8533 20.3688 18.8533 21.1135V23.07H18.0724V19.4197H18.8533V19.887C19.0919 19.5074 19.4823 19.3248 19.9739 19.3248ZM25.0638 17.9597H25.8447V23.0698H25.0638V22.5442C24.7892 22.9312 24.3626 23.1647 23.7987 23.1647C22.8154 23.1647 21.9984 22.3252 21.9984 21.2446C21.9984 20.157 22.8154 19.3246 23.7987 19.3246C24.3626 19.3246 24.7892 19.5581 25.0638 19.9379V17.9597ZM23.9215 22.4129C24.5721 22.4129 25.0638 21.9237 25.0638 21.2448C25.0638 20.5658 24.5721 20.0768 23.9215 20.0768C23.2708 20.0768 22.7792 20.566 22.7792 21.2448C22.7792 21.9237 23.2708 22.4129 23.9215 22.4129ZM28.4619 23.1649C27.3701 23.1649 26.5532 22.3254 26.5532 21.2448C26.5532 20.1572 27.3701 19.3248 28.4619 19.3248C29.1704 19.3248 29.785 19.697 30.0741 20.2666L29.4017 20.6609C29.2426 20.3177 28.8885 20.0987 28.4547 20.0987C27.8185 20.0987 27.3341 20.5879 27.3341 21.2448C27.3341 21.9019 27.8185 22.3911 28.4547 22.3911C28.8885 22.3911 29.2426 22.1647 29.4162 21.8289L30.0886 22.2158C29.785 22.7925 29.1704 23.1649 28.4619 23.1649ZM31.3755 20.4271C31.3755 21.0916 33.3205 20.6899 33.3205 22.0407C33.3205 22.7708 32.6913 23.1649 31.9106 23.1649C31.1876 23.1649 30.667 22.8363 30.4357 22.3107L31.1081 21.9166C31.2237 22.245 31.513 22.4422 31.9106 22.4422C32.2577 22.4422 32.525 22.3254 32.525 22.0332C32.525 21.3836 30.5802 21.7487 30.5802 20.4418C30.5802 19.7555 31.1659 19.3248 31.9033 19.3248C32.4962 19.3248 32.9879 19.6023 33.2409 20.0842L32.583 20.4564C32.4527 20.1717 32.1997 20.0402 31.9033 20.0402C31.6213 20.0402 31.3755 20.1643 31.3755 20.4271ZM34.7086 20.4271C34.7086 21.0916 36.6534 20.6899 36.6534 22.0407C36.6534 22.7708 36.0244 23.1649 35.2435 23.1649C34.5205 23.1649 34.0001 22.8363 33.7686 22.3107L34.441 21.9166C34.5568 22.245 34.8459 22.4422 35.2435 22.4422C35.5906 22.4422 35.8581 22.3254 35.8581 22.0332C35.8581 21.3836 33.9133 21.7487 33.9133 20.4418C33.9133 19.7555 34.4988 19.3248 35.2364 19.3248C35.8291 19.3248 36.3208 19.6023 36.5738 20.0842L35.9159 20.4564C35.7859 20.1717 35.5328 20.0402 35.2364 20.0402C34.9544 20.0402 34.7086 20.1643 34.7086 20.4271Z" fill="#B3B3B3"/>
</svg>
