<svg width="38" height="24" viewBox="0 0 38 24" fill="none" xmlns="http://www.w3.org/2000/svg">
<path fill-rule="evenodd" clip-rule="evenodd" d="M19.128 0.562012C16.0587 0.562012 14.1408 2.09341 13.3731 5.1562C14.5242 3.62481 15.867 3.05064 17.4014 3.43327C18.2769 3.65152 18.903 4.28545 19.5953 4.9873C20.7238 6.13019 22.0301 7.45284 24.8825 7.45284C27.9514 7.45284 29.8697 5.92145 30.637 2.85911C29.4863 4.3905 28.1436 4.96466 26.6091 4.58159C25.7332 4.36333 25.1071 3.7294 24.4148 3.028C23.2862 1.88421 21.9805 0.562012 19.128 0.562012ZM13.3731 7.45284C10.3042 7.45284 8.38588 8.98424 7.61865 12.047C8.76973 10.5156 10.1125 9.94148 11.6465 10.3241C12.5224 10.5424 13.1485 11.1763 13.8409 11.8781C14.9694 13.021 16.2752 14.3437 19.128 14.3437C22.197 14.3437 24.1153 12.8127 24.8825 9.74994C23.7314 11.2813 22.3887 11.8555 20.8542 11.4729C19.9787 11.2542 19.3527 10.6202 18.6603 9.91884C17.5318 8.77595 16.2255 7.45284 13.3731 7.45284Z" fill="#38BDF8"/>
<path fill-rule="evenodd" clip-rule="evenodd" d="M3.07014 20.7411H2.17365V22.4931C2.17365 22.9604 2.47724 22.9531 3.07014 22.9238V23.6321C1.86985 23.7781 1.39271 23.4423 1.39271 22.4931V20.7411H0.727539V19.9817H1.39271V19.0013L2.17365 18.7675V19.9817H3.07014V20.7411ZM6.4874 19.9817H7.26814V23.6321H6.4874V23.1065C6.2126 23.4932 5.78599 23.7269 5.22209 23.7269C4.23882 23.7269 3.42185 22.8874 3.42185 21.8068C3.42185 20.7192 4.23882 19.8868 5.22209 19.8868C5.78599 19.8868 6.2126 20.1204 6.4874 20.5001V19.9817ZM5.34509 22.975C5.99577 22.975 6.4874 22.4858 6.4874 21.8068C6.4874 21.1278 5.99577 20.6388 5.34509 20.6388C4.69442 20.6388 4.20278 21.128 4.20278 21.8068C4.20278 22.4858 4.69442 22.975 5.34509 22.975ZM8.56949 19.4342C8.29489 19.4342 8.07081 19.2007 8.07081 18.9305C8.07145 18.7966 8.12429 18.6684 8.21775 18.574C8.31121 18.4796 8.43769 18.4267 8.56949 18.4268C8.70133 18.4266 8.82786 18.4795 8.92136 18.574C9.01487 18.6684 9.06773 18.7966 9.06837 18.9305C9.06837 19.2005 8.8443 19.4342 8.56949 19.4342ZM8.17913 23.6321V19.9817H8.96006V23.6321H8.17913ZM9.8638 23.6321V18.3022H10.6445V23.6318H9.8638V23.6321ZM15.7129 19.9817H16.5371L15.402 23.6321H14.6356L13.8836 21.1718L13.1244 23.6321H12.3582L11.2229 19.9817H12.0472L12.7486 22.5003L13.5078 19.9817H14.2525L15.0042 22.5003L15.7129 19.9817ZM17.5058 19.4342C17.231 19.4342 17.007 19.2007 17.007 18.9305C17.0076 18.7966 17.0605 18.6684 17.154 18.574C17.2475 18.4795 17.374 18.4266 17.5058 18.4268C17.6377 18.4266 17.7642 18.4795 17.8577 18.574C17.9512 18.6684 18.0041 18.7966 18.0047 18.9305C18.0047 19.2005 17.7806 19.4342 17.5058 19.4342ZM17.1155 23.6321V19.9817H17.8962V23.6321H17.1155ZM20.7014 19.8868C21.5112 19.8868 22.0896 20.4417 22.0896 21.3908V23.6318H21.3088V21.471C21.3088 20.9161 20.9908 20.6243 20.4991 20.6243C19.9857 20.6243 19.5809 20.9308 19.5809 21.6755V23.6321H18.7999V19.9817H19.5809V20.449C19.8195 20.0694 20.2098 19.8868 20.7014 19.8868ZM25.7913 18.5217H26.5722V23.6318H25.7913V23.1062C25.5167 23.4932 25.0901 23.7267 24.5262 23.7267C23.5429 23.7267 22.726 22.8872 22.726 21.8066C22.726 20.719 23.5429 19.8866 24.5262 19.8866C25.0901 19.8866 25.5167 20.1202 25.7913 20.4999V18.5217ZM24.649 22.975C25.2997 22.975 25.7913 22.4858 25.7913 21.8068C25.7913 21.1278 25.2997 20.6388 24.649 20.6388C23.9983 20.6388 23.5067 21.128 23.5067 21.8068C23.5067 22.4858 23.9983 22.975 24.649 22.975ZM29.1894 23.7269C28.0977 23.7269 27.2807 22.8874 27.2807 21.8068C27.2807 20.7192 28.0977 19.8868 29.1894 19.8868C29.8979 19.8868 30.5125 20.259 30.8017 20.8286L30.1292 21.2229C29.9702 20.8797 29.6161 20.6607 29.1822 20.6607C28.546 20.6607 28.0616 21.1499 28.0616 21.8068C28.0616 22.4639 28.546 22.9531 29.1822 22.9531C29.6161 22.9531 29.9702 22.7267 30.1437 22.3909L30.8161 22.7778C30.5125 23.3545 29.8979 23.7269 29.1894 23.7269ZM32.103 20.9891C32.103 21.6536 34.048 21.2519 34.048 22.6027C34.048 23.3328 33.4189 23.7269 32.6381 23.7269C31.9152 23.7269 31.3945 23.3983 31.1632 22.8727L31.8356 22.4786C31.9512 22.807 32.2405 23.0042 32.6381 23.0042C32.9852 23.0042 33.2526 22.8874 33.2526 22.5952C33.2526 21.9456 31.3078 22.3107 31.3078 21.0039C31.3078 20.3175 31.8934 19.8868 32.6309 19.8868C33.2238 19.8868 33.7154 20.1643 33.9685 20.6462L33.3105 21.0184C33.1803 20.7337 32.9272 20.6022 32.6309 20.6022C32.3488 20.6022 32.103 20.7263 32.103 20.9891ZM35.4361 20.9891C35.4361 21.6536 37.3809 21.2519 37.3809 22.6027C37.3809 23.3328 36.752 23.7269 35.971 23.7269C35.2481 23.7269 34.7277 23.3983 34.4961 22.8727L35.1686 22.4786C35.2843 22.807 35.5734 23.0042 35.971 23.0042C36.3181 23.0042 36.5857 22.8874 36.5857 22.5952C36.5857 21.9456 34.6409 22.3107 34.6409 21.0039C34.6409 20.3175 35.2263 19.8868 35.964 19.8868C36.5567 19.8868 37.0483 20.1643 37.3014 20.6462L36.6435 21.0184C36.5134 20.7337 36.2603 20.6022 35.964 20.6022C35.6819 20.6022 35.4361 20.7263 35.4361 20.9891Z" fill="black"/>
</svg>
