<svg width="34" height="39" viewBox="0 0 34 39" fill="none" xmlns="http://www.w3.org/2000/svg">
<path d="M12.5925 37.2739L14.2161 32.5996H15.0072L12.9672 38.1104H12.4032L12.5925 37.2739ZM11.0747 32.5996L12.6833 37.2739L12.8838 38.1104H12.3199L10.2837 32.5996H11.0747ZM18.0427 37.1642V34.0152H18.7466V38.1104H18.0768L18.0427 37.1642ZM18.1751 36.3012L18.4666 36.2936C18.4666 36.5662 18.4376 36.8185 18.3794 37.0507C18.324 37.2802 18.2331 37.4796 18.107 37.6487C17.9809 37.8177 17.8155 37.9502 17.6112 38.0461C17.4068 38.1394 17.1583 38.1861 16.8656 38.1861C16.6662 38.1861 16.4832 38.157 16.3167 38.0991C16.1527 38.0409 16.0114 37.9515 15.8928 37.8303C15.7743 37.7092 15.6821 37.5515 15.6165 37.3572C15.5534 37.1629 15.5219 36.9296 15.5219 36.657V34.0152H16.2221V36.6646C16.2221 36.8488 16.2423 37.0014 16.2827 37.1225C16.3256 37.2411 16.3823 37.3357 16.453 37.4064C16.5262 37.4744 16.6069 37.5224 16.6953 37.5502C16.786 37.5779 16.8794 37.5918 16.9753 37.5918C17.2731 37.5918 17.509 37.5351 17.6831 37.4215C17.8572 37.3055 17.9822 37.1503 18.0577 36.9561C18.1361 36.7592 18.1751 36.5409 18.1751 36.3012ZM21.5134 38.1861C21.2282 38.1861 20.9697 38.1381 20.7375 38.0422C20.5078 37.9439 20.3098 37.8063 20.1432 37.6296C19.9793 37.4531 19.8532 37.2437 19.7648 37.0014C19.6765 36.7592 19.6322 36.4942 19.6322 36.2066V36.0477C19.6322 35.7145 19.6815 35.418 19.7798 35.1582C19.8783 34.8958 20.0121 34.6738 20.1811 34.4921C20.3502 34.3104 20.5419 34.1728 20.7564 34.0795C20.9708 33.9861 21.1929 33.9395 21.4225 33.9395C21.7153 33.9395 21.9675 33.9899 22.1795 34.0908C22.394 34.1917 22.5694 34.333 22.7057 34.5147C22.8418 34.6939 22.9427 34.9058 23.0085 35.1506C23.074 35.3929 23.1068 35.6577 23.1068 35.9455V36.2596H20.0486V35.6881H22.4066V35.6351C22.3966 35.4534 22.3586 35.2767 22.2931 35.1052C22.2299 34.9336 22.129 34.7923 21.9903 34.6813C21.8514 34.5702 21.6623 34.5147 21.4225 34.5147C21.2636 34.5147 21.1173 34.5488 20.9836 34.6169C20.8497 34.6825 20.7349 34.781 20.6391 34.9121C20.5432 35.0434 20.4687 35.2036 20.4158 35.3929C20.3628 35.5821 20.3363 35.8003 20.3363 36.0477V36.2066C20.3363 36.4009 20.3628 36.5838 20.4158 36.7553C20.4713 36.9244 20.5508 37.0733 20.6541 37.202C20.7602 37.3307 20.8876 37.4316 21.0365 37.5048C21.1878 37.5779 21.3595 37.6146 21.5512 37.6146C21.7984 37.6146 22.0079 37.5641 22.1795 37.4631C22.351 37.3622 22.5012 37.2272 22.6299 37.0581L23.0538 37.395C22.9655 37.5287 22.8533 37.6563 22.717 37.7774C22.5807 37.8985 22.4129 37.9968 22.2136 38.0726C22.0168 38.1482 21.7834 38.1861 21.5134 38.1861Z" fill="url(#paint0_linear_1171_42)"/>
<path d="M0.00725057 0.114616C-0.0279052 -0.024769 0.0722492 0.00211858 0.147276 0.00202653C0.652877 0.00141449 1.15848 0.00170843 1.66408 0.00170843C3.31194 0.00170843 4.95981 0.00170838 6.6332 0.0223125C6.7038 0.135431 6.74324 0.231234 6.79479 0.319984C10.0436 5.91379 13.2935 11.507 16.5436 17.1C16.5939 17.1866 16.6508 17.2693 16.7243 17.3851C16.7953 17.273 16.8475 17.1971 16.8932 17.1177C19.6963 12.2544 22.4995 7.39129 25.3005 2.52682C25.7834 1.68819 26.2559 0.843561 26.7331 0.00170843C28.8944 0.00170843 31.0559 0.00113999 33.2173 0.00408552C33.2924 0.00418725 33.3676 0.039343 33.4279 0.098407C32.6414 1.46863 31.8694 2.79822 31.0987 4.12866C29.5951 6.7246 28.0925 9.32113 26.589 11.9172C25.7152 13.4262 24.8398 14.9344 23.9663 16.4436C23.1209 17.9041 22.278 19.3659 21.4321 20.8262C20.577 22.3027 19.7189 23.7774 18.8638 25.2537C18.1591 26.4705 17.4566 27.6886 16.7532 28.9062C16.7532 28.9062 16.7251 28.9062 16.7031 28.8885C16.2503 28.1233 15.8209 27.3753 15.3883 26.6291C14.1752 24.5367 12.9592 22.4459 11.7471 20.3529C10.7042 18.5518 9.66668 16.7475 8.62402 14.9463C7.61432 13.202 6.601 11.4598 5.58941 9.71654C4.85542 8.45169 4.12067 7.1873 3.38807 5.92166C2.74932 4.81815 2.11584 3.71158 1.4749 2.60936C0.989884 1.77533 0.496767 0.946025 0.00725057 0.114616Z" fill="#41B883"/>
<path d="M27.2909 0C26.8115 0.891555 26.3091 1.78605 25.7957 2.67418C22.8174 7.82582 19.8367 12.976 16.8561 18.1263C16.8073 18.2106 16.7521 18.2909 16.6765 18.4096C16.5982 18.287 16.5378 18.1993 16.4844 18.1077C13.0284 12.1845 9.57287 6.26109 6.11832 0.337064C6.06351 0.243077 6.02159 0.141616 5.97461 0.0218218C8.13515 -1.20317e-08 10.2947 3.60952e-08 12.4912 0.0188521C12.537 0.0555339 12.5449 0.0739676 12.5549 0.0911095C13.8784 2.34115 15.202 4.59126 16.5276 6.84005C16.5641 6.90203 16.6249 6.94983 16.6948 7.02681C16.771 6.91547 16.8317 6.83808 16.8805 6.75382C17.2845 6.05526 17.6852 5.35474 18.0892 4.6561C18.9868 3.10367 19.8858 1.55199 20.7841 0C22.9437 0 25.1033 0 27.2909 0Z" fill="#35495E"/>
<defs>
<linearGradient id="paint0_linear_1171_42" x1="16.7949" y1="32.0546" x2="16.7949" y2="38.1104" gradientUnits="userSpaceOnUse">
<stop stop-color="#35495E"/>
<stop offset="1" stop-color="#41B883"/>
</linearGradient>
</defs>
</svg>
